<svg  viewBox="0 0 380 380" fill="none" xmlns="http://www.w3.org/2000/svg">
<g clip-path="url(#clip0_386_1953)">
<rect width="379.36" height="379.36" rx="17.6447" fill="black"/>
<path d="M211.161 -115.03L236.268 -100.387L248.962 -104.549L250.874 -100.087L252.562 -97.9303L259.612 -94.8928L272.099 -90.5802L279.018 -86.7364L291.075 -73.555L296.25 -70.705L298.912 -70.0675L301.2 -70.1238L303.731 -71.005L306.281 -72.7863L309.112 -75.8426L310.8 -76.7238L318.15 -78.4863L323.494 -83.8301L324.412 -84.3177L325.425 -83.8864L326.925 -82.3489L330.281 -76.8363L330.206 -75.0176L328.819 -71.0613L327.637 -69.2237L327.844 -67.3112L331.406 -64.8737L333.731 -60.2987L334.969 -56.8299L336.769 -54.9924L340.35 -55.1799L344.156 -54.6361L346.538 -53.6423L348.188 -52.1986L350.513 -49.0298L350.738 -47.136L351.919 -46.161H354.525L361.95 -44.586L363.844 -43.836L366.432 -41.1547L372.507 -39.1109L374.025 -37.2172L374.907 -34.6109L373.95 -32.4546L375.094 -29.7921L375.544 -27.4108L373.988 -24.8233L374.044 -22.892L372.825 -21.7108L367.538 -20.1545L368.232 -17.9607L370.838 -16.7232L371.757 -14.7919L376.05 -13.7794L379.125 -11.8107L379.557 -9.16688L381.207 -6.52311L383.382 -8.64187L385.069 -9.57938L387.451 -9.54188L390.976 -8.17312L395.344 -8.94187L397.894 -8.90438L395.382 63.6214L395.569 124.953L395.344 170.46L394.594 212.61L396.282 239.836L396.188 249.155L393.638 254.517L393.657 259.505L391.182 268.111L389.138 272.386L383.663 277.186L386.251 285.455L382.032 285.249L376.707 287.667L373.013 290.892L370.407 293.892L365.213 297.924L359.138 300.268L344.925 301.411L336.169 304.243L327.431 304.58L321.525 300.961L316.631 299.686L307.8 299.611L307.593 300.155L293.118 303.136L288.15 302.855L283.049 306.118L281.062 308.236L275.943 310.636L272.981 312.774L267.318 318.455L262.387 319.88L258.318 325.187L257.418 328.13L252.337 335.949L247.687 336.005L244.593 333.718L240.768 331.974L238.874 329.537L238.218 324.793L232.78 323.33L227.493 323.03L221.024 323.312L211.911 321.718L209.099 317.143L209.586 310.636L212.193 307.318L216.58 305.893L220.855 296.686L223.893 293.255L229.724 293.105L235.312 292.617L239.905 286.542L245.474 281.311L253.593 278.274L255.374 271.936L254.549 265.261L248.999 259.655L242.399 258.867L229.78 258.661L228.355 254.161L227.099 246.942L221.961 244.579L219.824 240.961L214.236 229.636L214.18 223.673L213.599 214.054L214.33 209.16L210.167 206.348L213.018 200.31L215.924 195.791L218.868 188.666L216.843 181.579L212.418 176.929L208.724 172.26L205.03 170.947L199.574 172.71L194.792 175.673L186.992 178.373L175.011 170.029L168.73 160.879L173.211 153.454L175.798 145.166L177.917 143.797L173.192 136.56L174.692 123.622L174.861 117.547L180.467 117.397L188.68 117.941L190.48 117.134L189.355 115.203L189.411 112.822L188.605 110.797L186.28 109.016L182.942 108.997L178.798 103.259L172.461 103.859L172.123 99.4155L172.236 95.1967L166.498 94.3717L160.798 90.8466L153.223 85.7466L144.692 76.6528L134.51 71.0839L119.96 70.9339L115.704 64.6526L109.948 59.1776L103.798 55.1275L96.1288 45.6774L92.885 37.2023L92.3975 31.2585L90.0912 25.0335L88.91 21.0397L84.6537 19.5397L79.9662 17.0646L70.7598 15.4709L66.166 12.7708L61.3847 11.4958L56.7722 12.4896L51.1471 12.2083L47.4721 11.3271L40.647 1.97074L33.8407 -2.39806L27.0156 -4.04808L19.9843 -4.51684L10.5342 -3.48557L-0.640931 -1.6668L-7.44723 -2.24805L-11.0848 -5.60434L-14.7036 -16.2544L-14.9661 -22.3295L-20.8911 -25.9483L-32.6475 -30.5233L-38.6101 -35.8859L-41.6663 -41.5485L-43.6351 -46.611L-45.1726 -51.6548L-48.6227 -56.0236L-58.5415 -72.4675L-56.3665 -76.1051L-51.5477 -77.2113L-44.5164 -80.4364L-39.6601 -84.6927L-38.1225 -87.4677L-34.8225 -97.7615L-32.5162 -100.312L-23.8912 -100.443L-20.1974 -103.255L-16.6348 -103.237L-10.9535 -96.2428L-5.14097 -92.1552L-0.828415 -92.0615L0.427844 -97.8553L1.17784 -106.349L3.18412 -114.168L7.79666 -112.049L21.9906 -104.493L99.9539 -76.4051L126.673 -65.2487L169.442 -90.299L210.055 -115.199L211.161 -115.03Z" fill="url(#paint0_linear_386_1953)" stroke="#171717" stroke-width="0.93751"/>
<path d="M-231.194 -33.7112L-230.05 -31.2924L-231.887 -30.9736L-233.05 -32.2299L-234.719 -31.9861L-235.3 -32.6611L-233.219 -33.1487L-232.469 -33.8049L-231.194 -33.7112ZM-90.2109 -145.331L-52.3543 -131.418L-31.9541 -131.493L-10.5226 -120.431L3.16504 -114.149L1.1775 -106.331L0.427503 -97.8368L-0.828756 -92.043L-5.14131 -92.1368L-10.9539 -96.2055L-16.6352 -103.218L-20.1977 -103.237L-23.8915 -100.424L-32.5166 -100.293L-34.8229 -97.7243L-38.1041 -87.4305L-39.6417 -84.6742L-44.498 -80.4179L-51.5293 -77.1928L-56.3481 -76.0866L-58.5231 -72.4491L-48.6043 -56.0051L-45.1542 -51.6551L-43.6167 -46.5925L-41.6479 -41.5487L-38.5916 -35.8862L-32.6291 -30.5049L-20.8727 -25.9486L-14.9476 -22.311L-14.6851 -16.236L-11.0664 -5.58587L-7.41008 -2.21083L-0.603763 -1.62958L10.5714 -3.44834L20.0402 -4.46085L27.0528 -4.01085L33.8966 -2.34209L40.7029 2.02671L47.528 11.3831L51.2218 12.2643L56.8281 12.5456L61.4406 11.5518L66.2219 12.8268L70.8157 15.5268L80.0221 17.1206L84.7284 19.5956L88.9659 21.1144L90.1472 25.0894L92.4722 31.3145L92.9597 37.2583L96.2035 45.7334L103.891 55.1835L110.041 59.2523L115.779 64.7273L120.035 71.0087L134.585 71.1587L144.766 76.7275L153.298 85.8213L160.873 90.9214L166.573 94.4464L172.311 95.2714L172.198 99.4902L172.536 103.915L167.642 105.997L162.354 105.715L152.06 95.4777L148.704 90.5839L141.448 85.0338L135.766 81.8275L130.348 81.0025L130.254 77.6462L130.741 75.79L129.41 74.3087L127.704 75.2274L122.041 72.6774L121.16 76.2775L117.522 77.5712L115.31 75.6775L109.685 75.0774L108.972 77.0462L106.929 77.3275L102.072 77.0275L111.56 85.3338L118.16 90.4714L121.422 91.1464L121.122 87.9026L125.454 88.6526L129.785 93.5277L135.898 96.6027L141.86 97.7464L146.416 99.0214L151.573 102.678L152.304 109.915L160.535 111.209L168.71 114.659L174.936 117.64L174.767 123.715L173.267 136.653L177.992 143.891L175.873 145.241L173.286 153.547L168.804 160.953L162.842 156.022L154.685 153.641L148.292 156.622L142.46 164.591L140.529 172.878L140.004 177.547L133.76 194.179L135.729 207.135L128.435 208.954L120.635 216.098L122.004 223.204L117.466 231.342L112.722 231.473L104.941 226.804L86.0784 219.304L77.772 214.766L70.872 214.954L72.0907 228.098L68.547 227.46L67.8157 226.467L67.9844 225.548L65.1157 222.191L61.1594 219.154L61.5906 217.673L63.4094 218.029L64.6469 219.21L67.2907 219.735L68.2845 219.173L68.7157 218.273L67.8157 216.116L65.5657 216.998L59.0406 214.691L57.1468 213.173L54.7468 212.741L49.328 215.01L47.1342 217.804L44.4717 218.441L43.478 217.429L41.8279 217.166L40.5154 216.323L37.9466 216.623L34.1403 214.598L29.5841 213.885L28.4965 214.448L25.3465 213.585L23.209 212.479L20.4715 211.86L17.6589 210.004L14.6964 207.154L13.9839 203.423L11.8651 198.922L13.1964 198.191L13.9651 195.547L13.5714 193.054L11.2839 189.304L8.56508 186.622L8.32135 185.122L6.09007 184.279L4.02754 182.516L-1.33502 179.554L-4.8038 178.354L-6.28507 176.835L-4.16629 172.71L-4.31629 171.041L-9.90386 165.416L-11.8914 164.816L-13.4476 163.391L-14.4976 160.728L-17.2914 158.216L-27.4165 157.953L-28.9166 158.347L-30.8478 160.147L-33.3228 158.291L-36.0604 158.422L-33.7541 159.847L-32.2728 161.947L-31.0353 162.285L-29.5353 161.216L-26.7978 161.91L-22.2977 159.791L-20.629 159.735L-17.4039 161.085L-14.6102 164.103L-12.4914 167.535L-7.95383 170.403L-7.05382 172.147L-7.07257 173.478L-8.34759 176.872L-7.95383 179.704L-6.88507 180.96L-2.91003 181.822L0.052505 183.51L7.62757 189.979L8.58385 194.479L7.72133 196.879L7.51507 201.847L8.47132 205.429L7.45883 207.398L8.07758 211.804L7.64634 212.704L6.48381 213.266L6.22131 214.916L8.69634 224.573L12.8589 231.492L8.34009 227.385L6.10881 227.029L5.6963 226.448L3.29628 226.504L2.05876 225.004L-4.8413 226.598L-7.01633 228.904L-5.68506 229.748L-4.18504 227.685L-2.19751 227.779L-0.885005 229.448L-2.47878 230.423L-3.66005 231.979L-3.24755 232.804L-2.25379 232.729L0.84001 230.029L1.00875 229.035L0.352515 227.873L1.44 227.554L2.84627 228.473L7.32756 228.604L9.22135 229.86L9.9526 231.604L9.61509 232.354L7.53381 232.748L9.76509 234.098L10.1776 235.26L8.41507 237.229L9.37135 240.304L10.4589 239.235L14.4901 243.417L17.0402 245.273L24.9715 248.592L26.7903 250.279L27.8403 253.598L29.9028 254.536L32.7528 258.886L36.6341 260.911L38.6967 260.929L39.9529 259.617L40.6842 260.779L40.3279 264.173L39.6529 265.336L38.4154 265.167L36.4466 263.236L32.7903 262.954L30.9716 261.867L28.834 259.861L27.3715 257.104L25.609 258.754L24.4465 258.492L23.5277 259.223L24.9152 260.648L27.1653 260.423L29.0403 263.836L30.6153 264.192L31.7591 266.198L34.2528 265.561L35.7153 268.073L36.5404 268.167L37.0466 269.179L35.4154 271.448L32.4341 280.955L28.234 285.173L23.9402 286.148L17.1339 285.567L15.1464 287.686L7.30882 289.298L2.07753 290.948L-5.12255 291.792L-10.8039 297.248L-10.7664 302.667L-6.92257 305.592L0.783761 307.336L7.60883 308.236L15.9902 311.142L24.259 325.955L32.0591 327.043L29.509 332.518L26.509 337.58L24.7278 343.468L26.059 352.955L21.8777 362.162L16.6089 366.737L11.9401 373.018L10.2526 371.237L4.9088 367.13L-1.59752 363.755L-1.67251 362.349L-0.678751 361.374L-0.247505 359.724L-2.34752 354.155L-12.0601 346.599L-15.3602 344.743L-19.2414 343.468L-23.2915 342.849L-23.3477 341.03L-26.2165 338.593L-34.3728 333.624L-37.8416 333.005L-43.6167 330.211L-47.0105 329.18L-48.3418 329.255L-49.3543 331.318L-52.5043 330.961L-56.6293 329.255L-58.3543 327.418L-60.1731 326.48L-63.9044 325.861L-68.6295 326.574L-69.7357 329.63L-70.7482 330.455L-72.2482 330.361L-78.8483 326.574L-79.4858 324.249L-80.6296 323.499L-84.2109 325.786L-85.9546 325.524L-86.6296 326.518L-87.5297 326.255L-87.8296 323.18L-91.4484 320.236L-92.9485 320.067L-96.1922 321.699L-99.9985 321.661L-104.705 319.88L-108.605 320.93L-110.742 319.411L-114.624 318.961L-117.924 316.111L-121.167 316.749L-123.399 316.224L-129.043 316.261L-130.355 315.417L-130.749 312.924L-132.568 311.33L-135.211 310.561L-137.536 310.711L-138.868 311.442L-138.793 312.605L-139.374 313.505L-144.568 310.899L-143.818 309.324L-142.73 308.836L-142.224 307.261L-143.011 302.105L-144.474 299.03L-147.024 295.523L-146.687 294.192L-148.974 289.692L-156.118 280.767L-157.168 278.442L-159.812 276.023L-162.38 274.598L-169.299 267.417L-171.268 264.586L-172.562 259.673L-173.537 258.004L-177.981 254.142L-178.637 252.567L-179.537 252.229L-181.168 249.567L-186.512 242.798L-186.643 239.067L-188.781 236.723L-191.349 225.829L-193.656 222.979L-193.881 220.41L-197.95 211.41L-203.612 203.723L-203.35 201.641L-204.231 197.985L-204.118 194.666L-208.281 185.497L-208.581 181.841L-207.475 178.204L-209.5 171.041L-205.056 167.01L-203.387 164.441L-204.85 160.185L-206.818 156.922L-209.781 153.828L-210.925 151.822L-212.668 151.222L-213.493 150.134L-214.412 150.547L-215.65 149.291L-216.568 149.197L-216.718 148.034L-215.368 144.809L-212.95 143.084L-211.712 143.009L-210.568 144.266L-209.556 142.541L-208.056 142.709L-207.212 141.472L-206.518 138.566L-205.262 137.834L-202.131 131.459L-201.043 131.216L-200.125 130.147L-198.943 127.24L-197.95 127.578L-197.218 129.247L-193.074 129.941L-191.668 129.209L-190.318 127.728L-188.274 120.434L-189.231 115.615L-186.906 115.878L-186.006 117.622L-183.831 116.478L-181.974 113.665L-181.618 110.853L-182.856 109.672L-183.568 104.853L-186.306 103.09L-185.874 102.096L-186.699 101.421L-188.368 101.159L-189.268 100.24L-189.324 97.2402L-191.218 95.2339L-189.793 93.8276L-190.862 91.7464L-193.431 89.9839L-193.262 89.2338L-187.693 88.2776L-186.587 86.2151L-185.087 85.1463L-185.237 83.815L-184.149 82.3338L-184.224 81.6775L-182.049 80.0275L-179.649 80.7963L-177.906 80.4775L-177.006 82.6525L-174.774 84.5838L-172.356 84.5088L-165.587 78.8275L-161.424 77.29L-158.068 74.0837L-157.824 74.8337L-156.343 75.8462L-154.843 75.7712L-152.743 73.0524L-153.08 72.3024L-152.743 71.4774L-154.13 68.8149L-153.887 68.2336L-150.062 67.9336L-147.305 66.7149L-146.293 65.7211L-146.93 62.7211L-146.255 61.7273L-143.443 62.0086L-142.599 60.8461L-138.53 61.6336L-137.518 60.8086L-136.749 59.1586L-136.318 56.346L-133.824 56.7773L-133.13 53.3835L-131.78 52.146L-129.699 51.3397L-129.174 48.4334L-129.624 47.1209L-130.861 45.8647L-137.911 43.3896L-139.58 44.0459L-142.093 46.2772L-145.749 46.9897L-145.786 51.1522L-147.118 51.7147L-147.962 54.2085L-151.037 55.0897L-151.787 56.3273L-153.868 55.5585L-154.018 54.8085L-150.849 52.9335L-149.912 49.9522L-151.318 48.9397L-150.137 46.7084L-149.312 46.8022L-148.543 45.5647L-146.724 45.6584L-145.374 43.5021L-145.618 42.8271L-147.193 42.1521L-148.693 42.2271L-147.174 40.3334L-145.355 40.1834L-144.249 37.9521L-145.149 36.6958L-144.886 35.9458L-142.224 36.6396L-138.136 33.9395L-137.536 32.5333L-140.255 19.7081L-142.093 14.7956L-141.193 12.0393L-141.661 8.28927L-139.861 2.40171L-139.674 0.0766914L-142.055 -3.52334L-146.105 -7.31089L-147.755 -9.72967L-149.462 -13.8922L-154.543 -13.4422L-156.099 -15.3735L-158.687 -15.2235L-159.924 -16.4797L-161.33 -16.6672L-164.499 -16.1047L-167.649 -18.1297L-170.556 -18.1485L-172.749 -17.9422L-175.168 -16.7235L-177.362 -13.4984L-181.824 -16.1985L-186.962 -17.811L-188.631 -17.736L-189.287 -19.911L-190.262 -21.5798L-191.518 -22.4985L-192.174 -24.0923L-191.818 -26.6611L-186.512 -25.5361L-186.249 -27.0361L-188.462 -31.3861L-193.131 -30.0924L-195.868 -30.2799L-200.35 -32.2299L-209.931 -32.4549L-212.537 -38.905L-213.775 -39.9175L-218.181 -41.2112L-227.8 -45.3738L-229.694 -46.9675L-232.844 -48.1488L-234.756 -48.0738L-236.087 -47.08L-242.087 -45.5425L-244 -46.2175L-240.569 -48.2801L-235.825 -49.2363L-232.656 -50.8676L-231.4 -52.1801L-226.075 -52.9676L-223.9 -54.1114L-220.731 -54.5051L-219.644 -55.2364L-218.893 -56.6426L-214.637 -57.5239L-212.687 -61.4239L-214.168 -63.2615L-219.812 -66.299L-215.893 -66.3552L-214.881 -66.9365L-204.906 -65.099L-203.575 -66.0927L-200.987 -65.9052L-198.925 -64.5552L-197.593 -64.874L-195.287 -62.4364L-195.137 -61.2739L-196.806 -59.8677L-196 -56.1176L-194.931 -55.1051L-192.606 -54.8426L-190.299 -52.7426L-187.131 -52.5551L-185.799 -53.3801L-185.462 -54.5426L-185.874 -55.7989L-188.687 -58.7427L-188.424 -59.6614L-186.587 -59.6427L-185.143 -62.2114L-183.568 -61.5364L-182.893 -62.624L-179.556 -62.849L-178.299 -62.4177L-177.474 -60.5052L-175.637 -61.9864L-172.393 -61.5364L-171.212 -62.6052L-168.887 -62.6614L-166.974 -62.0614L-165.737 -60.9739L-164.893 -61.5552L-163.393 -61.3677L-162.399 -59.9427L-162.83 -58.3677L-161.18 -57.0176L-159.362 -56.7551L-158.518 -57.6552L-158.48 -61.2364L-156.137 -61.9677L-155.293 -63.449L-155.78 -64.7802L-161.143 -67.574L-160.318 -69.3178L-157.243 -68.7178L-156.643 -70.5365L-155.218 -71.1928L-152.218 -71.3428L-150.868 -72.8241L-150.512 -75.3928L-151.243 -77.0616L-152.724 -78.3179L-156.98 -80.5116L-162.568 -87.0742L-163.899 -87.843L-166.562 -88.1055L-168.455 -89.5305L-171.437 -90.8055L-174.493 -94.5743L-171.718 -98.3806L-168.887 -98.3618L-168.455 -99.1868L-169.355 -100.518L-169.187 -101.343L-167.855 -102.168L-165.605 -101.812L-164.762 -102.562L-161.462 -99.5431L-160.974 -97.7056L-160.318 -97.1243L-152.499 -95.643L-149.405 -96.5431L-147.474 -98.2681L-145.393 -98.9993L-144.286 -100.574L-143.855 -102.149L-144.643 -108.243L-146.78 -110.512L-148.599 -111.187L-150.755 -113.362L-153.737 -113.231L-147.793 -123.956L-141.774 -133.256L-140.33 -136.537L-127.88 -156.356L-126.324 -159.281L-125.18 -163.744L-123.774 -164.925L-122.105 -165L-106.58 -162.619L-103.861 -161.887L-101.161 -159.225L-94.261 -150.356L-92.1234 -146.569L-90.2109 -145.331Z" fill="url(#paint1_linear_386_1953)" stroke="#171717" stroke-width="0.93751"/>
<path d="M172.46 103.859L178.798 103.259L182.942 108.996L186.279 109.015L188.604 110.796L189.41 112.821L189.354 115.203L190.479 117.134L188.679 117.94L180.467 117.397L174.86 117.547L168.635 114.584L160.46 111.115L152.248 109.84L151.516 102.584L146.341 98.9464L141.785 97.6526L135.822 96.5088L129.71 93.4338L125.379 88.5587L121.047 87.8087L121.347 91.0525L118.085 90.3963L111.485 85.2587L101.997 76.9524L106.853 77.2524L108.897 76.9899L109.61 75.0211L115.235 75.6211L117.428 77.5149L121.066 76.2211L121.947 72.6211L127.61 75.1711L129.316 74.2524L130.647 75.7336L130.16 77.5899L130.254 80.9462L135.654 81.7899L141.354 84.9775L148.61 90.5275L151.966 95.4213L162.26 105.659L167.548 105.94L172.46 103.859Z" fill="url(#paint2_linear_386_1953)" stroke="#171717" stroke-width="0.93751"/>
<path d="M492.395 739.415L490.333 739.622L488.608 738.853L487.97 737.597L488.908 735.965L488.927 734.315L495.939 734.672L496.183 735.253L493.745 738.272L492.395 739.415ZM588.003 660.965L586.746 661.527L586.09 660.946L584.796 654.158L586.54 653.277L587.778 653.877L589.296 657.365L588.921 659.765L588.003 660.965ZM586.878 648.233L585.265 650.521L583.859 650.333L583.053 649.171L583.39 643.977L582.921 631.414L579.209 620.783L580.953 620.483L582.771 620.933L583.953 624.177L583.934 625.583L586.334 631.152L585.696 634.939L585.903 637.171L588.809 646.396L588.378 647.54L586.878 648.233ZM133.817 300.361L126.935 300.698L125.117 299.611L123.973 297.942L124.235 297.117L128.154 295.748L128.323 294.68L127.592 293.592L133.648 294.398L133.273 298.542L134.492 299.967L133.817 300.361ZM74.2474 279.623L78.3724 282.83L79.0287 283.992L72.3161 283.748L70.1411 285.717L68.6598 285.117L67.6848 282.867L65.4535 281.348L65.4723 280.355L66.7285 279.623L69.6348 279.736L70.3848 278.911L74.2474 279.623ZM95.9601 278.217L101.435 280.261L105.166 280.711L106.966 282.305L108.391 282.08L108.804 282.998L107.791 283.823L102.823 283.355L92.6601 279.998L90.335 280.13L90.0913 279.38L92.0038 278.573L95.9601 278.217ZM88.0288 277.879L87.11 278.611L79.9099 276.792L78.5037 275.779L78.8411 274.879L88.0288 277.879ZM55.9472 285.061L57.4284 286.411L60.8222 286.861L63.316 285.061L65.9785 285.248L66.541 287.498L68.041 287.18L68.5098 289.261L70.0098 289.111L72.5223 286.073L74.3598 285.267L75.9349 285.286L84.5787 290.611L86.7725 294.117L91.1225 298.73L92.8475 299.255L97.5726 298.636L102.541 299.442L104.041 298.542L109.273 298.28L112.985 299.986L116.548 300.773L119.435 302.967L122.735 304.167L123.71 305.424L123.354 307.336L123.823 309.586L124.798 311.086L123.954 312.642L121.704 313.355L118.929 316.561L118.31 319.13L118.704 320.705L122.154 324.136L123.973 324.08L124.61 325.655L124.517 327.061L125.248 327.736L126.823 327.511L128.304 329.274L127.723 330.005L124.91 329.649L121.142 333.174L120.879 334.243L121.535 335.668L124.404 338.03L126.71 338.893L128.36 338.743L129.035 337.918L131.435 337.693L133.104 336.718L135.992 337.411L138.148 337.111L143.023 338.405L143.173 339.155L142.498 340.636L138.504 342.174L137.642 344.311L133.91 344.443L132.073 344.911L131.492 345.643L130.46 348.774L129.279 350.161L123.035 351.83L122.604 352.655L123.579 354.568L120.448 359.912L119.585 362.724L118.423 363.38L115.029 362.93L114.185 363.755L112.948 363.418L111.598 366.793L112.723 370.205L112.704 372.118L112.029 373.674L109.779 374.818L105.654 373.618L102.541 370.768L99.2414 369.324L98.0038 368.068L94.9288 368.537L92.7538 370.262L90.1475 374.124L89.5288 376.862L89.9225 378.943L94.3851 380.743L95.8851 382.112L96.1101 383.331L94.1788 386.537L91.2538 388.487L85.4412 390.006L83.6975 390.981L81.1849 394.187L76.2724 396.043L71.2286 402.025L68.0786 409.862L67.8723 413.593L63.3348 427.544L61.9847 430.6L56.8284 432.287L56.2284 434.106L56.6222 436.094L56.1159 436.656L54.5597 434.744L53.8284 432.587L52.0284 431.331L47.9783 430.469L44.8658 427.206L43.722 424.712L42.9158 414.268L41.5283 412.525L37.9095 409.918L23.0781 393.606L21.1468 387.212L19.8531 384.718L18.053 382.956L16.6093 378.887L11.828 373.149L16.4968 366.868L21.7656 362.293L25.9469 353.087L24.6156 343.599L26.3969 337.711L29.3969 332.649L31.9469 327.174L24.1468 326.086L15.878 311.274L7.49669 308.367L0.671618 307.467L-7.03473 305.724L-10.8785 302.799L-10.916 297.38L-5.23471 291.923L1.96536 291.08L7.19668 289.43L15.0342 287.817L17.0218 285.698L23.8281 286.28L28.1219 285.305L32.3219 281.086L35.3032 271.579L36.9345 269.311L36.4282 270.211L38.1532 272.311L41.2845 273.754L48.5221 280.223L52.7409 281.18L53.3034 283.505L54.4472 284.93L55.9472 285.061ZM41.4533 234.323L43.197 234.51L45.0158 234.042L49.2346 235.917L53.7159 236.873L54.9534 237.717L56.3784 237.473L57.1097 238.56L56.4347 239.967L54.6159 240.117L51.7284 238.767L50.3034 239.592L40.6095 237.829L38.8095 235.56L38.3032 235.804L37.9657 236.798L39.3532 238.973L41.0033 239.817L43.0845 239.929L43.9845 241.354L45.0721 241.279L45.9908 240.21L47.1533 240.81L48.3909 240.567L50.3784 241.092L52.2534 243.604L53.2471 244.204L55.4034 243.81L57.6534 242.423L60.8785 242.46L61.0285 243.698L60.091 245.348L58.3472 246.154L58.2534 246.904L51.5784 249.66L49.7596 249.398L42.1845 250.973L36.4657 250.504L30.9344 247.71L29.5469 246.285L28.4031 244.523L26.5656 237.623L25.4969 236.123L26.5094 234.398L28.4219 234.492L33.7657 231.979L37.497 232.354L41.4533 234.323ZM168.73 160.878L175.011 170.028L186.992 178.372L194.792 175.672L199.574 172.728L205.03 170.947L208.742 172.26L212.418 176.928L216.861 181.579L218.886 188.666L215.943 195.791L213.036 200.31L210.186 206.348L214.349 209.16L213.618 214.054L214.199 223.673L214.255 229.635L219.843 240.96L221.98 244.579L227.118 246.923L228.374 254.142L229.799 258.661L242.418 258.867L249.018 259.654L254.568 265.242L255.393 271.936L253.612 278.254L245.493 281.292L239.905 286.542L235.312 292.617L229.724 293.086L223.911 293.236L220.874 296.667L216.58 305.874L212.193 307.299L209.586 310.617L209.117 317.124L211.93 321.699L221.043 323.292L227.511 323.011L232.799 323.311L238.237 324.792L238.893 329.536L240.787 331.974L244.612 333.718L247.687 336.024L243.918 340.243L243.712 345.005L249.862 344.836L252.787 353.087L257.849 352.955L260.212 356.78L253.687 362.593L245.043 362.18L242.605 363.755L241.593 374.387L244.518 382.862L243.674 391.431L245.418 396.137L253.855 405.212L254.043 412.018L255.824 418.356L260.718 424.281L263.231 425.294L269.868 427.281L281.081 426.981L287.625 425.725L293.643 424.918L295.387 429.944L299.025 432.981L304.462 426.887L308.737 421.262L312.262 415.975L309.262 408.812L311.944 404.312L320.287 405.493L326.419 404.687L337.725 404.275L343.856 399.774L352.294 405.062L362.307 408.568L368.232 408.512L373.069 408.156L380.832 412.168L392.157 408.193L399.826 408.962L402.788 410.5L404.626 414.662L403.313 425.931L407.476 432.306L411.62 433.712L418.651 430.712L426.507 433.956L425.551 446.425L426.17 453.644L432.489 456.175L437.326 463.731L443.664 466.919L450.714 472.244L451.332 475.356L454.07 480.794L459.545 479.557L462.901 487.9L469.858 494.2L476.514 492.944L478.783 489.213L481.614 486.325L487.37 487.582L488.514 493.825L492.733 502.788L497.608 507.944L501.677 510.869L505.558 511.094L509.814 512.913L506.046 521.126L506.102 527.07L507.171 539.257L516.883 547.32L528.921 553.47L538.24 555.064L546.283 545.332L558.265 553.751L564.921 564.907L569.177 574.733L573.134 581.651L579.884 583.733L588.509 587.708L594.434 595.864L611.347 602.858L616.072 606.402L623.703 605.539L629.572 602.783L633.041 599.67L635.684 593.876L635.816 586.433L641.066 581.108L643.991 573.251L643.484 570.232L641.291 565.114L633.734 565.207L628.709 563.07L624.959 559.826L625.222 557.651L629.384 551.82L630.153 544.02L629.666 541.77L632.778 537.157L637.016 534.232L640.372 530.895L645.678 519.738L650.834 514.638L654.135 509.032L659.141 502.301L665.572 504.719L668.891 508.094L669.753 512.501L673.353 509.594L678.997 506.951L682.222 506.651L686.122 507.513L687.885 504.757L688.485 498.794L689.835 496.919L694.954 494.519L702.173 498.325L706.166 502.638L711.454 506.819L720.341 508.526L723.304 510.401L728.01 517.076L733.973 518.426L740.085 516.869L747.079 516.251L752.498 520.976L760.223 531.888L765.229 533.595L772.973 537.157L782.386 542.088L787.186 543.795L788.461 551.107L787.823 555.232L792.267 564.195L791.123 570.064L791.723 571.995L799.317 574.058L810.155 575.933L815.311 578.708L818.986 599.352L822.736 606.477L827.574 610.133L836.93 612.908L836.161 608.652L836.78 609.064L847.28 603.439L849.568 603.195L851.687 603.814L855.943 611.577L858.155 614.464L876.849 626.221L882.418 632.314L895.731 635.708L902.181 640.246L903.568 641.839L906.118 649.865L913.243 656.127L913.45 659.971L912.831 662.09L902.031 667.846L899.518 672.777L895.862 677.39L893.556 678.759L880.843 681.346L878.968 682.171L876.062 685.377L873.474 686.315L863.912 687.684L861.324 688.621L858.287 690.552L854.068 695.315L853.299 698.146L853.974 699.871L858.849 704.671L858.812 706.378L857.78 708.346L856.055 709.603L849.587 712.453L849.08 716.709L842.93 718.153L840.905 719.672L842.105 722.653L841.974 724.022L840.774 725.69L840.755 726.853L845.686 732.684L848.124 738.722L853.712 742.866L858.549 745.359L859.637 746.709L860.462 750.909L863.105 753.722L864.043 757.341L867.062 760.266L870.831 765.647L872.724 769.341L872.462 771.985L870.08 774.685L870.268 775.753L872.031 777.703L871.843 784.06L873.981 788.878L874.037 791.147L872.856 794.091L869.949 796.735L868.956 798.366L870.587 807.047L870.737 812.785L869.106 820.173L865.674 827.41L861.643 833.054L858.849 835.229L854.668 837.273L846.886 839.335L843.286 839.373L840.643 838.585L836.836 838.398L829.149 846.31L820.786 856.323L813.567 862.754L804.886 867.573L796.899 870.067L794.442 871.286L793.242 872.542L792.773 874.642L793.036 877.304L795.492 881.279L802.13 883.323L803.799 884.411L812.03 891.03L814.599 895.005L815.967 895.136L821.086 893.336L829.524 895.623L833.405 897.705L834.118 899.205L834.961 904.942L836.293 907.83L835.655 918.724L841.299 922.005L844.112 924.911L844.805 932.542L843.849 938.355L850.093 954.574L850.412 965.374L848.405 975.593L848.087 982.605L847.693 982.099L845.312 981.893L843.999 981.124L839.93 974.205L840.624 971.918L840.511 968.712L841.018 968.149L842.743 967.924L843.924 966.799L844.805 964.099L845.105 961.062L844.299 955.699L840.999 951.274L840.23 948.461L837.98 945.78L837.268 944.036L836.611 939.236L831.943 928.774L819.174 910.005L812.461 903.442L805.674 900.686L786.886 886.323L769.017 876.104L764.161 871.229L760.654 868.867L758.011 864.948L757.523 860.148L757.992 856.942L759.623 853.679L765.567 848.673L769.486 846.348L771.417 844.154L772.261 838.229L774.942 835.398L775.954 833.598L775.823 832.023L772.542 825.685L769.092 820.585L759.136 809.185L757.354 802.791L755.592 800.129L756.586 799.979L758.292 801.085L759.473 804.647L760.936 805.829L762.173 805.604L761.704 804.104L760.654 803.335L760.767 801.685L761.929 800.972L766.036 801.797L770.236 797.41L773.142 797.954L773.161 797.166L771.736 796.36L769.505 796.154L763.673 799.266L761.948 799.229L759.923 797.466L758.311 794.71L755.854 793.847L754.467 792.666L745.767 780.872L745.242 778.135L748.148 772.585L749.798 773.278L750.642 776.672L751.861 777.685L754.073 778.303L754.298 779.466L752.686 781.828L754.223 783.591L752.273 786.197L753.867 789.122L758.948 786.16L760.879 784.135L762.848 784.247L764.236 785.185L765.511 783.385L765.361 782.391L763.073 781.285L761.329 782.072L760.598 781.641L759.754 778.416L752.798 769.716L749.442 768.178L747.586 765.835L745.917 766.959L744.867 765.872L743.798 765.778L743.123 766.435L743.198 766.922L745.654 767.785L746.217 768.872L746.348 770.935L745.579 772.491L744.342 773.053L743.104 772.941L741.885 771.853L738.342 771.628L736.223 769.866L734.479 770.578L732.923 770.222L732.36 769.641L733.129 768.178L732.81 767.26L731.423 766.66L726.398 766.491L724.504 770.841L723.36 770.485L720.867 766.397L719.066 760.847L717.998 760.341L715.091 761.353L709.916 759.609L707.929 759.816L705.248 761.747L700.56 755.878L699.079 755.109L696.604 754.828L695.385 754.228L694.672 752.803L692.535 752.016L691.71 751.266L692.891 749.803L691.785 746.484L692.816 744.028L692.947 741.553L695.029 739.941L695.572 736.49L693.285 735.29L691.447 737.072L690.285 737.053L689.479 735.965L687.416 735.59L685.147 732.74L683.591 732.384L682.747 733.453L679.616 732.497L676.072 732.197L675.51 731.859L675.229 729.047L674.497 728.54L673.072 729.422L672.96 730.903L671.216 732.028L670.86 734.09L670.11 734.578L668.535 734.465L668.31 732.965L667.503 732.215L666.247 732.853L665.01 732.665L661.635 737.222L658.372 739.322L655.635 739.941L653.666 739.491L653.047 737.259L647.684 737.165L644.816 736.209L642.678 736.265L642.153 737.334L641.066 737.972L638.853 737.597L636.734 740.784L636.266 744.403L637.053 746.391L638.366 746.991L639.959 745.453L641.516 745.641L642.903 746.728L643.128 747.722L641.591 750.591L642.566 751.603L643.822 750.553L645.228 750.497L647.422 752.109L650.103 755.128L652.878 757.078L655.597 762.159L654.341 767.916L654.566 769.978L656.085 771.122L656.835 772.735L658.466 774.403L662.535 777.685L666.585 782.372L669.678 785.072L672.135 786.441L674.441 786.403L677.197 789.179L682.072 788.428L691.822 792.066L696.698 796.847L699.679 800.86L702.548 801.816L704.666 803.504L706.241 802.622L706.598 800.654L707.573 801.816L708.041 803.56L706.054 818.129L707.179 820.041L713.498 827.166L713.066 828.723L711.791 830.429L708.098 833.748L708.398 835.229L712.185 840.817L712.579 842.392L709.635 850.173L710.854 855.723L709.485 858.742L705.641 861.236L697.448 858.367L687.96 853.829L674.103 849.142L663.791 844.435L657.828 840.779L653.985 839.391L636.959 835.979L629.216 835.51L624.753 835.604L616.897 836.879L616.39 837.367L614.103 836.504L610.372 837.592L608.065 837.217L599.178 830.729L598.24 827.335L595.503 823.735L590.871 819.46L583.278 815.054L569.402 799.566L557.796 787.585L553.934 786.441L553.465 785.203L551.89 785.916L550.54 787.304L549.34 785.391L548.252 780.91L545.102 776.166L545.215 774.853L547.671 770.353L548.458 767.222L550.39 764.691L552.959 763.735L553.634 762.591L554.496 755.016L555.359 752.972L559.296 749.653L562.952 748.397L573.771 747.741L575.44 747.103L576.696 745.472L577.896 742.115L577.465 737.99L578.665 734.465L580.596 732.178L583.09 731.222L584.44 729.422L583.559 728.259L582.246 728.072L581.234 729.215L580.484 729.29L579.715 725.39L579.753 723.084L580.353 721.603L581.196 720.797L585.321 720.609L588.565 719.259L590.684 715.734L592.559 716.915L592.653 715.922L590.721 712.584L591.228 712.19L596.365 711.534L599.928 710.446L602.797 711.478L605.647 709.284L604.859 706.959L604.203 706.528L602.703 707.334L602.422 704.109L601.84 704.09L601.165 705.328L600.378 708.196L598.709 708.834L593.009 708.74L589.315 708.028L588.078 712.959L587.14 714.759L584.14 716.784L582.49 716.597L577.784 711.571L586.765 701.971L588.603 701.09L589.953 699.29L592.109 698.578L594.115 696.871L595.465 694.584L599.29 693.496L603.715 695.709L606.265 695.915L608.628 697.453L609.715 696.815L608.44 694.49L605.009 691.865L604.372 690.046L605.14 688.827L607.015 690.346L613.54 690.196L615.622 689.577L618.828 690.627L621.172 689.352L621.397 690.346L619.015 695.184L617.684 700.453L615.828 702.815L614.178 703.453L611.29 703.49L609.209 704.784L608.422 707.09L608.553 708.984L607.709 710.54L605.815 710.184L605.628 710.934L606.284 711.759L607.765 712.603L609.509 712.059L610.747 712.246L611.928 710.934L611.647 708.365L612.415 706.978L615.228 706.284L618.322 704.278L620.647 698.54L620.534 695.409L621.64 693.027L623.047 692.559L624.753 693.834L625.672 693.684L629.684 690.853L636.303 689.896L637.316 688.846L636.678 687.177L635.197 686.409L634.597 687.552L633.341 688.434H628.559L624.884 690.927L623.909 690.421L623.759 688.94L625.784 686.577L624.64 685.64L622.39 686.765L620.665 686.409L618.247 688.434L614.14 687.121L609.997 688.04L607.372 687.009L605.59 684.909L604.109 684.721L602.609 685.602L602.159 688.002L603.097 691.396L602.759 692.128L602.103 692.109L600.472 690.759L599.459 687.102L597.809 686.746L593.309 683.859L586.296 683.915L588.696 678.59L588.996 674.652L591.528 676.49L595.128 678.027L604.69 679.509L607.072 680.709L608.29 682.209L611.572 683.427L610.653 679.04L608.44 677.596L607.728 676.096L609.247 673.734L610.578 673.509L613.372 674.634L615.603 674.502L615.959 672.852L614.984 671.765L611.928 671.39L609.359 671.765L606.19 673.527L604.747 676.565L603.415 677.709L597.359 673.884L596.271 674.202L592.99 673.077L591.678 672.065L591.04 669.984L591.303 669.252L592.596 670.921L596.046 671.802L598.24 673.659L599.965 673.771L600.884 672.871L600.809 671.877L594.321 670.04L593.496 669.44L592.878 667.115L592.146 666.608L590.759 666.177L587.234 668.934L585.903 669.083L585.096 668.408L585.021 667.34L585.959 665.783L590.403 661.977L591.434 659.84L591.04 658.19L592.034 652.34L591.659 649.283L589.728 645.608L589.84 644.371L588.678 639.758L587.14 637.077L587.084 635.258L587.871 632.783L589.128 632.221L593.496 632.371L593.515 631.714L588.753 630.064L587.571 626.577L587.871 623.764L589.128 622.883L589.146 622.227L587.346 621.871L586.39 619.695L583.915 619.489L582.528 618.814L579.453 614.633L576.584 613.02L575.065 614.652L573.584 614.708L571.334 610.039L566.59 606.983L566.946 605.577L566.477 604.245L564.171 603.458L562.165 599.877L555.321 593.708L554.552 590.708L550.596 588.064L548.777 584.989L546.471 582.833L544.952 582.214L541.54 582.626L539.946 583.658L539.065 585.814L538.24 585.795L536.44 584.445L538.127 582.158L537.096 578.914L536.852 573.364L535.802 571.451L531.471 567.57L524.177 563.314L512.008 558.251L507.639 557.764L507.152 557.107L508.108 554.22L506.889 552.551L504.677 550.939L501.358 546.251L491.702 539.238L488.439 536.051L488.72 534.063L487.577 533.22L486.414 533.37L485.402 534.513L478.445 529.451L478.07 527.22L477.245 527.37L476.57 528.682L459.826 519.419L443.045 512.219L441.826 510.382L443.439 507.588L442.464 506.744L441.282 507.644L440.495 510.944L439.164 510.926L436.689 509.988L431.513 506.763L427.726 505.713L422.382 502.901L412.313 500.519L410.738 500.913L407.982 502.694L406.97 498.288L406.07 497.782L405.076 498.269L403.969 499.919L401.907 499.638L400.332 500.369L398.888 497.032L396.676 494.763L394.613 493.732L392.382 493.525L390.638 494.163L389.157 494.05L391.276 491.107L393.263 491.632L393.863 490.15L392.026 484.75L393.207 482.707L390.694 479.369L386.176 476.988L382.988 473.632L380.963 470.631L378.507 468.944L371.1 466.431L368.325 463.581L365.588 458.163L363.713 456.306L362.475 455.875L361.707 457.113L362.682 459.194L369.207 466.975L372.15 469L375.525 470.125L378.263 470.238L379.257 470.838L379.725 472.582L379.125 473.407L377.063 473.463L373.013 472.244L372.357 471.325L366.6 468.85L362.344 465.813L359.588 461.294L355.294 461.144L351.675 459.306L349.425 459.719L350.644 461.106L351.713 461.538L357.432 462.531L358.575 463.375L358.556 464.369L357.563 464.688L351.263 462.794L348.356 462.756L347.531 462.006L342.244 461.613L341.419 461.931L338.213 459.738L336.806 459.381L335.663 458.369L336.413 457.469L336.281 455.481L335.381 455.144L334.2 456.625L331.875 456.756L331.612 457.338L332.175 458.425L331.669 458.669L312.356 454.188L310.556 452.594L309.544 453.569L305.418 453.025L303.843 452.331L303.206 449.913L301.893 449.406L300.468 450.794L298.312 450.681L294.037 448.806L291.543 448.694L286.2 446.556L282.731 446.012L280.631 446.256L277.912 445.225L277.312 446.462L261.956 449.069L258.374 444.887L257.568 443.219L259.499 440.931L258.693 439.262L254.868 440.612L252.337 438.344L251.437 438.156L251.605 439.412L253.03 440.875L252.543 441.325L249.43 438.55L248.868 437.294L247.368 437.275L243.018 433.487L234.299 428.406L233.061 427.394L230.211 422.8L230.661 420.231L228.374 417.793L227.905 416.05L226.686 414.287L225.861 414.193L223.724 412.337L221.643 413.387L220.499 412.956L217.461 410.106L216.899 408.775L218.661 407.218L219.168 405.812L219.018 404.481L217.143 402.381L214.911 401.443L211.086 402.475L210.43 401.725L210.28 400.562L212.793 397.937L212.324 395.856L213.336 394.206L213.093 393.118L210.805 391.356L211.611 385.974L213.13 384.249L214.386 383.856L215.399 382.299L215.661 380.387L217.274 377.181L221.38 372.849L223.199 372.455L224.211 370.637L225.543 369.662L227.68 363.812L225.805 354.755L224.23 353.743L218.549 344.48L213.318 338.611L212.343 336.868L208.986 333.174L204.955 331.224L202.817 329.536L202.161 328.28L202.424 327.624L203.492 327.793L204.167 327.23L201.899 323.799L192.13 315.961L192.055 314.724L193.799 313.674L195.992 311.217L198.449 307.261L198.299 306.099L193.855 302.723L189.842 298.448L188.474 294.792L189.092 290.986L188.361 289.486L187.124 288.23L185.136 287.461L180.073 287.311L175.442 286.017L170.38 286.711L165.167 286.242L162.242 287.367H155.023L151.123 288.061L149.886 287.723L149.154 286.223L149.754 285.23L152.004 284.18L159.073 282.773L156.673 282.248L154.517 282.473L148.648 280.336L144.954 277.392L134.904 271.223L131.867 268.786L125.942 264.811L124.123 264.698L123.298 263.611L123.485 261.961L120.073 262.748L115.329 255.567L113.266 254.629L111.691 255.023L106.648 253.467L106.066 252.623L106.741 251.798L108.579 251.067L110.229 251.085L109.085 249.248L108.448 246.248L107.06 244.317L103.348 242.442L99.5414 241.898L96.4851 240.454L90.26 233.423L87.6162 231.154L82.1787 228.698L78.7099 226.429L77.3036 226.241L75.1099 228.792L74.1161 229.11L71.9411 227.948L70.7223 214.804L77.6224 214.616L85.9287 219.154L104.791 226.654L112.573 231.323L117.317 231.192L121.854 223.054L120.485 215.948L128.285 208.804L135.579 206.985L133.61 194.029L139.854 177.397L140.379 172.728L142.311 164.441L148.142 156.472L154.536 153.491L162.692 155.872L168.73 160.878Z" fill="url(#paint3_linear_386_1953)" stroke="#171717" stroke-width="0.93751"/>
<path d="M474.17 220.823L477.283 228.641L481.408 246.492L485.383 249.848L492.789 252.679L498.414 257.817L501.039 263.273L501.302 269.217L502.333 275.461L504.846 280.692L503.196 283.992L496.783 286.017L494.158 284.892L490.896 283.898L487.858 287.217L484.164 290.348L477.733 291.605L472.427 290.573L456.958 292.617L454.501 293.967L454.108 299.611L449.608 304.936L444.32 308.649L443.814 313.955L449.72 313.149L453.283 313.261L455.064 315.267L455.026 318.192L453.489 321.474L451.858 324.661L449.964 326.874L444.883 334.486L443.889 337.636L440.158 339.68L433.182 344.968L426.47 348.286L424.332 348.774L424.895 353.724L423.264 357.137L427.089 359.087L432.92 359.462L439.126 357.999L443.664 357.755L453.208 351.98L455.87 350.836L459.226 359.612L463.501 366.193L472.539 370.168L472.802 375.68L472.352 379.262L473.702 381.268L477.489 381.605L481.314 384.081L482.458 386.537L484.314 387.474L487.521 385.862L492.939 391.224L495.771 392.668L499.671 393.212L501.471 392.181L507.546 393.212L509.121 395.968L509.083 402.793L511.052 407.818L515.665 411.25L521.083 412.412L525.133 414.343L529.465 415.525L534.621 417.625L537.959 417.212L536.871 421.881L538.427 427.356L541.052 429.025L546.34 429.193L547.952 433.15L552.19 434.219L559.596 432.4L564.059 434.556L569.796 430.825L571.859 426.868L574.503 424.637L578.365 424.093L582.828 425.706L587.065 430.675L590.778 432.4L599.647 437.894L606.378 439.544L611.403 441.569L623.084 451.525L631.053 455.2L637.016 460.544L639.453 471.719L643.241 480.794L650.741 496.15L659.178 502.244L654.172 508.976L650.872 514.582L645.716 519.682L640.41 530.838L637.035 534.176L632.797 537.101L629.684 541.713L630.172 543.982L629.422 551.782L625.259 557.614L624.997 559.789L628.747 563.032L633.753 565.17L641.31 565.057L643.503 570.195L644.01 573.195L641.085 581.051L635.834 586.376L635.703 593.839L633.059 599.633L629.572 602.745L623.722 605.502L616.091 606.345L611.347 602.801L594.453 595.808L588.509 587.651L579.884 583.676L573.134 581.595L569.178 574.676L564.94 564.851L558.284 553.695L546.302 545.276L538.24 554.989L528.921 553.395L516.902 547.245L507.189 539.182L506.121 527.013L506.064 521.069L509.833 512.857L505.577 511.038L501.696 510.813L497.627 507.907L492.752 502.732L488.514 493.769L487.37 487.544L481.633 486.288L478.783 489.175L476.514 492.907L469.858 494.163L462.902 487.863L459.545 479.538L454.089 480.757L451.351 475.319L450.733 472.206L443.683 466.881L437.345 463.713L432.507 456.156L426.189 453.625L425.551 446.406L426.526 433.937L418.67 430.694L411.638 433.694L407.495 432.287L403.332 425.912L404.663 414.643L402.826 410.462L399.863 408.925L392.194 408.156L380.869 412.131L373.088 408.137L368.251 408.475L362.325 408.531L352.294 405.025L343.856 399.737L337.725 404.218L326.4 404.631L320.269 405.456L311.944 404.274L309.262 408.775L312.244 415.937L308.719 421.225L304.444 426.85L299.006 432.944L295.369 429.906L293.606 424.881L287.587 425.687L281.043 426.943L269.831 427.243L263.193 425.256L260.699 424.243L255.787 418.318L254.006 412L253.818 405.193L245.381 396.118L243.637 391.412L244.499 382.843L241.574 374.368L242.587 363.737L245.024 362.162L253.668 362.574L260.193 356.78L257.831 352.936L252.768 353.086L249.843 344.818L243.712 344.986L243.899 340.224L247.687 336.005L252.337 335.949L257.418 328.13L258.318 325.186L262.387 319.88L267.318 318.455L272.981 312.774L275.943 310.636L281.062 308.236L283.05 306.117L288.15 302.855L293.118 303.136L307.594 300.155L307.8 299.611L316.631 299.686L321.525 300.961L327.431 304.58L336.169 304.242L344.925 301.411L359.138 300.267L365.213 297.923L370.407 293.892L373.013 290.892L376.707 287.667L382.032 285.248L386.251 285.455L390.376 286.523L392.776 287.555L394.501 287.93L399.038 288.361L405.563 286.111L410.963 286.842L412.613 287.873L419.364 285.848L423.77 285.192L425.889 284.048L431.289 284.123L436.726 281.911L442.464 278.498L447.058 273.192L448.97 267.829L449.908 262.392L445.426 255.923L443.401 252.285L444.301 249.998L444.545 246.848L446.083 243.773L452.439 243.379L456.714 242.404L459.751 238.542L460.295 226.298L460.07 221.535L463.202 217.448L480.47 205.71L478.408 209.872L474.17 220.823Z" fill="url(#paint4_linear_386_1953)" stroke="#171717" stroke-width="0.93751"/>
<g filter="url(#filter0_b_386_1953)">
<rect x="167" y="219" width="301" height="43" rx="12" fill="#101010" fill-opacity="0.8"/>
<path d="M184.248 234.576H191.752V235.856H185.768V239.488H191.016V240.768H185.768V246H184.248V234.576ZM194.652 236.24H193.292V234.576H194.652V236.24ZM193.292 237.728H194.652V246H193.292V237.728ZM202.502 241.072C202.481 240.752 202.406 240.448 202.278 240.16C202.161 239.872 201.996 239.627 201.782 239.424C201.58 239.211 201.334 239.045 201.046 238.928C200.769 238.8 200.46 238.736 200.118 238.736C199.766 238.736 199.446 238.8 199.158 238.928C198.881 239.045 198.641 239.211 198.438 239.424C198.236 239.637 198.076 239.888 197.958 240.176C197.841 240.453 197.772 240.752 197.75 241.072H202.502ZM203.814 243.376C203.633 244.304 203.233 245.003 202.614 245.472C201.996 245.941 201.217 246.176 200.278 246.176C199.617 246.176 199.041 246.069 198.55 245.856C198.07 245.643 197.665 245.344 197.334 244.96C197.004 244.576 196.753 244.117 196.582 243.584C196.422 243.051 196.332 242.469 196.31 241.84C196.31 241.211 196.406 240.635 196.598 240.112C196.79 239.589 197.057 239.136 197.398 238.752C197.75 238.368 198.161 238.069 198.63 237.856C199.11 237.643 199.633 237.536 200.198 237.536C200.934 237.536 201.542 237.691 202.022 238C202.513 238.299 202.902 238.683 203.19 239.152C203.489 239.621 203.692 240.133 203.798 240.688C203.916 241.243 203.964 241.771 203.942 242.272H197.75C197.74 242.635 197.782 242.981 197.878 243.312C197.974 243.632 198.129 243.92 198.342 244.176C198.556 244.421 198.828 244.619 199.158 244.768C199.489 244.917 199.878 244.992 200.326 244.992C200.902 244.992 201.372 244.859 201.734 244.592C202.108 244.325 202.353 243.92 202.47 243.376H203.814ZM205.432 234.576H206.792V246H205.432V234.576ZM209.891 241.936C209.891 242.32 209.939 242.699 210.035 243.072C210.142 243.435 210.296 243.76 210.499 244.048C210.712 244.336 210.979 244.565 211.299 244.736C211.63 244.907 212.014 244.992 212.451 244.992C212.91 244.992 213.299 244.901 213.619 244.72C213.939 244.539 214.2 244.304 214.403 244.016C214.606 243.717 214.75 243.381 214.835 243.008C214.931 242.635 214.979 242.256 214.979 241.872C214.979 241.467 214.931 241.077 214.835 240.704C214.739 240.32 214.584 239.984 214.371 239.696C214.168 239.408 213.902 239.179 213.571 239.008C213.24 238.827 212.84 238.736 212.371 238.736C211.912 238.736 211.523 238.827 211.203 239.008C210.883 239.189 210.627 239.429 210.435 239.728C210.243 240.027 210.104 240.368 210.019 240.752C209.934 241.136 209.891 241.531 209.891 241.936ZM216.291 246H214.931V244.88H214.899C214.675 245.339 214.323 245.669 213.843 245.872C213.363 246.075 212.835 246.176 212.259 246.176C211.619 246.176 211.059 246.059 210.579 245.824C210.11 245.589 209.715 245.275 209.395 244.88C209.086 244.485 208.851 244.027 208.691 243.504C208.531 242.981 208.451 242.427 208.451 241.84C208.451 241.253 208.526 240.699 208.675 240.176C208.835 239.653 209.07 239.2 209.379 238.816C209.699 238.421 210.094 238.112 210.563 237.888C211.043 237.653 211.598 237.536 212.227 237.536C212.44 237.536 212.67 237.557 212.915 237.6C213.16 237.643 213.406 237.717 213.651 237.824C213.896 237.92 214.126 238.053 214.339 238.224C214.563 238.384 214.75 238.587 214.899 238.832H214.931V234.576H216.291V246ZM220.463 239.504H218.687V237.728H220.463V239.504ZM218.687 244.224H220.463V246H218.687V244.224Z" fill="#A3A3A3"/>
<path d="M347.568 246H345.984L343.376 236.4H343.344L340.704 246H339.12L336.192 234.576H337.744L339.984 244.08H340.016L342.576 234.576H344.224L346.752 244.08H346.784L349.104 234.576H350.624L347.568 246ZM351.837 234.576H353.197V238.944H353.229C353.335 238.688 353.485 238.475 353.677 238.304C353.869 238.123 354.082 237.979 354.317 237.872C354.562 237.755 354.813 237.669 355.069 237.616C355.335 237.563 355.591 237.536 355.837 237.536C356.381 237.536 356.834 237.611 357.197 237.76C357.559 237.909 357.853 238.117 358.077 238.384C358.301 238.651 358.455 238.971 358.541 239.344C358.637 239.707 358.685 240.112 358.685 240.56V246H357.325V240.4C357.325 239.888 357.175 239.483 356.877 239.184C356.578 238.885 356.167 238.736 355.645 238.736C355.229 238.736 354.866 238.8 354.557 238.928C354.258 239.056 354.007 239.237 353.805 239.472C353.602 239.707 353.447 239.984 353.341 240.304C353.245 240.613 353.197 240.955 353.197 241.328V246H351.837V234.576ZM366.471 241.072C366.45 240.752 366.375 240.448 366.247 240.16C366.13 239.872 365.964 239.627 365.751 239.424C365.548 239.211 365.303 239.045 365.015 238.928C364.738 238.8 364.428 238.736 364.087 238.736C363.735 238.736 363.415 238.8 363.127 238.928C362.85 239.045 362.61 239.211 362.407 239.424C362.204 239.637 362.044 239.888 361.927 240.176C361.81 240.453 361.74 240.752 361.719 241.072H366.471ZM367.783 243.376C367.602 244.304 367.202 245.003 366.583 245.472C365.964 245.941 365.186 246.176 364.247 246.176C363.586 246.176 363.01 246.069 362.519 245.856C362.039 245.643 361.634 245.344 361.303 244.96C360.972 244.576 360.722 244.117 360.551 243.584C360.391 243.051 360.3 242.469 360.279 241.84C360.279 241.211 360.375 240.635 360.567 240.112C360.759 239.589 361.026 239.136 361.367 238.752C361.719 238.368 362.13 238.069 362.599 237.856C363.079 237.643 363.602 237.536 364.167 237.536C364.903 237.536 365.511 237.691 365.991 238C366.482 238.299 366.871 238.683 367.159 239.152C367.458 239.621 367.66 240.133 367.767 240.688C367.884 241.243 367.932 241.771 367.911 242.272H361.719C361.708 242.635 361.751 242.981 361.847 243.312C361.943 243.632 362.098 243.92 362.311 244.176C362.524 244.421 362.796 244.619 363.127 244.768C363.458 244.917 363.847 244.992 364.295 244.992C364.871 244.992 365.34 244.859 365.703 244.592C366.076 244.325 366.322 243.92 366.439 243.376H367.783ZM376.649 245.968C376.414 246.107 376.089 246.176 375.673 246.176C375.321 246.176 375.038 246.08 374.825 245.888C374.622 245.685 374.521 245.36 374.521 244.912C374.148 245.36 373.71 245.685 373.209 245.888C372.718 246.08 372.185 246.176 371.609 246.176C371.236 246.176 370.878 246.133 370.537 246.048C370.206 245.963 369.918 245.829 369.673 245.648C369.428 245.467 369.23 245.232 369.081 244.944C368.942 244.645 368.873 244.288 368.873 243.872C368.873 243.403 368.953 243.019 369.113 242.72C369.273 242.421 369.481 242.181 369.737 242C370.004 241.808 370.302 241.664 370.633 241.568C370.974 241.472 371.321 241.392 371.673 241.328C372.046 241.253 372.398 241.2 372.729 241.168C373.07 241.125 373.369 241.072 373.625 241.008C373.881 240.933 374.084 240.832 374.233 240.704C374.382 240.565 374.457 240.368 374.457 240.112C374.457 239.813 374.398 239.573 374.281 239.392C374.174 239.211 374.03 239.072 373.849 238.976C373.678 238.88 373.481 238.816 373.257 238.784C373.044 238.752 372.83 238.736 372.617 238.736C372.041 238.736 371.561 238.848 371.177 239.072C370.793 239.285 370.585 239.696 370.553 240.304H369.193C369.214 239.792 369.321 239.36 369.513 239.008C369.705 238.656 369.961 238.373 370.281 238.16C370.601 237.936 370.964 237.776 371.369 237.68C371.785 237.584 372.228 237.536 372.697 237.536C373.07 237.536 373.438 237.563 373.801 237.616C374.174 237.669 374.51 237.781 374.809 237.952C375.108 238.112 375.348 238.341 375.529 238.64C375.71 238.939 375.801 239.328 375.801 239.808V244.064C375.801 244.384 375.817 244.619 375.849 244.768C375.892 244.917 376.02 244.992 376.233 244.992C376.35 244.992 376.489 244.965 376.649 244.912V245.968ZM374.441 241.728C374.27 241.856 374.046 241.952 373.769 242.016C373.492 242.069 373.198 242.117 372.889 242.16C372.59 242.192 372.286 242.235 371.977 242.288C371.668 242.331 371.39 242.405 371.145 242.512C370.9 242.619 370.697 242.773 370.537 242.976C370.388 243.168 370.313 243.435 370.313 243.776C370.313 244 370.356 244.192 370.441 244.352C370.537 244.501 370.654 244.624 370.793 244.72C370.942 244.816 371.113 244.885 371.305 244.928C371.497 244.971 371.7 244.992 371.913 244.992C372.361 244.992 372.745 244.933 373.065 244.816C373.385 244.688 373.646 244.533 373.849 244.352C374.052 244.16 374.201 243.957 374.297 243.744C374.393 243.52 374.441 243.312 374.441 243.12V241.728ZM379.803 237.728H381.451V238.928H379.803V244.064C379.803 244.224 379.813 244.352 379.835 244.448C379.867 244.544 379.92 244.619 379.995 244.672C380.069 244.725 380.171 244.763 380.299 244.784C380.437 244.795 380.613 244.8 380.827 244.8H381.451V246H380.411C380.059 246 379.755 245.979 379.499 245.936C379.253 245.883 379.051 245.792 378.891 245.664C378.741 245.536 378.629 245.355 378.555 245.12C378.48 244.885 378.443 244.576 378.443 244.192V238.928H377.035V237.728H378.443V235.248H379.803V237.728ZM387.639 234.576H395.143V235.856H389.159V239.488H394.407V240.768H389.159V246H387.639V234.576ZM398.042 236.24H396.682V234.576H398.042V236.24ZM396.682 237.728H398.042V246H396.682V237.728ZM405.893 241.072C405.872 240.752 405.797 240.448 405.669 240.16C405.552 239.872 405.386 239.627 405.173 239.424C404.97 239.211 404.725 239.045 404.437 238.928C404.16 238.8 403.85 238.736 403.509 238.736C403.157 238.736 402.837 238.8 402.549 238.928C402.272 239.045 402.032 239.211 401.829 239.424C401.626 239.637 401.466 239.888 401.349 240.176C401.232 240.453 401.162 240.752 401.141 241.072H405.893ZM407.205 243.376C407.024 244.304 406.624 245.003 406.005 245.472C405.386 245.941 404.608 246.176 403.669 246.176C403.008 246.176 402.432 246.069 401.941 245.856C401.461 245.643 401.056 245.344 400.725 244.96C400.394 244.576 400.144 244.117 399.973 243.584C399.813 243.051 399.722 242.469 399.701 241.84C399.701 241.211 399.797 240.635 399.989 240.112C400.181 239.589 400.448 239.136 400.789 238.752C401.141 238.368 401.552 238.069 402.021 237.856C402.501 237.643 403.024 237.536 403.589 237.536C404.325 237.536 404.933 237.691 405.413 238C405.904 238.299 406.293 238.683 406.581 239.152C406.88 239.621 407.082 240.133 407.189 240.688C407.306 241.243 407.354 241.771 407.333 242.272H401.141C401.13 242.635 401.173 242.981 401.269 243.312C401.365 243.632 401.52 243.92 401.733 244.176C401.946 244.421 402.218 244.619 402.549 244.768C402.88 244.917 403.269 244.992 403.717 244.992C404.293 244.992 404.762 244.859 405.125 244.592C405.498 244.325 405.744 243.92 405.861 243.376H407.205ZM408.823 234.576H410.183V246H408.823V234.576ZM413.282 241.936C413.282 242.32 413.33 242.699 413.426 243.072C413.532 243.435 413.687 243.76 413.89 244.048C414.103 244.336 414.37 244.565 414.69 244.736C415.02 244.907 415.404 244.992 415.842 244.992C416.3 244.992 416.69 244.901 417.01 244.72C417.33 244.539 417.591 244.304 417.794 244.016C417.996 243.717 418.14 243.381 418.226 243.008C418.322 242.635 418.37 242.256 418.37 241.872C418.37 241.467 418.322 241.077 418.226 240.704C418.13 240.32 417.975 239.984 417.762 239.696C417.559 239.408 417.292 239.179 416.962 239.008C416.631 238.827 416.231 238.736 415.762 238.736C415.303 238.736 414.914 238.827 414.594 239.008C414.274 239.189 414.018 239.429 413.826 239.728C413.634 240.027 413.495 240.368 413.41 240.752C413.324 241.136 413.282 241.531 413.282 241.936ZM419.682 246H418.322V244.88H418.29C418.066 245.339 417.714 245.669 417.234 245.872C416.754 246.075 416.226 246.176 415.65 246.176C415.01 246.176 414.45 246.059 413.97 245.824C413.5 245.589 413.106 245.275 412.786 244.88C412.476 244.485 412.242 244.027 412.082 243.504C411.922 242.981 411.842 242.427 411.842 241.84C411.842 241.253 411.916 240.699 412.066 240.176C412.226 239.653 412.46 239.2 412.77 238.816C413.09 238.421 413.484 238.112 413.954 237.888C414.434 237.653 414.988 237.536 415.618 237.536C415.831 237.536 416.06 237.557 416.306 237.6C416.551 237.643 416.796 237.717 417.042 237.824C417.287 237.92 417.516 238.053 417.73 238.224C417.954 238.384 418.14 238.587 418.29 238.832H418.322V234.576H419.682V246ZM425.907 238.672C425.875 238.096 425.934 237.563 426.083 237.072C426.232 236.581 426.462 236.16 426.771 235.808C427.091 235.445 427.486 235.163 427.955 234.96C428.424 234.757 428.958 234.656 429.555 234.656C430.046 234.656 430.504 234.731 430.931 234.88C431.368 235.019 431.747 235.227 432.067 235.504C432.387 235.771 432.638 236.107 432.819 236.512C433.011 236.917 433.107 237.387 433.107 237.92C433.107 238.421 433.027 238.864 432.867 239.248C432.718 239.632 432.515 239.979 432.259 240.288C432.003 240.587 431.71 240.859 431.379 241.104C431.048 241.349 430.707 241.584 430.355 241.808C430.003 242.021 429.651 242.235 429.299 242.448C428.947 242.651 428.622 242.869 428.323 243.104C428.035 243.339 427.784 243.595 427.571 243.872C427.368 244.139 427.235 244.448 427.171 244.8H432.995V246H425.587C425.64 245.328 425.758 244.757 425.939 244.288C426.131 243.808 426.371 243.392 426.659 243.04C426.947 242.688 427.272 242.379 427.635 242.112C427.998 241.845 428.376 241.595 428.771 241.36C429.251 241.061 429.672 240.789 430.035 240.544C430.398 240.288 430.696 240.032 430.931 239.776C431.176 239.52 431.358 239.243 431.475 238.944C431.603 238.645 431.667 238.299 431.667 237.904C431.667 237.595 431.608 237.317 431.491 237.072C431.374 236.816 431.214 236.597 431.011 236.416C430.819 236.235 430.59 236.096 430.323 236C430.056 235.904 429.774 235.856 429.475 235.856C429.08 235.856 428.739 235.941 428.451 236.112C428.174 236.272 427.944 236.485 427.763 236.752C427.582 237.019 427.448 237.323 427.363 237.664C427.288 237.995 427.256 238.331 427.267 238.672H425.907ZM436.206 240.416C436.206 240.843 436.216 241.323 436.238 241.856C436.27 242.379 436.355 242.875 436.494 243.344C436.643 243.803 436.878 244.192 437.198 244.512C437.518 244.832 437.966 244.992 438.542 244.992C439.118 244.992 439.566 244.832 439.886 244.512C440.206 244.192 440.435 243.803 440.574 243.344C440.723 242.875 440.808 242.379 440.83 241.856C440.862 241.323 440.878 240.843 440.878 240.416C440.878 240.139 440.872 239.835 440.862 239.504C440.862 239.163 440.835 238.827 440.782 238.496C440.739 238.155 440.67 237.824 440.574 237.504C440.488 237.184 440.355 236.907 440.174 236.672C440.003 236.427 439.784 236.229 439.518 236.08C439.251 235.931 438.926 235.856 438.542 235.856C438.158 235.856 437.832 235.931 437.566 236.08C437.299 236.229 437.075 236.427 436.894 236.672C436.723 236.907 436.59 237.184 436.494 237.504C436.408 237.824 436.339 238.155 436.286 238.496C436.243 238.827 436.216 239.163 436.206 239.504C436.206 239.835 436.206 240.139 436.206 240.416ZM434.766 240.432C434.766 240.016 434.776 239.584 434.798 239.136C434.819 238.688 434.872 238.251 434.958 237.824C435.043 237.397 435.166 236.992 435.326 236.608C435.486 236.224 435.704 235.888 435.982 235.6C436.259 235.312 436.606 235.083 437.022 234.912C437.448 234.741 437.955 234.656 438.542 234.656C439.128 234.656 439.63 234.741 440.046 234.912C440.472 235.083 440.824 235.312 441.102 235.6C441.379 235.888 441.598 236.224 441.758 236.608C441.918 236.992 442.04 237.397 442.126 237.824C442.211 238.251 442.264 238.688 442.286 239.136C442.307 239.584 442.318 240.016 442.318 240.432C442.318 240.848 442.307 241.28 442.286 241.728C442.264 242.176 442.211 242.613 442.126 243.04C442.04 243.467 441.918 243.872 441.758 244.256C441.598 244.629 441.379 244.96 441.102 245.248C440.824 245.536 440.478 245.765 440.062 245.936C439.646 246.096 439.139 246.176 438.542 246.176C437.955 246.176 437.448 246.096 437.022 245.936C436.606 245.765 436.259 245.536 435.982 245.248C435.704 244.96 435.486 244.629 435.326 244.256C435.166 243.872 435.043 243.467 434.958 243.04C434.872 242.613 434.819 242.176 434.798 241.728C434.776 241.28 434.766 240.848 434.766 240.432ZM448.68 246H447.32V237.872H444.376V236.784C444.76 236.784 445.134 236.757 445.496 236.704C445.859 236.64 446.184 236.528 446.472 236.368C446.771 236.208 447.022 235.989 447.224 235.712C447.427 235.435 447.566 235.083 447.64 234.656H448.68V246Z" fill="white"/>
</g>
<g filter="url(#filter1_b_386_1953)">
<rect x="167" y="268" width="301" height="40" rx="14" fill="#101010" fill-opacity="0.8"/>
<rect x="171" y="272" width="144.5" height="32" rx="10" fill="#404040" fill-opacity="0.8"/>
<path d="M228.2 293H226.744V283.2H228.228L231.98 290.116V283.2H233.436V293H231.952L228.2 286.084V293ZM239.71 293H237.834L234.642 283.2H236.336L238.786 290.97L241.25 283.2H242.902L239.71 293ZM246.949 293H244.149V283.2H246.949C249.679 283.2 251.149 285.132 251.149 288.086C251.149 291.054 249.679 293 246.949 293ZM245.731 284.6V291.6H246.949C248.769 291.6 249.539 290.256 249.539 288.086C249.539 285.93 248.769 284.6 246.949 284.6H245.731ZM259.383 283.2V284.53H256.933V291.67H259.383V293H252.873V291.67H255.337V284.53H252.873V283.2H259.383Z" fill="#D9D9D9"/>
<rect x="319.5" y="272" width="144.5" height="32" rx="10" fill="#323232" fill-opacity="0.7"/>
<path d="M361.272 293.084C359.06 293.084 357.618 291.81 357.548 289.794H358.808C358.906 291.124 359.886 291.978 361.286 291.978C362.574 291.978 363.4 291.334 363.4 290.312C363.4 289.36 362.784 288.926 360.852 288.59C358.738 288.226 357.786 287.386 357.786 285.902C357.786 284.236 359.088 283.116 360.992 283.116C363.022 283.116 364.38 284.278 364.492 286.098H363.232C363.106 284.95 362.224 284.222 360.992 284.222C359.746 284.222 359.004 284.824 359.004 285.832C359.004 286.756 359.592 287.162 361.524 287.498C363.638 287.848 364.618 288.716 364.618 290.2C364.618 291.894 363.246 293.084 361.272 293.084ZM372.95 291.95H373.314V293H372.684C371.732 293 371.41 292.594 371.396 291.894C370.948 292.538 370.234 293.084 369.002 293.084C367.434 293.084 366.37 292.3 366.37 290.998C366.37 289.57 367.364 288.772 369.24 288.772H371.34V288.282C371.34 287.358 370.682 286.798 369.562 286.798C368.554 286.798 367.882 287.274 367.742 288.002H366.594C366.762 286.602 367.896 285.776 369.618 285.776C371.438 285.776 372.488 286.686 372.488 288.352V291.474C372.488 291.852 372.628 291.95 372.95 291.95ZM371.34 290.088V289.738H369.128C368.106 289.738 367.532 290.116 367.532 290.928C367.532 291.628 368.134 292.104 369.086 292.104C370.514 292.104 371.34 291.278 371.34 290.088ZM381.673 293H379.167C377.795 293 377.305 292.398 377.305 291.138V286.91H375.037V285.86H377.305V283.858H378.453V285.86H381.561V286.91H378.453V291.124C378.453 291.726 378.663 291.95 379.279 291.95H381.673V293ZM390.495 289.682H384.951V289.752C384.993 291.11 385.847 292.062 387.205 292.062C388.213 292.062 388.997 291.53 389.235 290.606H390.397C390.117 292.034 388.941 293.084 387.289 293.084C385.147 293.084 383.747 291.614 383.747 289.43C383.747 287.26 385.119 285.776 387.135 285.776C389.151 285.776 390.467 287.05 390.523 289.164C390.523 289.262 390.509 289.514 390.495 289.682ZM387.149 286.784C386.099 286.784 385.133 287.54 385.021 288.702H389.291C389.179 287.47 388.339 286.784 387.149 286.784ZM396.489 291.95H399.009V293H392.821V291.95H395.341V284.25H392.821V283.2H396.489V291.95ZM404.75 284.6C404.232 284.6 403.826 284.208 403.826 283.676C403.826 283.158 404.232 282.766 404.75 282.766C405.268 282.766 405.674 283.158 405.674 283.676C405.674 284.208 405.268 284.6 404.75 284.6ZM405.31 291.95H407.83V293H401.642V291.95H404.162V286.91H401.642V285.86H405.31V291.95ZM416.4 293H413.894C412.522 293 412.032 292.398 412.032 291.138V286.91H409.764V285.86H412.032V283.858H413.18V285.86H416.288V286.91H413.18V291.124C413.18 291.726 413.39 291.95 414.006 291.95H416.4V293ZM425.221 289.682H419.677V289.752C419.719 291.11 420.573 292.062 421.931 292.062C422.939 292.062 423.723 291.53 423.961 290.606H425.123C424.843 292.034 423.667 293.084 422.015 293.084C419.873 293.084 418.473 291.614 418.473 289.43C418.473 287.26 419.845 285.776 421.861 285.776C423.877 285.776 425.193 287.05 425.249 289.164C425.249 289.262 425.235 289.514 425.221 289.682ZM421.875 286.784C420.825 286.784 419.859 287.54 419.747 288.702H424.017C423.905 287.47 423.065 286.784 421.875 286.784Z" fill="#424141"/>
</g>
<g filter="url(#filter2_b_386_1953)">
<path d="M167 342C167 336.477 171.477 332 177 332H458C463.523 332 468 336.477 468 342V751C468 756.523 463.523 761 458 761H177C171.477 761 167 756.523 167 751V342Z" fill="#101010" fill-opacity="0.7"/>
<path d="M180.248 345.076H187.752V346.356H181.768V349.988H187.016V351.268H181.768V356.5H180.248V345.076ZM190.652 346.74H189.292V345.076H190.652V346.74ZM189.292 348.228H190.652V356.5H189.292V348.228ZM198.502 351.572C198.481 351.252 198.406 350.948 198.278 350.66C198.161 350.372 197.996 350.127 197.782 349.924C197.58 349.711 197.334 349.545 197.046 349.428C196.769 349.3 196.46 349.236 196.118 349.236C195.766 349.236 195.446 349.3 195.158 349.428C194.881 349.545 194.641 349.711 194.438 349.924C194.236 350.137 194.076 350.388 193.958 350.676C193.841 350.953 193.772 351.252 193.75 351.572H198.502ZM199.814 353.876C199.633 354.804 199.233 355.503 198.614 355.972C197.996 356.441 197.217 356.676 196.278 356.676C195.617 356.676 195.041 356.569 194.55 356.356C194.07 356.143 193.665 355.844 193.334 355.46C193.004 355.076 192.753 354.617 192.582 354.084C192.422 353.551 192.332 352.969 192.31 352.34C192.31 351.711 192.406 351.135 192.598 350.612C192.79 350.089 193.057 349.636 193.398 349.252C193.75 348.868 194.161 348.569 194.63 348.356C195.11 348.143 195.633 348.036 196.198 348.036C196.934 348.036 197.542 348.191 198.022 348.5C198.513 348.799 198.902 349.183 199.19 349.652C199.489 350.121 199.692 350.633 199.798 351.188C199.916 351.743 199.964 352.271 199.942 352.772H193.75C193.74 353.135 193.782 353.481 193.878 353.812C193.974 354.132 194.129 354.42 194.342 354.676C194.556 354.921 194.828 355.119 195.158 355.268C195.489 355.417 195.878 355.492 196.326 355.492C196.902 355.492 197.372 355.359 197.734 355.092C198.108 354.825 198.353 354.42 198.47 353.876H199.814ZM201.432 345.076H202.792V356.5H201.432V345.076ZM205.891 352.436C205.891 352.82 205.939 353.199 206.035 353.572C206.142 353.935 206.296 354.26 206.499 354.548C206.712 354.836 206.979 355.065 207.299 355.236C207.63 355.407 208.014 355.492 208.451 355.492C208.91 355.492 209.299 355.401 209.619 355.22C209.939 355.039 210.2 354.804 210.403 354.516C210.606 354.217 210.75 353.881 210.835 353.508C210.931 353.135 210.979 352.756 210.979 352.372C210.979 351.967 210.931 351.577 210.835 351.204C210.739 350.82 210.584 350.484 210.371 350.196C210.168 349.908 209.902 349.679 209.571 349.508C209.24 349.327 208.84 349.236 208.371 349.236C207.912 349.236 207.523 349.327 207.203 349.508C206.883 349.689 206.627 349.929 206.435 350.228C206.243 350.527 206.104 350.868 206.019 351.252C205.934 351.636 205.891 352.031 205.891 352.436ZM212.291 356.5H210.931V355.38H210.899C210.675 355.839 210.323 356.169 209.843 356.372C209.363 356.575 208.835 356.676 208.259 356.676C207.619 356.676 207.059 356.559 206.579 356.324C206.11 356.089 205.715 355.775 205.395 355.38C205.086 354.985 204.851 354.527 204.691 354.004C204.531 353.481 204.451 352.927 204.451 352.34C204.451 351.753 204.526 351.199 204.675 350.676C204.835 350.153 205.07 349.7 205.379 349.316C205.699 348.921 206.094 348.612 206.563 348.388C207.043 348.153 207.598 348.036 208.227 348.036C208.44 348.036 208.67 348.057 208.915 348.1C209.16 348.143 209.406 348.217 209.651 348.324C209.896 348.42 210.126 348.553 210.339 348.724C210.563 348.884 210.75 349.087 210.899 349.332H210.931V345.076H212.291V356.5ZM215.215 353.892C215.226 354.191 215.295 354.447 215.423 354.66C215.551 354.863 215.717 355.028 215.919 355.156C216.133 355.273 216.367 355.359 216.623 355.412C216.89 355.465 217.162 355.492 217.439 355.492C217.653 355.492 217.877 355.476 218.111 355.444C218.346 355.412 218.559 355.353 218.751 355.268C218.954 355.183 219.119 355.06 219.247 354.9C219.375 354.729 219.439 354.516 219.439 354.26C219.439 353.908 219.306 353.641 219.039 353.46C218.773 353.279 218.437 353.135 218.031 353.028C217.637 352.911 217.205 352.809 216.735 352.724C216.266 352.628 215.829 352.5 215.423 352.34C215.029 352.169 214.698 351.935 214.431 351.636C214.165 351.337 214.031 350.921 214.031 350.388C214.031 349.972 214.122 349.615 214.303 349.316C214.495 349.017 214.735 348.777 215.023 348.596C215.322 348.404 215.653 348.265 216.015 348.18C216.389 348.084 216.757 348.036 217.119 348.036C217.589 348.036 218.021 348.079 218.415 348.164C218.81 348.239 219.157 348.377 219.455 348.58C219.765 348.772 220.01 349.039 220.191 349.38C220.373 349.711 220.479 350.127 220.511 350.628H219.151C219.13 350.361 219.061 350.143 218.943 349.972C218.826 349.791 218.677 349.647 218.495 349.54C218.314 349.433 218.111 349.359 217.887 349.316C217.674 349.263 217.455 349.236 217.231 349.236C217.029 349.236 216.821 349.252 216.607 349.284C216.405 349.316 216.218 349.375 216.047 349.46C215.877 349.535 215.738 349.641 215.631 349.78C215.525 349.908 215.471 350.079 215.471 350.292C215.471 350.527 215.551 350.724 215.711 350.884C215.882 351.033 216.095 351.161 216.351 351.268C216.607 351.364 216.895 351.449 217.215 351.524C217.535 351.588 217.855 351.657 218.175 351.732C218.517 351.807 218.847 351.897 219.167 352.004C219.498 352.111 219.786 352.255 220.031 352.436C220.287 352.607 220.49 352.825 220.639 353.092C220.799 353.359 220.879 353.689 220.879 354.084C220.879 354.585 220.773 355.001 220.559 355.332C220.357 355.663 220.085 355.929 219.743 356.132C219.413 356.335 219.034 356.473 218.607 356.548C218.191 356.633 217.775 356.676 217.359 356.676C216.901 356.676 216.463 356.628 216.047 356.532C215.631 356.436 215.263 356.281 214.943 356.068C214.623 355.844 214.367 355.556 214.175 355.204C213.983 354.841 213.877 354.404 213.855 353.892H215.215Z" fill="#A3A3A3"/>
<g filter="url(#filter3_b_386_1953)">
<path d="M175 382C175 377.582 178.582 374 183 374H452C456.418 374 460 377.582 460 382V401C460 405.418 456.418 409 452 409H183C178.582 409 175 405.418 175 401V382Z" fill="#404040" fill-opacity="0.8"/>
</g>
</g>
<path d="M175.324 -95.8835L172.815 50.3305H-20L-20 -100L175.324 -95.8835Z" fill="#55BC68" fill-opacity="0.4" stroke="#55BC68" stroke-width="3.32579"/>
<path d="M48.6274 50.9844L174.297 50.9844L174.297 69.8305C174.297 74.7286 170.327 78.6993 165.429 78.6993L57.4962 78.6993C52.5981 78.6993 48.6274 74.7286 48.6274 69.8305L48.6274 50.9844Z" fill="#55BC68"/>
<path d="M66.1836 70.3418L64.6471 70.3418L62.1173 61.0296L62.0863 61.0296L59.5254 70.3418L57.9889 70.3418L55.1486 59.2603L56.6541 59.2603L58.827 68.4794L58.858 68.4794L61.3413 59.2603L62.9399 59.2603L65.3921 68.4794L65.4231 68.4794L67.6736 59.2603L69.148 59.2603L66.1836 70.3418ZM70.3242 59.2603L71.6434 59.2603L71.6434 63.4973L71.6744 63.4973C71.7779 63.249 71.9228 63.042 72.109 62.8765C72.2953 62.7006 72.5022 62.5609 72.7298 62.4574C72.9678 62.3436 73.211 62.2609 73.4593 62.2091C73.718 62.1574 73.9663 62.1315 74.2043 62.1315C74.732 62.1315 75.1717 62.2039 75.5235 62.3488C75.8753 62.4937 76.1598 62.6954 76.3771 62.9541C76.5944 63.2128 76.7444 63.5232 76.8272 63.8853C76.9203 64.2371 76.9669 64.6303 76.9669 65.0649L76.9669 70.3418L75.6477 70.3418L75.6477 64.9097C75.6477 64.413 75.5028 64.0198 75.2131 63.7301C74.9234 63.4404 74.525 63.2955 74.018 63.2955C73.6145 63.2955 73.2627 63.3576 72.9626 63.4818C72.6729 63.606 72.4298 63.7819 72.2332 64.0095C72.0366 64.2371 71.8866 64.5061 71.7831 64.8165C71.69 65.1166 71.6434 65.4477 71.6434 65.8098L71.6434 70.3418L70.3242 70.3418L70.3242 59.2603ZM84.5201 65.5615C84.4994 65.2511 84.427 64.9562 84.3028 64.6769C84.189 64.3975 84.0286 64.1595 83.8217 63.9629C83.6251 63.756 83.3871 63.5956 83.1077 63.4818C82.8387 63.3576 82.5387 63.2955 82.2076 63.2955C81.8661 63.2955 81.5557 63.3576 81.2763 63.4818C81.0073 63.5956 80.7745 63.756 80.5779 63.9629C80.3813 64.1699 80.2261 64.413 80.1123 64.6924C79.9985 64.9614 79.9312 65.2511 79.9105 65.5615L84.5201 65.5615ZM85.7928 67.7965C85.6169 68.6966 85.2289 69.3744 84.6287 69.8296C84.0286 70.2849 83.2733 70.5125 82.3628 70.5125C81.7213 70.5125 81.1625 70.4091 80.6866 70.2021C80.221 69.9952 79.8278 69.7055 79.507 69.333C79.1863 68.9605 78.9431 68.5156 78.7776 67.9982C78.6224 67.4809 78.5344 66.917 78.5137 66.3065C78.5137 65.696 78.6068 65.1373 78.7931 64.6303C78.9793 64.1233 79.238 63.6836 79.5691 63.3111C79.9105 62.9386 80.3089 62.6489 80.7642 62.4419C81.2298 62.235 81.7368 62.1315 82.2852 62.1315C82.9991 62.1315 83.5889 62.2816 84.0545 62.5816C84.5304 62.8713 84.9081 63.2438 85.1875 63.6991C85.4772 64.1543 85.6738 64.651 85.7772 65.189C85.8911 65.7271 85.9376 66.2392 85.9169 66.7255L79.9105 66.7255C79.9002 67.0773 79.9416 67.4136 80.0347 67.7344C80.1278 68.0448 80.2779 68.3241 80.4848 68.5725C80.6917 68.8105 80.9556 69.0019 81.2763 69.1467C81.5971 69.2916 81.9748 69.364 82.4093 69.364C82.9681 69.364 83.4233 69.2347 83.7751 68.976C84.1373 68.7173 84.3752 68.3241 84.4891 67.7965L85.7928 67.7965ZM94.3927 70.3108C94.1651 70.4453 93.8495 70.5125 93.446 70.5125C93.1046 70.5125 92.8304 70.4194 92.6234 70.2332C92.4268 70.0366 92.3285 69.721 92.3285 69.2864C91.9664 69.721 91.5422 70.0366 91.0559 70.2332C90.5799 70.4194 90.0626 70.5125 89.5038 70.5125C89.1417 70.5125 88.7951 70.4711 88.464 70.3884C88.1432 70.3056 87.8638 70.1762 87.6259 70.0003C87.3879 69.8245 87.1965 69.5968 87.0516 69.3175C86.9171 69.0277 86.8499 68.6811 86.8499 68.2776C86.8499 67.8223 86.9275 67.4498 87.0827 67.1601C87.2379 66.8704 87.4396 66.6376 87.688 66.4617C87.9466 66.2755 88.2363 66.1358 88.5571 66.0427C88.8882 65.9495 89.2245 65.8719 89.5659 65.8098C89.9281 65.7374 90.2695 65.6857 90.5903 65.6546C90.9214 65.6133 91.2111 65.5615 91.4594 65.4994C91.7077 65.427 91.9043 65.3287 92.0492 65.2046C92.194 65.07 92.2665 64.8786 92.2665 64.6303C92.2665 64.3406 92.2096 64.1078 92.0957 63.9319C91.9923 63.756 91.8526 63.6215 91.6767 63.5284C91.5111 63.4352 91.3197 63.3731 91.1024 63.3421C90.8955 63.3111 90.6886 63.2955 90.4816 63.2955C89.9229 63.2955 89.4573 63.4042 89.0848 63.6215C88.7123 63.8284 88.5105 64.2268 88.4795 64.8165L87.1603 64.8165C87.181 64.3199 87.2844 63.9008 87.4707 63.5594C87.6569 63.2179 87.9052 62.9438 88.2156 62.7368C88.5261 62.5195 88.8778 62.3643 89.271 62.2712C89.6746 62.1781 90.104 62.1315 90.5592 62.1315C90.9214 62.1315 91.2783 62.1574 91.6301 62.2091C91.9923 62.2609 92.3182 62.3695 92.6079 62.535C92.8976 62.6903 93.1304 62.9127 93.3063 63.2024C93.4822 63.4921 93.5702 63.8698 93.5702 64.3354L93.5702 68.4638C93.5702 68.7742 93.5857 69.0019 93.6167 69.1467C93.6581 69.2916 93.7823 69.364 93.9892 69.364C94.103 69.364 94.2375 69.3381 94.3927 69.2864L94.3927 70.3108ZM92.2509 66.1979C92.0854 66.322 91.8681 66.4151 91.5991 66.4772C91.3301 66.529 91.0455 66.5755 90.7455 66.6169C90.4557 66.6479 90.1609 66.6893 89.8608 66.7411C89.5607 66.7825 89.2917 66.8549 89.0537 66.9584C88.8158 67.0618 88.6192 67.2119 88.464 67.4084C88.3191 67.5947 88.2467 67.8534 88.2467 68.1845C88.2467 68.4017 88.2881 68.588 88.3708 68.7432C88.464 68.8881 88.5778 69.007 88.7123 69.1002C88.8572 69.1933 89.0227 69.2605 89.2089 69.3019C89.3952 69.3433 89.5918 69.364 89.7987 69.364C90.2333 69.364 90.6058 69.3071 90.9162 69.1933C91.2266 69.0691 91.4801 68.9191 91.6767 68.7432C91.8733 68.557 92.0181 68.3604 92.1113 68.1534C92.2044 67.9361 92.2509 67.7344 92.2509 67.5481L92.2509 66.1979ZM97.452 62.3178L99.0506 62.3178L99.0506 63.4818L97.452 63.4818L97.452 68.4638C97.452 68.619 97.4623 68.7432 97.483 68.8363C97.514 68.9294 97.5658 69.0019 97.6382 69.0536C97.7106 69.1053 97.8089 69.1416 97.9331 69.1622C98.0676 69.1726 98.2383 69.1778 98.4453 69.1778L99.0506 69.1778L99.0506 70.3418L98.0417 70.3418C97.7003 70.3418 97.4054 70.3211 97.1571 70.2797C96.9191 70.228 96.7225 70.14 96.5673 70.0159C96.4224 69.8917 96.3138 69.7158 96.2414 69.4882C96.1689 69.2605 96.1327 68.9605 96.1327 68.588L96.1327 63.4818L94.7669 63.4818L94.7669 62.3178L96.1327 62.3178L96.1327 59.9121L97.452 59.9121L97.452 62.3178ZM105.053 59.2603L112.332 59.2603L112.332 60.5019L106.527 60.5019L106.527 64.025L111.618 64.025L111.618 65.2666L106.527 65.2666L106.527 70.3418L105.053 70.3418L105.053 59.2603ZM115.145 60.8744L113.825 60.8744L113.825 59.2603L115.145 59.2603L115.145 60.8744ZM113.825 62.3178L115.145 62.3178L115.145 70.3418L113.825 70.3418L113.825 62.3178ZM122.76 65.5615C122.74 65.2511 122.667 64.9562 122.543 64.6769C122.429 64.3975 122.269 64.1595 122.062 63.9629C121.865 63.756 121.627 63.5956 121.348 63.4818C121.079 63.3576 120.779 63.2955 120.448 63.2955C120.106 63.2955 119.796 63.3576 119.516 63.4818C119.247 63.5956 119.015 63.756 118.818 63.9629C118.621 64.1699 118.466 64.413 118.352 64.6924C118.239 64.9614 118.171 65.2511 118.151 65.5615L122.76 65.5615ZM124.033 67.7965C123.857 68.6966 123.469 69.3744 122.869 69.8296C122.269 70.2849 121.513 70.5125 120.603 70.5125C119.961 70.5125 119.403 70.4091 118.927 70.2021C118.461 69.9952 118.068 69.7055 117.747 69.333C117.426 68.9605 117.183 68.5156 117.018 67.9982C116.862 67.4809 116.775 66.917 116.754 66.3065C116.754 65.696 116.847 65.1373 117.033 64.6303C117.219 64.1233 117.478 63.6836 117.809 63.3111C118.151 62.9386 118.549 62.6489 119.004 62.4419C119.47 62.235 119.977 62.1315 120.525 62.1315C121.239 62.1315 121.829 62.2815 122.295 62.5816C122.771 62.8713 123.148 63.2438 123.428 63.6991C123.717 64.1543 123.914 64.651 124.017 65.189C124.131 65.7271 124.178 66.2392 124.157 66.7255L118.151 66.7255C118.14 67.0773 118.182 67.4136 118.275 67.7344C118.368 68.0448 118.518 68.3241 118.725 68.5725C118.932 68.8105 119.196 69.0019 119.516 69.1467C119.837 69.2916 120.215 69.364 120.649 69.364C121.208 69.364 121.663 69.2347 122.015 68.976C122.377 68.7173 122.615 68.3241 122.729 67.7965L124.033 67.7965ZM125.602 59.2603L126.921 59.2603L126.921 70.3418L125.602 70.3418L125.602 59.2603ZM129.927 66.3996C129.927 66.7721 129.974 67.1394 130.067 67.5016C130.171 67.8534 130.321 68.1689 130.517 68.4483C130.724 68.7277 130.983 68.9501 131.293 69.1157C131.614 69.2812 131.986 69.364 132.411 69.364C132.856 69.364 133.233 69.2761 133.544 69.1002C133.854 68.9243 134.108 68.6966 134.304 68.4173C134.501 68.1276 134.64 67.8016 134.723 67.4395C134.816 67.0773 134.863 66.71 134.863 66.3375C134.863 65.9444 134.816 65.5667 134.723 65.2046C134.63 64.8321 134.48 64.5061 134.273 64.2268C134.076 63.9474 133.818 63.7249 133.497 63.5594C133.176 63.3835 132.788 63.2955 132.333 63.2955C131.888 63.2955 131.51 63.3835 131.2 63.5594C130.89 63.7353 130.641 63.9681 130.455 64.2578C130.269 64.5475 130.134 64.8786 130.052 65.2511C129.969 65.6236 129.927 66.0064 129.927 66.3996ZM136.136 70.3418L134.816 70.3418L134.816 69.2554L134.785 69.2554C134.568 69.7003 134.227 70.021 133.761 70.2176C133.295 70.4142 132.783 70.5125 132.224 70.5125C131.604 70.5125 131.06 70.3987 130.595 70.1711C130.139 69.9434 129.757 69.6382 129.446 69.2554C129.146 68.8725 128.919 68.4276 128.763 67.9206C128.608 67.4136 128.531 66.8756 128.531 66.3065C128.531 65.7374 128.603 65.1994 128.748 64.6924C128.903 64.1854 129.131 63.7456 129.431 63.3731C129.741 62.9903 130.124 62.6903 130.579 62.473C131.045 62.2453 131.583 62.1315 132.193 62.1315C132.4 62.1315 132.623 62.1522 132.861 62.1936C133.099 62.235 133.337 62.3074 133.575 62.4109C133.813 62.504 134.035 62.6333 134.242 62.7989C134.459 62.9541 134.64 63.1507 134.785 63.3887L134.816 63.3887L134.816 59.2603L136.136 59.2603L136.136 70.3418ZM142.174 63.2335C142.143 62.6747 142.2 62.1574 142.345 61.6814C142.49 61.2055 142.712 60.7968 143.012 60.4553C143.323 60.1035 143.706 59.8293 144.161 59.6327C144.616 59.4361 145.134 59.3379 145.713 59.3379C146.189 59.3379 146.634 59.4103 147.048 59.5551C147.472 59.6896 147.839 59.8914 148.15 60.1604C148.46 60.4191 148.703 60.745 148.879 61.1382C149.065 61.5314 149.159 61.9867 149.159 62.504C149.159 62.9903 149.081 63.4197 148.926 63.7922C148.781 64.1647 148.584 64.501 148.336 64.801C148.088 65.0907 147.803 65.3546 147.482 65.5926C147.162 65.8305 146.831 66.0582 146.489 66.2755C146.148 66.4824 145.806 66.6893 145.465 66.8963C145.123 67.0929 144.808 67.305 144.518 67.5326C144.239 67.7602 143.995 68.0086 143.789 68.2776C143.592 68.5363 143.463 68.8363 143.401 69.1778L149.05 69.1778L149.05 70.3418L141.864 70.3418C141.916 69.6899 142.03 69.1364 142.205 68.6811C142.392 68.2155 142.624 67.812 142.904 67.4705C143.183 67.1291 143.499 66.829 143.851 66.5703C144.202 66.3117 144.57 66.0685 144.953 65.8409C145.418 65.5512 145.827 65.2873 146.179 65.0493C146.53 64.801 146.82 64.5527 147.048 64.3044C147.286 64.056 147.462 63.787 147.575 63.4973C147.7 63.2076 147.762 62.8713 147.762 62.4885C147.762 62.1884 147.705 61.9194 147.591 61.6814C147.477 61.4331 147.322 61.221 147.125 61.0451C146.939 60.8692 146.717 60.7347 146.458 60.6416C146.199 60.5484 145.925 60.5019 145.635 60.5019C145.253 60.5019 144.921 60.5847 144.642 60.7502C144.373 60.9054 144.151 61.1123 143.975 61.371C143.799 61.6297 143.67 61.9246 143.587 62.2557C143.514 62.5764 143.483 62.9024 143.494 63.2335L142.174 63.2335ZM152.164 64.9252C152.164 65.3391 152.175 65.8047 152.195 66.322C152.226 66.829 152.309 67.3101 152.444 67.7654C152.589 68.2103 152.816 68.588 153.127 68.8984C153.437 69.2088 153.872 69.364 154.43 69.364C154.989 69.364 155.424 69.2088 155.734 68.8984C156.044 68.588 156.267 68.2103 156.401 67.7654C156.546 67.3101 156.629 66.829 156.65 66.322C156.681 65.8047 156.696 65.3391 156.696 64.9252C156.696 64.6562 156.691 64.3613 156.681 64.0405C156.681 63.7094 156.655 63.3835 156.603 63.0627C156.562 62.7316 156.494 62.4109 156.401 62.1005C156.319 61.7901 156.189 61.5211 156.013 61.2934C155.848 61.0554 155.636 60.864 155.377 60.7192C155.118 60.5743 154.803 60.5019 154.43 60.5019C154.058 60.5019 153.742 60.5743 153.484 60.7192C153.225 60.864 153.008 61.0554 152.832 61.2934C152.666 61.5211 152.537 61.7901 152.444 62.1005C152.361 62.4109 152.294 62.7316 152.242 63.0627C152.201 63.3835 152.175 63.7094 152.164 64.0405C152.164 64.3613 152.164 64.6562 152.164 64.9252ZM150.767 64.9407C150.767 64.5372 150.778 64.1181 150.799 63.6836C150.819 63.249 150.871 62.8248 150.954 62.4109C151.036 61.997 151.155 61.6038 151.311 61.2313C151.466 60.8588 151.678 60.5329 151.947 60.2536C152.216 59.9742 152.552 59.7517 152.956 59.5862C153.37 59.4206 153.861 59.3379 154.43 59.3379C154.999 59.3379 155.486 59.4206 155.889 59.5862C156.303 59.7517 156.645 59.9742 156.914 60.2536C157.183 60.5329 157.395 60.8588 157.55 61.2313C157.705 61.6038 157.824 61.997 157.907 62.4109C157.99 62.8248 158.041 63.249 158.062 63.6836C158.083 64.1181 158.093 64.5372 158.093 64.9407C158.093 65.3442 158.083 65.7633 158.062 66.1979C158.041 66.6324 157.99 67.0567 157.907 67.4705C157.824 67.8844 157.705 68.2776 157.55 68.6501C157.395 69.0122 157.183 69.333 156.914 69.6123C156.645 69.8917 156.308 70.1142 155.905 70.2797C155.501 70.4349 155.01 70.5125 154.43 70.5125C153.861 70.5125 153.37 70.4349 152.956 70.2797C152.552 70.1142 152.216 69.8917 151.947 69.6123C151.678 69.333 151.466 69.0122 151.311 68.6501C151.155 68.2776 151.036 67.8844 150.954 67.4705C150.871 67.0567 150.819 66.6324 150.799 66.1979C150.778 65.7633 150.767 65.3442 150.767 64.9407ZM164.265 70.3418L162.946 70.3418L162.946 62.4574L160.09 62.4574L160.09 61.4021C160.462 61.4021 160.825 61.3762 161.176 61.3245C161.528 61.2624 161.844 61.1537 162.123 60.9985C162.413 60.8433 162.656 60.6312 162.853 60.3622C163.049 60.0932 163.184 59.7517 163.256 59.3379L164.265 59.3379L164.265 70.3418Z" fill="white"/>
</g>
<defs>
<filter id="filter0_b_386_1953" x="163" y="215" width="309" height="51" filterUnits="userSpaceOnUse" color-interpolation-filters="sRGB">
<feFlood flood-opacity="0" result="BackgroundImageFix"/>
<feGaussianBlur in="BackgroundImageFix" stdDeviation="2"/>
<feComposite in2="SourceAlpha" operator="in" result="effect1_backgroundBlur_386_1953"/>
<feBlend mode="normal" in="SourceGraphic" in2="effect1_backgroundBlur_386_1953" result="shape"/>
</filter>
<filter id="filter1_b_386_1953" x="163" y="264" width="309" height="48" filterUnits="userSpaceOnUse" color-interpolation-filters="sRGB">
<feFlood flood-opacity="0" result="BackgroundImageFix"/>
<feGaussianBlur in="BackgroundImageFix" stdDeviation="2"/>
<feComposite in2="SourceAlpha" operator="in" result="effect1_backgroundBlur_386_1953"/>
<feBlend mode="normal" in="SourceGraphic" in2="effect1_backgroundBlur_386_1953" result="shape"/>
</filter>
<filter id="filter2_b_386_1953" x="155" y="320" width="325" height="453" filterUnits="userSpaceOnUse" color-interpolation-filters="sRGB">
<feFlood flood-opacity="0" result="BackgroundImageFix"/>
<feGaussianBlur in="BackgroundImageFix" stdDeviation="6"/>
<feComposite in2="SourceAlpha" operator="in" result="effect1_backgroundBlur_386_1953"/>
<feBlend mode="normal" in="SourceGraphic" in2="effect1_backgroundBlur_386_1953" result="shape"/>
</filter>
<filter id="filter3_b_386_1953" x="171" y="370" width="293" height="43" filterUnits="userSpaceOnUse" color-interpolation-filters="sRGB">
<feFlood flood-opacity="0" result="BackgroundImageFix"/>
<feGaussianBlur in="BackgroundImageFix" stdDeviation="2"/>
<feComposite in2="SourceAlpha" operator="in" result="effect1_backgroundBlur_386_1953"/>
<feBlend mode="normal" in="SourceGraphic" in2="effect1_backgroundBlur_386_1953" result="shape"/>
</filter>
<linearGradient id="paint0_linear_386_1953" x1="169.676" y1="-115.199" x2="169.676" y2="336.005" gradientUnits="userSpaceOnUse">
<stop stop-color="#1F1F1F"/>
<stop offset="1" stop-color="#101010"/>
</linearGradient>
<linearGradient id="paint1_linear_386_1953" x1="-33.0041" y1="-165" x2="-33.0041" y2="373.018" gradientUnits="userSpaceOnUse">
<stop stop-color="#1F1F1F"/>
<stop offset="1" stop-color="#101010"/>
</linearGradient>
<linearGradient id="paint2_linear_386_1953" x1="146.238" y1="72.6211" x2="146.238" y2="117.94" gradientUnits="userSpaceOnUse">
<stop stop-color="#1F1F1F"/>
<stop offset="1" stop-color="#101010"/>
</linearGradient>
<linearGradient id="paint3_linear_386_1953" x1="451.267" y1="153.491" x2="239" y2="491" gradientUnits="userSpaceOnUse">
<stop stop-color="#1F1F1F"/>
<stop offset="1" stop-color="#101010"/>
</linearGradient>
<linearGradient id="paint4_linear_386_1953" x1="450.376" y1="205.71" x2="450.376" y2="606.345" gradientUnits="userSpaceOnUse">
<stop stop-color="#1F1F1F"/>
<stop offset="1" stop-color="#101010"/>
</linearGradient>
<clipPath id="clip0_386_1953">
<rect width="379.36" height="379.36" rx="17.6447" fill="white"/>
</clipPath>
</defs>
</svg>
