<svg  viewBox="0 0 360 324" fill="none" xmlns="http://www.w3.org/2000/svg">
<rect width="360" height="324" fill="black"/>
<g filter="url(#filter0_i_66_16)">
<rect x="20" y="20" width="320" height="160" rx="12" fill="url(#paint0_radial_66_16)" fill-opacity="0.2"/>
<path d="M33.54 34.72H35.56L43.08 46.3H43.12V34.72H44.92V49H42.84L35.38 37.54H35.34V49H33.54V34.72ZM54.4936 42.84C54.4669 42.44 54.3736 42.06 54.2136 41.7C54.0669 41.34 53.8603 41.0333 53.5936 40.78C53.3403 40.5133 53.0336 40.3067 52.6736 40.16C52.3269 40 51.9403 39.92 51.5136 39.92C51.0736 39.92 50.6736 40 50.3136 40.16C49.9669 40.3067 49.6669 40.5133 49.4136 40.78C49.1603 41.0467 48.9603 41.36 48.8136 41.72C48.6669 42.0667 48.5803 42.44 48.5536 42.84H54.4936ZM56.1336 45.72C55.9069 46.88 55.4069 47.7533 54.6336 48.34C53.8603 48.9267 52.8869 49.22 51.7136 49.22C50.8869 49.22 50.1669 49.0867 49.5536 48.82C48.9536 48.5533 48.4469 48.18 48.0336 47.7C47.6203 47.22 47.3069 46.6467 47.0936 45.98C46.8936 45.3133 46.7803 44.5867 46.7536 43.8C46.7536 43.0133 46.8736 42.2933 47.1136 41.64C47.3536 40.9867 47.6869 40.42 48.1136 39.94C48.5536 39.46 49.0669 39.0867 49.6536 38.82C50.2536 38.5533 50.9069 38.42 51.6136 38.42C52.5336 38.42 53.2936 38.6133 53.8936 39C54.5069 39.3733 54.9936 39.8533 55.3536 40.44C55.7269 41.0267 55.9803 41.6667 56.1136 42.36C56.2603 43.0533 56.3203 43.7133 56.2936 44.34H48.5536C48.5403 44.7933 48.5936 45.2267 48.7136 45.64C48.8336 46.04 49.0269 46.4 49.2936 46.72C49.5603 47.0267 49.9003 47.2733 50.3136 47.46C50.7269 47.6467 51.2136 47.74 51.7736 47.74C52.4936 47.74 53.0803 47.5733 53.5336 47.24C54.0003 46.9067 54.3069 46.4 54.4536 45.72H56.1336ZM62.3158 49H60.4958L56.6558 38.66H58.5558L61.4558 47.28H61.4958L64.3158 38.66H66.0958L62.3158 49ZM74.4358 42.84C74.4091 42.44 74.3158 42.06 74.1558 41.7C74.0091 41.34 73.8024 41.0333 73.5358 40.78C73.2824 40.5133 72.9758 40.3067 72.6158 40.16C72.2691 40 71.8824 39.92 71.4558 39.92C71.0158 39.92 70.6158 40 70.2558 40.16C69.9091 40.3067 69.6091 40.5133 69.3558 40.78C69.1024 41.0467 68.9024 41.36 68.7558 41.72C68.6091 42.0667 68.5224 42.44 68.4958 42.84H74.4358ZM76.0758 45.72C75.8491 46.88 75.3491 47.7533 74.5758 48.34C73.8024 48.9267 72.8291 49.22 71.6558 49.22C70.8291 49.22 70.1091 49.0867 69.4958 48.82C68.8958 48.5533 68.3891 48.18 67.9758 47.7C67.5624 47.22 67.2491 46.6467 67.0358 45.98C66.8358 45.3133 66.7224 44.5867 66.6958 43.8C66.6958 43.0133 66.8158 42.2933 67.0558 41.64C67.2958 40.9867 67.6291 40.42 68.0558 39.94C68.4958 39.46 69.0091 39.0867 69.5958 38.82C70.1958 38.5533 70.8491 38.42 71.5558 38.42C72.4758 38.42 73.2358 38.6133 73.8358 39C74.4491 39.3733 74.9358 39.8533 75.2958 40.44C75.6691 41.0267 75.9224 41.6667 76.0558 42.36C76.2024 43.0533 76.2624 43.7133 76.2358 44.34H68.4958C68.4824 44.7933 68.5358 45.2267 68.6558 45.64C68.7758 46.04 68.9691 46.4 69.2358 46.72C69.5024 47.0267 69.8424 47.2733 70.2558 47.46C70.6691 47.6467 71.1558 47.74 71.7158 47.74C72.4358 47.74 73.0224 47.5733 73.4758 47.24C73.9424 46.9067 74.2491 46.4 74.3958 45.72H76.0758ZM77.538 38.66H79.138V40.84H79.178C79.5913 40 80.098 39.38 80.698 38.98C81.298 38.58 82.058 38.3933 82.978 38.42V40.22C82.298 40.22 81.718 40.3133 81.238 40.5C80.758 40.6867 80.3713 40.96 80.078 41.32C79.7846 41.68 79.5713 42.12 79.438 42.64C79.3046 43.1467 79.238 43.7333 79.238 44.4V49H77.538V38.66ZM89.3445 34.72H91.9445L96.4445 46.72L100.965 34.72H103.565V49H101.765V37.12H101.725L97.2645 49H95.6445L91.1845 37.12H91.1445V49H89.3445V34.72ZM107.846 36.8H106.146V34.72H107.846V36.8ZM106.146 38.66H107.846V49H106.146V38.66ZM111.12 45.74C111.133 46.1133 111.22 46.4333 111.38 46.7C111.54 46.9533 111.747 47.16 112 47.32C112.267 47.4667 112.56 47.5733 112.88 47.64C113.213 47.7067 113.553 47.74 113.9 47.74C114.167 47.74 114.447 47.72 114.74 47.68C115.033 47.64 115.3 47.5667 115.54 47.46C115.793 47.3533 116 47.2 116.16 47C116.32 46.7867 116.4 46.52 116.4 46.2C116.4 45.76 116.233 45.4267 115.9 45.2C115.567 44.9733 115.147 44.7933 114.64 44.66C114.147 44.5133 113.607 44.3867 113.02 44.28C112.433 44.16 111.887 44 111.38 43.8C110.887 43.5867 110.473 43.2933 110.14 42.92C109.807 42.5467 109.64 42.0267 109.64 41.36C109.64 40.84 109.753 40.3933 109.98 40.02C110.22 39.6467 110.52 39.3467 110.88 39.12C111.253 38.88 111.667 38.7067 112.12 38.6C112.587 38.48 113.047 38.42 113.5 38.42C114.087 38.42 114.627 38.4733 115.12 38.58C115.613 38.6733 116.047 38.8467 116.42 39.1C116.807 39.34 117.113 39.6733 117.34 40.1C117.567 40.5133 117.7 41.0333 117.74 41.66H116.04C116.013 41.3267 115.927 41.0533 115.78 40.84C115.633 40.6133 115.447 40.4333 115.22 40.3C114.993 40.1667 114.74 40.0733 114.46 40.02C114.193 39.9533 113.92 39.92 113.64 39.92C113.387 39.92 113.127 39.94 112.86 39.98C112.607 40.02 112.373 40.0933 112.16 40.2C111.947 40.2933 111.773 40.4267 111.64 40.6C111.507 40.76 111.44 40.9733 111.44 41.24C111.44 41.5333 111.54 41.78 111.74 41.98C111.953 42.1667 112.22 42.3267 112.54 42.46C112.86 42.58 113.22 42.6867 113.62 42.78C114.02 42.86 114.42 42.9467 114.82 43.04C115.247 43.1333 115.66 43.2467 116.06 43.38C116.473 43.5133 116.833 43.6933 117.14 43.92C117.46 44.1333 117.713 44.4067 117.9 44.74C118.1 45.0733 118.2 45.4867 118.2 45.98C118.2 46.6067 118.067 47.1267 117.8 47.54C117.547 47.9533 117.207 48.2867 116.78 48.54C116.367 48.7933 115.893 48.9667 115.36 49.06C114.84 49.1667 114.32 49.22 113.8 49.22C113.227 49.22 112.68 49.16 112.16 49.04C111.64 48.92 111.18 48.7267 110.78 48.46C110.38 48.18 110.06 47.82 109.82 47.38C109.58 46.9267 109.447 46.38 109.42 45.74H111.12ZM120.72 45.74C120.733 46.1133 120.82 46.4333 120.98 46.7C121.14 46.9533 121.347 47.16 121.6 47.32C121.867 47.4667 122.16 47.5733 122.48 47.64C122.813 47.7067 123.153 47.74 123.5 47.74C123.767 47.74 124.047 47.72 124.34 47.68C124.633 47.64 124.9 47.5667 125.14 47.46C125.393 47.3533 125.6 47.2 125.76 47C125.92 46.7867 126 46.52 126 46.2C126 45.76 125.833 45.4267 125.5 45.2C125.167 44.9733 124.747 44.7933 124.24 44.66C123.747 44.5133 123.207 44.3867 122.62 44.28C122.033 44.16 121.487 44 120.98 43.8C120.487 43.5867 120.073 43.2933 119.74 42.92C119.407 42.5467 119.24 42.0267 119.24 41.36C119.24 40.84 119.353 40.3933 119.58 40.02C119.82 39.6467 120.12 39.3467 120.48 39.12C120.853 38.88 121.267 38.7067 121.72 38.6C122.187 38.48 122.647 38.42 123.1 38.42C123.687 38.42 124.227 38.4733 124.72 38.58C125.213 38.6733 125.647 38.8467 126.02 39.1C126.407 39.34 126.713 39.6733 126.94 40.1C127.167 40.5133 127.3 41.0333 127.34 41.66H125.64C125.613 41.3267 125.527 41.0533 125.38 40.84C125.233 40.6133 125.047 40.4333 124.82 40.3C124.593 40.1667 124.34 40.0733 124.06 40.02C123.793 39.9533 123.52 39.92 123.24 39.92C122.987 39.92 122.727 39.94 122.46 39.98C122.207 40.02 121.973 40.0933 121.76 40.2C121.547 40.2933 121.373 40.4267 121.24 40.6C121.107 40.76 121.04 40.9733 121.04 41.24C121.04 41.5333 121.14 41.78 121.34 41.98C121.553 42.1667 121.82 42.3267 122.14 42.46C122.46 42.58 122.82 42.6867 123.22 42.78C123.62 42.86 124.02 42.9467 124.42 43.04C124.847 43.1333 125.26 43.2467 125.66 43.38C126.073 43.5133 126.433 43.6933 126.74 43.92C127.06 44.1333 127.313 44.4067 127.5 44.74C127.7 45.0733 127.8 45.4867 127.8 45.98C127.8 46.6067 127.667 47.1267 127.4 47.54C127.147 47.9533 126.807 48.2867 126.38 48.54C125.967 48.7933 125.493 48.9667 124.96 49.06C124.44 49.1667 123.92 49.22 123.4 49.22C122.827 49.22 122.28 49.16 121.76 49.04C121.24 48.92 120.78 48.7267 120.38 48.46C119.98 48.18 119.66 47.82 119.42 47.38C119.18 46.9267 119.047 46.38 119.02 45.74H120.72ZM143.606 48.96C143.313 49.1333 142.906 49.22 142.386 49.22C141.946 49.22 141.593 49.1 141.326 48.86C141.073 48.6067 140.946 48.2 140.946 47.64C140.48 48.2 139.933 48.6067 139.306 48.86C138.693 49.1 138.026 49.22 137.306 49.22C136.84 49.22 136.393 49.1667 135.966 49.06C135.553 48.9533 135.193 48.7867 134.886 48.56C134.58 48.3333 134.333 48.04 134.146 47.68C133.973 47.3067 133.886 46.86 133.886 46.34C133.886 45.7533 133.986 45.2733 134.186 44.9C134.386 44.5267 134.646 44.2267 134.966 44C135.3 43.76 135.673 43.58 136.086 43.46C136.513 43.34 136.946 43.24 137.386 43.16C137.853 43.0667 138.293 43 138.706 42.96C139.133 42.9067 139.506 42.84 139.826 42.76C140.146 42.6667 140.4 42.54 140.586 42.38C140.773 42.2067 140.866 41.96 140.866 41.64C140.866 41.2667 140.793 40.9667 140.646 40.74C140.513 40.5133 140.333 40.34 140.106 40.22C139.893 40.1 139.646 40.02 139.366 39.98C139.1 39.94 138.833 39.92 138.566 39.92C137.846 39.92 137.246 40.06 136.766 40.34C136.286 40.6067 136.026 41.12 135.986 41.88H134.286C134.313 41.24 134.446 40.7 134.686 40.26C134.926 39.82 135.246 39.4667 135.646 39.2C136.046 38.92 136.5 38.72 137.006 38.6C137.526 38.48 138.08 38.42 138.666 38.42C139.133 38.42 139.593 38.4533 140.046 38.52C140.513 38.5867 140.933 38.7267 141.306 38.94C141.68 39.14 141.98 39.4267 142.206 39.8C142.433 40.1733 142.546 40.66 142.546 41.26V46.58C142.546 46.98 142.566 47.2733 142.606 47.46C142.66 47.6467 142.82 47.74 143.086 47.74C143.233 47.74 143.406 47.7067 143.606 47.64V48.96ZM140.846 43.66C140.633 43.82 140.353 43.94 140.006 44.02C139.66 44.0867 139.293 44.1467 138.906 44.2C138.533 44.24 138.153 44.2933 137.766 44.36C137.38 44.4133 137.033 44.5067 136.726 44.64C136.42 44.7733 136.166 44.9667 135.966 45.22C135.78 45.46 135.686 45.7933 135.686 46.22C135.686 46.5 135.74 46.74 135.846 46.94C135.966 47.1267 136.113 47.28 136.286 47.4C136.473 47.52 136.686 47.6067 136.926 47.66C137.166 47.7133 137.42 47.74 137.686 47.74C138.246 47.74 138.726 47.6667 139.126 47.52C139.526 47.36 139.853 47.1667 140.106 46.94C140.36 46.7 140.546 46.4467 140.666 46.18C140.786 45.9 140.846 45.64 140.846 45.4V43.66ZM150.235 34.72H152.135V41.84L159.375 34.72H161.835L155.815 40.48L162.075 49H159.675L154.515 41.78L152.135 44V49H150.235V34.72ZM170.075 42.84C170.048 42.44 169.955 42.06 169.795 41.7C169.648 41.34 169.442 41.0333 169.175 40.78C168.922 40.5133 168.615 40.3067 168.255 40.16C167.908 40 167.522 39.92 167.095 39.92C166.655 39.92 166.255 40 165.895 40.16C165.548 40.3067 165.248 40.5133 164.995 40.78C164.742 41.0467 164.542 41.36 164.395 41.72C164.248 42.0667 164.162 42.44 164.135 42.84H170.075ZM171.715 45.72C171.488 46.88 170.988 47.7533 170.215 48.34C169.442 48.9267 168.468 49.22 167.295 49.22C166.468 49.22 165.748 49.0867 165.135 48.82C164.535 48.5533 164.028 48.18 163.615 47.7C163.202 47.22 162.888 46.6467 162.675 45.98C162.475 45.3133 162.362 44.5867 162.335 43.8C162.335 43.0133 162.455 42.2933 162.695 41.64C162.935 40.9867 163.268 40.42 163.695 39.94C164.135 39.46 164.648 39.0867 165.235 38.82C165.835 38.5533 166.488 38.42 167.195 38.42C168.115 38.42 168.875 38.6133 169.475 39C170.088 39.3733 170.575 39.8533 170.935 40.44C171.308 41.0267 171.562 41.6667 171.695 42.36C171.842 43.0533 171.902 43.7133 171.875 44.34H164.135C164.122 44.7933 164.175 45.2267 164.295 45.64C164.415 46.04 164.608 46.4 164.875 46.72C165.142 47.0267 165.482 47.2733 165.895 47.46C166.308 47.6467 166.795 47.74 167.355 47.74C168.075 47.74 168.662 47.5733 169.115 47.24C169.582 46.9067 169.888 46.4 170.035 45.72H171.715ZM177.297 50.38C177.097 50.8867 176.897 51.3133 176.697 51.66C176.51 52.0067 176.297 52.2867 176.057 52.5C175.83 52.7267 175.57 52.8867 175.277 52.98C174.997 53.0867 174.67 53.14 174.297 53.14C174.097 53.14 173.897 53.1267 173.697 53.1C173.497 53.0733 173.304 53.0267 173.117 52.96V51.4C173.264 51.4667 173.43 51.52 173.617 51.56C173.817 51.6133 173.984 51.64 174.117 51.64C174.464 51.64 174.75 51.5533 174.977 51.38C175.217 51.22 175.397 50.9867 175.517 50.68L176.217 48.94L172.117 38.66H174.037L177.057 47.12H177.097L179.997 38.66H181.797L177.297 50.38ZM190.183 41.56H193.903C194.983 41.5733 195.77 41.3533 196.263 40.9C196.77 40.4467 197.023 39.7933 197.023 38.94C197.023 38.0867 196.77 37.44 196.263 37C195.77 36.5467 194.983 36.32 193.903 36.32H190.183V41.56ZM188.283 34.72H194.543C195.983 34.72 197.07 35.0933 197.803 35.84C198.55 36.5733 198.923 37.6067 198.923 38.94C198.923 40.2733 198.55 41.3133 197.803 42.06C197.07 42.8067 195.983 43.1733 194.543 43.16H190.183V49H188.283V34.72ZM201.812 43.84C201.812 44.4667 201.892 45.0267 202.052 45.52C202.226 46 202.459 46.4067 202.752 46.74C203.046 47.06 203.386 47.3067 203.772 47.48C204.172 47.6533 204.592 47.74 205.032 47.74C205.472 47.74 205.886 47.6533 206.272 47.48C206.672 47.3067 207.019 47.06 207.312 46.74C207.606 46.4067 207.832 46 207.992 45.52C208.166 45.0267 208.252 44.4667 208.252 43.84C208.252 43.2133 208.166 42.66 207.992 42.18C207.832 41.6867 207.606 41.2733 207.312 40.94C207.019 40.6067 206.672 40.3533 206.272 40.18C205.886 40.0067 205.472 39.92 205.032 39.92C204.592 39.92 204.172 40.0067 203.772 40.18C203.386 40.3533 203.046 40.6067 202.752 40.94C202.459 41.2733 202.226 41.6867 202.052 42.18C201.892 42.66 201.812 43.2133 201.812 43.84ZM200.012 43.84C200.012 43.08 200.119 42.3733 200.332 41.72C200.546 41.0533 200.866 40.48 201.292 40C201.719 39.5067 202.246 39.12 202.872 38.84C203.499 38.56 204.219 38.42 205.032 38.42C205.859 38.42 206.579 38.56 207.192 38.84C207.819 39.12 208.346 39.5067 208.772 40C209.199 40.48 209.519 41.0533 209.732 41.72C209.946 42.3733 210.052 43.08 210.052 43.84C210.052 44.6 209.946 45.3067 209.732 45.96C209.519 46.6133 209.199 47.1867 208.772 47.68C208.346 48.16 207.819 48.54 207.192 48.82C206.579 49.0867 205.859 49.22 205.032 49.22C204.219 49.22 203.499 49.0867 202.872 48.82C202.246 48.54 201.719 48.16 201.292 47.68C200.866 47.1867 200.546 46.6133 200.332 45.96C200.119 45.3067 200.012 44.6 200.012 43.84ZM213.457 36.8H211.757V34.72H213.457V36.8ZM211.757 38.66H213.457V49H211.757V38.66ZM215.69 38.66H217.29V40.3H217.33C218.037 39.0467 219.157 38.42 220.69 38.42C221.37 38.42 221.937 38.5133 222.39 38.7C222.843 38.8867 223.21 39.1467 223.49 39.48C223.77 39.8133 223.963 40.2133 224.07 40.68C224.19 41.1333 224.25 41.64 224.25 42.2V49H222.55V42C222.55 41.36 222.363 40.8533 221.99 40.48C221.617 40.1067 221.103 39.92 220.45 39.92C219.93 39.92 219.477 40 219.09 40.16C218.717 40.32 218.403 40.5467 218.15 40.84C217.897 41.1333 217.703 41.48 217.57 41.88C217.45 42.2667 217.39 42.6933 217.39 43.16V49H215.69V38.66ZM228.763 38.66H230.823V40.16H228.763V46.58C228.763 46.78 228.777 46.94 228.803 47.06C228.843 47.18 228.91 47.2733 229.003 47.34C229.097 47.4067 229.223 47.4533 229.383 47.48C229.557 47.4933 229.777 47.5 230.043 47.5H230.823V49H229.523C229.083 49 228.703 48.9733 228.383 48.92C228.077 48.8533 227.823 48.74 227.623 48.58C227.437 48.42 227.297 48.1933 227.203 47.9C227.11 47.6067 227.063 47.22 227.063 46.74V40.16H225.303V38.66H227.063V35.56H228.763V38.66ZM234.912 40.88H232.692V38.66H234.912V40.88ZM232.692 46.78H234.912V49H232.692V46.78ZM36.02 63.1H40.86L38.48 56.44H38.44L36.02 63.1ZM37.44 54.72H39.54L45.12 69H43.02L41.46 64.7H35.42L33.82 69H31.88L37.44 54.72ZM46.2088 54.72H48.1088V69H46.2088V54.72ZM50.3445 62.64H56.1245V64.24H50.3445V62.64ZM60.178 61.56H63.898C64.978 61.5733 65.7646 61.3533 66.258 60.9C66.7646 60.4467 67.018 59.7933 67.018 58.94C67.018 58.0867 66.7646 57.44 66.258 57C65.7646 56.5467 64.978 56.32 63.898 56.32H60.178V61.56ZM58.278 54.72H64.538C65.978 54.72 67.0646 55.0933 67.798 55.84C68.5446 56.5733 68.918 57.6067 68.918 58.94C68.918 60.2733 68.5446 61.3133 67.798 62.06C67.0646 62.8067 65.978 63.1733 64.538 63.16H60.178V69H58.278V54.72ZM71.8067 63.84C71.8067 64.4667 71.8867 65.0267 72.0467 65.52C72.2201 66 72.4534 66.4067 72.7467 66.74C73.0401 67.06 73.3801 67.3067 73.7667 67.48C74.1667 67.6533 74.5867 67.74 75.0267 67.74C75.4667 67.74 75.8801 67.6533 76.2667 67.48C76.6667 67.3067 77.0134 67.06 77.3067 66.74C77.6001 66.4067 77.8267 66 77.9867 65.52C78.1601 65.0267 78.2467 64.4667 78.2467 63.84C78.2467 63.2133 78.1601 62.66 77.9867 62.18C77.8267 61.6867 77.6001 61.2733 77.3067 60.94C77.0134 60.6067 76.6667 60.3533 76.2667 60.18C75.8801 60.0067 75.4667 59.92 75.0267 59.92C74.5867 59.92 74.1667 60.0067 73.7667 60.18C73.3801 60.3533 73.0401 60.6067 72.7467 60.94C72.4534 61.2733 72.2201 61.6867 72.0467 62.18C71.8867 62.66 71.8067 63.2133 71.8067 63.84ZM70.0067 63.84C70.0067 63.08 70.1134 62.3733 70.3267 61.72C70.5401 61.0533 70.8601 60.48 71.2867 60C71.7134 59.5067 72.2401 59.12 72.8667 58.84C73.4934 58.56 74.2134 58.42 75.0267 58.42C75.8534 58.42 76.5734 58.56 77.1867 58.84C77.8134 59.12 78.3401 59.5067 78.7667 60C79.1934 60.48 79.5134 61.0533 79.7267 61.72C79.9401 62.3733 80.0467 63.08 80.0467 63.84C80.0467 64.6 79.9401 65.3067 79.7267 65.96C79.5134 66.6133 79.1934 67.1867 78.7667 67.68C78.3401 68.16 77.8134 68.54 77.1867 68.82C76.5734 69.0867 75.8534 69.22 75.0267 69.22C74.2134 69.22 73.4934 69.0867 72.8667 68.82C72.2401 68.54 71.7134 68.16 71.2867 67.68C70.8601 67.1867 70.5401 66.6133 70.3267 65.96C70.1134 65.3067 70.0067 64.6 70.0067 63.84ZM91.8911 69H90.0911L87.9911 60.78H87.9511L85.8711 69H84.0311L80.7111 58.66H82.5911L84.9311 67.12H84.9711L87.0511 58.66H88.9111L91.0711 67.12H91.1111L93.4311 58.66H95.1911L91.8911 69ZM103.587 62.84C103.561 62.44 103.467 62.06 103.307 61.7C103.161 61.34 102.954 61.0333 102.687 60.78C102.434 60.5133 102.127 60.3067 101.767 60.16C101.421 60 101.034 59.92 100.607 59.92C100.167 59.92 99.7673 60 99.4073 60.16C99.0607 60.3067 98.7607 60.5133 98.5073 60.78C98.254 61.0467 98.054 61.36 97.9073 61.72C97.7607 62.0667 97.674 62.44 97.6473 62.84H103.587ZM105.227 65.72C105.001 66.88 104.501 67.7533 103.727 68.34C102.954 68.9267 101.981 69.22 100.807 69.22C99.9807 69.22 99.2607 69.0867 98.6473 68.82C98.0473 68.5533 97.5407 68.18 97.1273 67.7C96.714 67.22 96.4007 66.6467 96.1873 65.98C95.9873 65.3133 95.874 64.5867 95.8473 63.8C95.8473 63.0133 95.9673 62.2933 96.2073 61.64C96.4473 60.9867 96.7807 60.42 97.2073 59.94C97.6473 59.46 98.1607 59.0867 98.7473 58.82C99.3473 58.5533 100.001 58.42 100.707 58.42C101.627 58.42 102.387 58.6133 102.987 59C103.601 59.3733 104.087 59.8533 104.447 60.44C104.821 61.0267 105.074 61.6667 105.207 62.36C105.354 63.0533 105.414 63.7133 105.387 64.34H97.6473C97.634 64.7933 97.6873 65.2267 97.8073 65.64C97.9273 66.04 98.1207 66.4 98.3873 66.72C98.654 67.0267 98.994 67.2733 99.4073 67.46C99.8207 67.6467 100.307 67.74 100.867 67.74C101.587 67.74 102.174 67.5733 102.627 67.24C103.094 66.9067 103.401 66.4 103.547 65.72H105.227ZM106.69 58.66H108.29V60.84H108.33C108.743 60 109.25 59.38 109.85 58.98C110.45 58.58 111.21 58.3933 112.13 58.42V60.22C111.45 60.22 110.87 60.3133 110.39 60.5C109.91 60.6867 109.523 60.96 109.23 61.32C108.936 61.68 108.723 62.12 108.59 62.64C108.456 63.1467 108.39 63.7333 108.39 64.4V69H106.69V58.66ZM119.838 62.84C119.811 62.44 119.718 62.06 119.558 61.7C119.411 61.34 119.205 61.0333 118.938 60.78C118.685 60.5133 118.378 60.3067 118.018 60.16C117.671 60 117.285 59.92 116.858 59.92C116.418 59.92 116.018 60 115.658 60.16C115.311 60.3067 115.011 60.5133 114.758 60.78C114.505 61.0467 114.305 61.36 114.158 61.72C114.011 62.0667 113.925 62.44 113.898 62.84H119.838ZM121.478 65.72C121.251 66.88 120.751 67.7533 119.978 68.34C119.205 68.9267 118.231 69.22 117.058 69.22C116.231 69.22 115.511 69.0867 114.898 68.82C114.298 68.5533 113.791 68.18 113.378 67.7C112.965 67.22 112.651 66.6467 112.438 65.98C112.238 65.3133 112.125 64.5867 112.098 63.8C112.098 63.0133 112.218 62.2933 112.458 61.64C112.698 60.9867 113.031 60.42 113.458 59.94C113.898 59.46 114.411 59.0867 114.998 58.82C115.598 58.5533 116.251 58.42 116.958 58.42C117.878 58.42 118.638 58.6133 119.238 59C119.851 59.3733 120.338 59.8533 120.698 60.44C121.071 61.0267 121.325 61.6667 121.458 62.36C121.605 63.0533 121.665 63.7133 121.638 64.34H113.898C113.885 64.7933 113.938 65.2267 114.058 65.64C114.178 66.04 114.371 66.4 114.638 66.72C114.905 67.0267 115.245 67.2733 115.658 67.46C116.071 67.6467 116.558 67.74 117.118 67.74C117.838 67.74 118.425 67.5733 118.878 67.24C119.345 66.9067 119.651 66.4 119.798 65.72H121.478ZM124.24 63.92C124.24 64.4 124.3 64.8733 124.42 65.34C124.554 65.7933 124.747 66.2 125 66.56C125.267 66.92 125.6 67.2067 126 67.42C126.414 67.6333 126.894 67.74 127.44 67.74C128.014 67.74 128.5 67.6267 128.9 67.4C129.3 67.1733 129.627 66.88 129.88 66.52C130.134 66.1467 130.314 65.7267 130.42 65.26C130.54 64.7933 130.6 64.32 130.6 63.84C130.6 63.3333 130.54 62.8467 130.42 62.38C130.3 61.9 130.107 61.48 129.84 61.12C129.587 60.76 129.254 60.4733 128.84 60.26C128.427 60.0333 127.927 59.92 127.34 59.92C126.767 59.92 126.28 60.0333 125.88 60.26C125.48 60.4867 125.16 60.7867 124.92 61.16C124.68 61.5333 124.507 61.96 124.4 62.44C124.294 62.92 124.24 63.4133 124.24 63.92ZM132.24 69H130.54V67.6H130.5C130.22 68.1733 129.78 68.5867 129.18 68.84C128.58 69.0933 127.92 69.22 127.2 69.22C126.4 69.22 125.7 69.0733 125.1 68.78C124.514 68.4867 124.02 68.0933 123.62 67.6C123.234 67.1067 122.94 66.5333 122.74 65.88C122.54 65.2267 122.44 64.5333 122.44 63.8C122.44 63.0667 122.534 62.3733 122.72 61.72C122.92 61.0667 123.214 60.5 123.6 60.02C124 59.5267 124.494 59.14 125.08 58.86C125.68 58.5667 126.374 58.42 127.16 58.42C127.427 58.42 127.714 58.4467 128.02 58.5C128.327 58.5533 128.634 58.6467 128.94 58.78C129.247 58.9 129.534 59.0667 129.8 59.28C130.08 59.48 130.314 59.7333 130.5 60.04H130.54V54.72H132.24V69ZM139.942 54.72H142.542L147.042 66.72L151.562 54.72H154.162V69H152.362V57.12H152.322L147.862 69H146.242L141.782 57.12H141.742V69H139.942V54.72ZM163.824 62.84C163.797 62.44 163.704 62.06 163.544 61.7C163.397 61.34 163.191 61.0333 162.924 60.78C162.671 60.5133 162.364 60.3067 162.004 60.16C161.657 60 161.271 59.92 160.844 59.92C160.404 59.92 160.004 60 159.644 60.16C159.297 60.3067 158.997 60.5133 158.744 60.78C158.491 61.0467 158.291 61.36 158.144 61.72C157.997 62.0667 157.911 62.44 157.884 62.84H163.824ZM165.464 65.72C165.237 66.88 164.737 67.7533 163.964 68.34C163.191 68.9267 162.217 69.22 161.044 69.22C160.217 69.22 159.497 69.0867 158.884 68.82C158.284 68.5533 157.777 68.18 157.364 67.7C156.951 67.22 156.637 66.6467 156.424 65.98C156.224 65.3133 156.111 64.5867 156.084 63.8C156.084 63.0133 156.204 62.2933 156.444 61.64C156.684 60.9867 157.017 60.42 157.444 59.94C157.884 59.46 158.397 59.0867 158.984 58.82C159.584 58.5533 160.237 58.42 160.944 58.42C161.864 58.42 162.624 58.6133 163.224 59C163.837 59.3733 164.324 59.8533 164.684 60.44C165.057 61.0267 165.311 61.6667 165.444 62.36C165.591 63.0533 165.651 63.7133 165.624 64.34H157.884C157.871 64.7933 157.924 65.2267 158.044 65.64C158.164 66.04 158.357 66.4 158.624 66.72C158.891 67.0267 159.231 67.2733 159.644 67.46C160.057 67.6467 160.544 67.74 161.104 67.74C161.824 67.74 162.411 67.5733 162.864 67.24C163.331 66.9067 163.637 66.4 163.784 65.72H165.464ZM174.166 62.84C174.14 62.44 174.046 62.06 173.886 61.7C173.74 61.34 173.533 61.0333 173.266 60.78C173.013 60.5133 172.706 60.3067 172.346 60.16C172 60 171.613 59.92 171.186 59.92C170.746 59.92 170.346 60 169.986 60.16C169.64 60.3067 169.34 60.5133 169.086 60.78C168.833 61.0467 168.633 61.36 168.486 61.72C168.34 62.0667 168.253 62.44 168.226 62.84H174.166ZM175.806 65.72C175.58 66.88 175.08 67.7533 174.306 68.34C173.533 68.9267 172.56 69.22 171.386 69.22C170.56 69.22 169.84 69.0867 169.226 68.82C168.626 68.5533 168.12 68.18 167.706 67.7C167.293 67.22 166.98 66.6467 166.766 65.98C166.566 65.3133 166.453 64.5867 166.426 63.8C166.426 63.0133 166.546 62.2933 166.786 61.64C167.026 60.9867 167.36 60.42 167.786 59.94C168.226 59.46 168.74 59.0867 169.326 58.82C169.926 58.5533 170.58 58.42 171.286 58.42C172.206 58.42 172.966 58.6133 173.566 59C174.18 59.3733 174.666 59.8533 175.026 60.44C175.4 61.0267 175.653 61.6667 175.786 62.36C175.933 63.0533 175.993 63.7133 175.966 64.34H168.226C168.213 64.7933 168.266 65.2267 168.386 65.64C168.506 66.04 168.7 66.4 168.966 66.72C169.233 67.0267 169.573 67.2733 169.986 67.46C170.4 67.6467 170.886 67.74 171.446 67.74C172.166 67.74 172.753 67.5733 173.206 67.24C173.673 66.9067 173.98 66.4 174.126 65.72H175.806ZM179.688 58.66H181.748V60.16H179.688V66.58C179.688 66.78 179.702 66.94 179.728 67.06C179.768 67.18 179.835 67.2733 179.928 67.34C180.022 67.4067 180.148 67.4533 180.308 67.48C180.482 67.4933 180.702 67.5 180.968 67.5H181.748V69H180.448C180.008 69 179.628 68.9733 179.308 68.92C179.002 68.8533 178.748 68.74 178.548 68.58C178.362 68.42 178.222 68.1933 178.128 67.9C178.035 67.6067 177.988 67.22 177.988 66.74V60.16H176.228V58.66H177.988V55.56H179.688V58.66ZM185.037 56.8H183.337V54.72H185.037V56.8ZM183.337 58.66H185.037V69H183.337V58.66ZM187.271 58.66H188.871V60.3H188.911C189.617 59.0467 190.737 58.42 192.271 58.42C192.951 58.42 193.517 58.5133 193.971 58.7C194.424 58.8867 194.791 59.1467 195.071 59.48C195.351 59.8133 195.544 60.2133 195.651 60.68C195.771 61.1333 195.831 61.64 195.831 62.2V69H194.131V62C194.131 61.36 193.944 60.8533 193.571 60.48C193.197 60.1067 192.684 59.92 192.031 59.92C191.511 59.92 191.057 60 190.671 60.16C190.297 60.32 189.984 60.5467 189.731 60.84C189.477 61.1333 189.284 61.48 189.151 61.88C189.031 62.2667 188.971 62.6933 188.971 63.16V69H187.271V58.66ZM206.904 68.12C206.904 69.8133 206.517 71.08 205.744 71.92C204.971 72.76 203.757 73.18 202.104 73.18C201.624 73.18 201.131 73.1267 200.624 73.02C200.131 72.9133 199.677 72.74 199.264 72.5C198.864 72.26 198.531 71.9467 198.264 71.56C197.997 71.1733 197.851 70.7 197.824 70.14H199.524C199.537 70.4467 199.631 70.7067 199.804 70.92C199.991 71.1333 200.211 71.3067 200.464 71.44C200.731 71.5733 201.017 71.6667 201.324 71.72C201.631 71.7867 201.924 71.82 202.204 71.82C202.764 71.82 203.237 71.72 203.624 71.52C204.011 71.3333 204.331 71.0667 204.584 70.72C204.837 70.3867 205.017 69.98 205.124 69.5C205.244 69.02 205.304 68.4933 205.304 67.92V67.24H205.264C204.971 67.88 204.524 68.3533 203.924 68.66C203.337 68.9533 202.711 69.1 202.044 69.1C201.271 69.1 200.597 68.96 200.024 68.68C199.451 68.4 198.971 68.0267 198.584 67.56C198.197 67.08 197.904 66.5267 197.704 65.9C197.517 65.26 197.424 64.5867 197.424 63.88C197.424 63.2667 197.504 62.64 197.664 62C197.824 61.3467 198.091 60.76 198.464 60.24C198.837 59.7067 199.331 59.2733 199.944 58.94C200.557 58.5933 201.311 58.42 202.204 58.42C202.857 58.42 203.457 58.5667 204.004 58.86C204.551 59.14 204.977 59.5667 205.284 60.14H205.304V58.66H206.904V68.12ZM202.144 67.62C202.704 67.62 203.177 67.5067 203.564 67.28C203.964 67.04 204.284 66.7333 204.524 66.36C204.764 65.9733 204.937 65.54 205.044 65.06C205.164 64.58 205.224 64.1 205.224 63.62C205.224 63.1667 205.171 62.72 205.064 62.28C204.957 61.84 204.784 61.4467 204.544 61.1C204.317 60.74 204.017 60.4533 203.644 60.24C203.271 60.0267 202.817 59.92 202.284 59.92C201.737 59.92 201.271 60.0267 200.884 60.24C200.497 60.44 200.177 60.7133 199.924 61.06C199.684 61.4067 199.504 61.8067 199.384 62.26C199.277 62.7133 199.224 63.1867 199.224 63.68C199.224 64.1467 199.271 64.6133 199.364 65.08C199.457 65.5467 199.617 65.9733 199.844 66.36C200.071 66.7333 200.371 67.04 200.744 67.28C201.117 67.5067 201.584 67.62 202.144 67.62ZM33.64 74.72H35.54V89H33.64V74.72ZM38.0558 78.66H39.6558V80.3H39.6958C40.4024 79.0467 41.5224 78.42 43.0558 78.42C43.7358 78.42 44.3024 78.5133 44.7558 78.7C45.2091 78.8867 45.5758 79.1467 45.8558 79.48C46.1358 79.8133 46.3291 80.2133 46.4358 80.68C46.5558 81.1333 46.6158 81.64 46.6158 82.2V89H44.9158V82C44.9158 81.36 44.7291 80.8533 44.3558 80.48C43.9824 80.1067 43.4691 79.92 42.8158 79.92C42.2958 79.92 41.8424 80 41.4558 80.16C41.0824 80.32 40.7691 80.5467 40.5158 80.84C40.2624 81.1333 40.0691 81.48 39.9358 81.88C39.8158 82.2667 39.7558 82.6933 39.7558 83.16V89H38.0558V78.66ZM49.8091 85.74C49.8224 86.1133 49.9091 86.4333 50.0691 86.7C50.2291 86.9533 50.4357 87.16 50.6891 87.32C50.9557 87.4667 51.2491 87.5733 51.5691 87.64C51.9024 87.7067 52.2424 87.74 52.5891 87.74C52.8557 87.74 53.1357 87.72 53.4291 87.68C53.7224 87.64 53.9891 87.5667 54.2291 87.46C54.4824 87.3533 54.6891 87.2 54.8491 87C55.0091 86.7867 55.0891 86.52 55.0891 86.2C55.0891 85.76 54.9224 85.4267 54.5891 85.2C54.2557 84.9733 53.8357 84.7933 53.3291 84.66C52.8357 84.5133 52.2957 84.3867 51.7091 84.28C51.1224 84.16 50.5757 84 50.0691 83.8C49.5757 83.5867 49.1624 83.2933 48.8291 82.92C48.4957 82.5467 48.3291 82.0267 48.3291 81.36C48.3291 80.84 48.4424 80.3933 48.6691 80.02C48.9091 79.6467 49.2091 79.3467 49.5691 79.12C49.9424 78.88 50.3557 78.7067 50.8091 78.6C51.2757 78.48 51.7357 78.42 52.1891 78.42C52.7757 78.42 53.3157 78.4733 53.8091 78.58C54.3024 78.6733 54.7357 78.8467 55.1091 79.1C55.4957 79.34 55.8024 79.6733 56.0291 80.1C56.2557 80.5133 56.3891 81.0333 56.4291 81.66H54.7291C54.7024 81.3267 54.6157 81.0533 54.4691 80.84C54.3224 80.6133 54.1357 80.4333 53.9091 80.3C53.6824 80.1667 53.4291 80.0733 53.1491 80.02C52.8824 79.9533 52.6091 79.92 52.3291 79.92C52.0757 79.92 51.8157 79.94 51.5491 79.98C51.2957 80.02 51.0624 80.0933 50.8491 80.2C50.6357 80.2933 50.4624 80.4267 50.3291 80.6C50.1957 80.76 50.1291 80.9733 50.1291 81.24C50.1291 81.5333 50.2291 81.78 50.4291 81.98C50.6424 82.1667 50.9091 82.3267 51.2291 82.46C51.5491 82.58 51.9091 82.6867 52.3091 82.78C52.7091 82.86 53.1091 82.9467 53.5091 83.04C53.9357 83.1333 54.3491 83.2467 54.7491 83.38C55.1624 83.5133 55.5224 83.6933 55.8291 83.92C56.1491 84.1333 56.4024 84.4067 56.5891 84.74C56.7891 85.0733 56.8891 85.4867 56.8891 85.98C56.8891 86.6067 56.7557 87.1267 56.4891 87.54C56.2357 87.9533 55.8957 88.2867 55.4691 88.54C55.0557 88.7933 54.5824 88.9667 54.0491 89.06C53.5291 89.1667 53.0091 89.22 52.4891 89.22C51.9157 89.22 51.3691 89.16 50.8491 89.04C50.3291 88.92 49.8691 88.7267 49.4691 88.46C49.0691 88.18 48.7491 87.82 48.5091 87.38C48.2691 86.9267 48.1357 86.38 48.1091 85.74H49.8091ZM60.1691 76.8H58.4691V74.72H60.1691V76.8ZM58.4691 78.66H60.1691V89H58.4691V78.66ZM71.3227 88.12C71.3227 89.8133 70.936 91.08 70.1627 91.92C69.3893 92.76 68.176 93.18 66.5227 93.18C66.0427 93.18 65.5493 93.1267 65.0427 93.02C64.5493 92.9133 64.096 92.74 63.6827 92.5C63.2827 92.26 62.9493 91.9467 62.6827 91.56C62.416 91.1733 62.2693 90.7 62.2427 90.14H63.9427C63.956 90.4467 64.0493 90.7067 64.2227 90.92C64.4093 91.1333 64.6293 91.3067 64.8827 91.44C65.1493 91.5733 65.436 91.6667 65.7427 91.72C66.0493 91.7867 66.3427 91.82 66.6227 91.82C67.1827 91.82 67.656 91.72 68.0427 91.52C68.4293 91.3333 68.7493 91.0667 69.0027 90.72C69.256 90.3867 69.436 89.98 69.5427 89.5C69.6627 89.02 69.7227 88.4933 69.7227 87.92V87.24H69.6827C69.3893 87.88 68.9427 88.3533 68.3427 88.66C67.756 88.9533 67.1293 89.1 66.4627 89.1C65.6893 89.1 65.016 88.96 64.4427 88.68C63.8693 88.4 63.3893 88.0267 63.0027 87.56C62.616 87.08 62.3227 86.5267 62.1227 85.9C61.936 85.26 61.8427 84.5867 61.8427 83.88C61.8427 83.2667 61.9227 82.64 62.0827 82C62.2427 81.3467 62.5093 80.76 62.8827 80.24C63.256 79.7067 63.7493 79.2733 64.3627 78.94C64.976 78.5933 65.7293 78.42 66.6227 78.42C67.276 78.42 67.876 78.5667 68.4227 78.86C68.9693 79.14 69.396 79.5667 69.7027 80.14H69.7227V78.66H71.3227V88.12ZM66.5627 87.62C67.1227 87.62 67.596 87.5067 67.9827 87.28C68.3827 87.04 68.7027 86.7333 68.9427 86.36C69.1827 85.9733 69.356 85.54 69.4627 85.06C69.5827 84.58 69.6427 84.1 69.6427 83.62C69.6427 83.1667 69.5893 82.72 69.4827 82.28C69.376 81.84 69.2027 81.4467 68.9627 81.1C68.736 80.74 68.436 80.4533 68.0627 80.24C67.6893 80.0267 67.236 79.92 66.7027 79.92C66.156 79.92 65.6893 80.0267 65.3027 80.24C64.916 80.44 64.596 80.7133 64.3427 81.06C64.1027 81.4067 63.9227 81.8067 63.8027 82.26C63.696 82.7133 63.6427 83.1867 63.6427 83.68C63.6427 84.1467 63.6893 84.6133 63.7827 85.08C63.876 85.5467 64.036 85.9733 64.2627 86.36C64.4893 86.7333 64.7893 87.04 65.1627 87.28C65.536 87.5067 66.0027 87.62 66.5627 87.62ZM73.487 74.72H75.187V80.18H75.227C75.3604 79.86 75.547 79.5933 75.787 79.38C76.027 79.1533 76.2937 78.9733 76.587 78.84C76.8937 78.6933 77.207 78.5867 77.527 78.52C77.8604 78.4533 78.1804 78.42 78.487 78.42C79.167 78.42 79.7337 78.5133 80.187 78.7C80.6404 78.8867 81.007 79.1467 81.287 79.48C81.567 79.8133 81.7604 80.2133 81.867 80.68C81.987 81.1333 82.047 81.64 82.047 82.2V89H80.347V82C80.347 81.36 80.1604 80.8533 79.787 80.48C79.4137 80.1067 78.9004 79.92 78.247 79.92C77.727 79.92 77.2737 80 76.887 80.16C76.5137 80.32 76.2004 80.5467 75.947 80.84C75.6937 81.1333 75.5004 81.48 75.367 81.88C75.247 82.2667 75.187 82.6933 75.187 83.16V89H73.487V74.72ZM86.5603 78.66H88.6203V80.16H86.5603V86.58C86.5603 86.78 86.5736 86.94 86.6003 87.06C86.6403 87.18 86.707 87.2733 86.8003 87.34C86.8936 87.4067 87.0203 87.4533 87.1803 87.48C87.3536 87.4933 87.5736 87.5 87.8403 87.5H88.6203V89H87.3203C86.8803 89 86.5003 88.9733 86.1803 88.92C85.8736 88.8533 85.6203 88.74 85.4203 88.58C85.2336 88.42 85.0936 88.1933 85.0003 87.9C84.907 87.6067 84.8603 87.22 84.8603 86.74V80.16H83.1003V78.66H84.8603V75.56H86.5603V78.66ZM91.1489 85.74C91.1622 86.1133 91.2489 86.4333 91.4089 86.7C91.5689 86.9533 91.7756 87.16 92.0289 87.32C92.2956 87.4667 92.5889 87.5733 92.9089 87.64C93.2422 87.7067 93.5822 87.74 93.9289 87.74C94.1956 87.74 94.4756 87.72 94.7689 87.68C95.0622 87.64 95.3289 87.5667 95.5689 87.46C95.8222 87.3533 96.0289 87.2 96.1889 87C96.3489 86.7867 96.4289 86.52 96.4289 86.2C96.4289 85.76 96.2622 85.4267 95.9289 85.2C95.5956 84.9733 95.1756 84.7933 94.6689 84.66C94.1756 84.5133 93.6356 84.3867 93.0489 84.28C92.4622 84.16 91.9156 84 91.4089 83.8C90.9156 83.5867 90.5022 83.2933 90.1689 82.92C89.8356 82.5467 89.6689 82.0267 89.6689 81.36C89.6689 80.84 89.7822 80.3933 90.0089 80.02C90.2489 79.6467 90.5489 79.3467 90.9089 79.12C91.2822 78.88 91.6956 78.7067 92.1489 78.6C92.6156 78.48 93.0756 78.42 93.5289 78.42C94.1156 78.42 94.6556 78.4733 95.1489 78.58C95.6422 78.6733 96.0756 78.8467 96.4489 79.1C96.8356 79.34 97.1422 79.6733 97.3689 80.1C97.5956 80.5133 97.7289 81.0333 97.7689 81.66H96.0689C96.0422 81.3267 95.9556 81.0533 95.8089 80.84C95.6622 80.6133 95.4756 80.4333 95.2489 80.3C95.0222 80.1667 94.7689 80.0733 94.4889 80.02C94.2222 79.9533 93.9489 79.92 93.6689 79.92C93.4156 79.92 93.1556 79.94 92.8889 79.98C92.6356 80.02 92.4022 80.0933 92.1889 80.2C91.9756 80.2933 91.8022 80.4267 91.6689 80.6C91.5356 80.76 91.4689 80.9733 91.4689 81.24C91.4689 81.5333 91.5689 81.78 91.7689 81.98C91.9822 82.1667 92.2489 82.3267 92.5689 82.46C92.8889 82.58 93.2489 82.6867 93.6489 82.78C94.0489 82.86 94.4489 82.9467 94.8489 83.04C95.2756 83.1333 95.6889 83.2467 96.0889 83.38C96.5022 83.5133 96.8622 83.6933 97.1689 83.92C97.4889 84.1333 97.7422 84.4067 97.9289 84.74C98.1289 85.0733 98.2289 85.4867 98.2289 85.98C98.2289 86.6067 98.0956 87.1267 97.8289 87.54C97.5756 87.9533 97.2356 88.2867 96.8089 88.54C96.3956 88.7933 95.9222 88.9667 95.3889 89.06C94.8689 89.1667 94.3489 89.22 93.8289 89.22C93.2556 89.22 92.7089 89.16 92.1889 89.04C91.6689 88.92 91.2089 88.7267 90.8089 88.46C90.4089 88.18 90.0889 87.82 89.8489 87.38C89.6089 86.9267 89.4756 86.38 89.4489 85.74H91.1489ZM106.675 76.8H104.975V74.72H106.675V76.8ZM104.975 78.66H106.675V89H104.975V78.66ZM108.909 78.66H110.509V80.3H110.549C111.256 79.0467 112.376 78.42 113.909 78.42C114.589 78.42 115.156 78.5133 115.609 78.7C116.062 78.8867 116.429 79.1467 116.709 79.48C116.989 79.8133 117.182 80.2133 117.289 80.68C117.409 81.1333 117.469 81.64 117.469 82.2V89H115.769V82C115.769 81.36 115.582 80.8533 115.209 80.48C114.836 80.1067 114.322 79.92 113.669 79.92C113.149 79.92 112.696 80 112.309 80.16C111.936 80.32 111.622 80.5467 111.369 80.84C111.116 81.1333 110.922 81.48 110.789 81.88C110.669 82.2667 110.609 82.6933 110.609 83.16V89H108.909V78.66ZM125.069 74.72H131.789C133.149 74.72 134.209 75.0533 134.969 75.72C135.742 76.3867 136.129 77.3 136.129 78.46C136.129 79.3267 135.929 80.0867 135.529 80.74C135.142 81.3933 134.515 81.84 133.649 82.08V82.12C134.062 82.2 134.395 82.3333 134.649 82.52C134.915 82.7067 135.122 82.9333 135.269 83.2C135.429 83.4533 135.542 83.74 135.609 84.06C135.689 84.38 135.749 84.7133 135.789 85.06C135.815 85.4067 135.835 85.76 135.849 86.12C135.862 86.48 135.895 86.8333 135.949 87.18C136.002 87.5267 136.075 87.86 136.169 88.18C136.275 88.4867 136.429 88.76 136.629 89H134.509C134.375 88.8533 134.282 88.6533 134.229 88.4C134.189 88.1467 134.162 87.8667 134.149 87.56C134.135 87.24 134.122 86.9 134.109 86.54C134.095 86.18 134.055 85.8267 133.989 85.48C133.935 85.1333 133.869 84.8067 133.789 84.5C133.709 84.18 133.582 83.9067 133.409 83.68C133.235 83.44 133.009 83.2533 132.729 83.12C132.449 82.9733 132.075 82.9 131.609 82.9H126.969V89H125.069V74.72ZM130.929 81.3C131.369 81.3 131.789 81.2667 132.189 81.2C132.589 81.1333 132.935 81.0067 133.229 80.82C133.535 80.62 133.775 80.36 133.949 80.04C134.135 79.7067 134.229 79.28 134.229 78.76C134.229 78.04 134.029 77.4533 133.629 77C133.229 76.5467 132.582 76.32 131.689 76.32H126.969V81.3H130.929ZM145.26 82.84C145.233 82.44 145.14 82.06 144.98 81.7C144.833 81.34 144.627 81.0333 144.36 80.78C144.107 80.5133 143.8 80.3067 143.44 80.16C143.093 80 142.707 79.92 142.28 79.92C141.84 79.92 141.44 80 141.08 80.16C140.733 80.3067 140.433 80.5133 140.18 80.78C139.927 81.0467 139.727 81.36 139.58 81.72C139.433 82.0667 139.347 82.44 139.32 82.84H145.26ZM146.9 85.72C146.673 86.88 146.173 87.7533 145.4 88.34C144.627 88.9267 143.653 89.22 142.48 89.22C141.653 89.22 140.933 89.0867 140.32 88.82C139.72 88.5533 139.213 88.18 138.8 87.7C138.387 87.22 138.073 86.6467 137.86 85.98C137.66 85.3133 137.547 84.5867 137.52 83.8C137.52 83.0133 137.64 82.2933 137.88 81.64C138.12 80.9867 138.453 80.42 138.88 79.94C139.32 79.46 139.833 79.0867 140.42 78.82C141.02 78.5533 141.673 78.42 142.38 78.42C143.3 78.42 144.06 78.6133 144.66 79C145.273 79.3733 145.76 79.8533 146.12 80.44C146.493 81.0267 146.747 81.6667 146.88 82.36C147.027 83.0533 147.087 83.7133 147.06 84.34H139.32C139.307 84.7933 139.36 85.2267 139.48 85.64C139.6 86.04 139.793 86.4 140.06 86.72C140.327 87.0267 140.667 87.2733 141.08 87.46C141.493 87.6467 141.98 87.74 142.54 87.74C143.26 87.74 143.847 87.5733 144.3 87.24C144.767 86.9067 145.073 86.4 145.22 85.72H146.9ZM157.582 88.96C157.289 89.1333 156.882 89.22 156.362 89.22C155.922 89.22 155.569 89.1 155.302 88.86C155.049 88.6067 154.922 88.2 154.922 87.64C154.456 88.2 153.909 88.6067 153.282 88.86C152.669 89.1 152.002 89.22 151.282 89.22C150.816 89.22 150.369 89.1667 149.942 89.06C149.529 88.9533 149.169 88.7867 148.862 88.56C148.556 88.3333 148.309 88.04 148.122 87.68C147.949 87.3067 147.862 86.86 147.862 86.34C147.862 85.7533 147.962 85.2733 148.162 84.9C148.362 84.5267 148.622 84.2267 148.942 84C149.276 83.76 149.649 83.58 150.062 83.46C150.489 83.34 150.922 83.24 151.362 83.16C151.829 83.0667 152.269 83 152.682 82.96C153.109 82.9067 153.482 82.84 153.802 82.76C154.122 82.6667 154.376 82.54 154.562 82.38C154.749 82.2067 154.842 81.96 154.842 81.64C154.842 81.2667 154.769 80.9667 154.622 80.74C154.489 80.5133 154.309 80.34 154.082 80.22C153.869 80.1 153.622 80.02 153.342 79.98C153.076 79.94 152.809 79.92 152.542 79.92C151.822 79.92 151.222 80.06 150.742 80.34C150.262 80.6067 150.002 81.12 149.962 81.88H148.262C148.289 81.24 148.422 80.7 148.662 80.26C148.902 79.82 149.222 79.4667 149.622 79.2C150.022 78.92 150.476 78.72 150.982 78.6C151.502 78.48 152.056 78.42 152.642 78.42C153.109 78.42 153.569 78.4533 154.022 78.52C154.489 78.5867 154.909 78.7267 155.282 78.94C155.656 79.14 155.956 79.4267 156.182 79.8C156.409 80.1733 156.522 80.66 156.522 81.26V86.58C156.522 86.98 156.542 87.2733 156.582 87.46C156.636 87.6467 156.796 87.74 157.062 87.74C157.209 87.74 157.382 87.7067 157.582 87.64V88.96ZM154.822 83.66C154.609 83.82 154.329 83.94 153.982 84.02C153.636 84.0867 153.269 84.1467 152.882 84.2C152.509 84.24 152.129 84.2933 151.742 84.36C151.356 84.4133 151.009 84.5067 150.702 84.64C150.396 84.7733 150.142 84.9667 149.942 85.22C149.756 85.46 149.662 85.7933 149.662 86.22C149.662 86.5 149.716 86.74 149.822 86.94C149.942 87.1267 150.089 87.28 150.262 87.4C150.449 87.52 150.662 87.6067 150.902 87.66C151.142 87.7133 151.396 87.74 151.662 87.74C152.222 87.74 152.702 87.6667 153.102 87.52C153.502 87.36 153.829 87.1667 154.082 86.94C154.336 86.7 154.522 86.4467 154.642 86.18C154.762 85.9 154.822 85.64 154.822 85.4V83.66ZM158.864 74.72H160.564V89H158.864V74.72ZM162.518 82.64H168.298V84.24H162.518V82.64ZM173.691 76.32H168.931V74.72H180.351V76.32H175.591V89H173.691V76.32ZM183.056 76.8H181.356V74.72H183.056V76.8ZM181.356 78.66H183.056V89H181.356V78.66ZM185.289 78.66H186.889V80.18H186.929C187.703 79.0067 188.816 78.42 190.269 78.42C190.909 78.42 191.489 78.5533 192.009 78.82C192.529 79.0867 192.896 79.54 193.109 80.18C193.456 79.62 193.909 79.1867 194.469 78.88C195.043 78.5733 195.669 78.42 196.349 78.42C196.869 78.42 197.336 78.48 197.749 78.6C198.176 78.7067 198.536 78.88 198.829 79.12C199.136 79.36 199.369 79.6733 199.529 80.06C199.703 80.4333 199.789 80.8867 199.789 81.42V89H198.089V82.22C198.089 81.9 198.063 81.6 198.009 81.32C197.956 81.04 197.856 80.8 197.709 80.6C197.563 80.3867 197.356 80.22 197.089 80.1C196.836 79.98 196.503 79.92 196.089 79.92C195.249 79.92 194.589 80.16 194.109 80.64C193.629 81.12 193.389 81.76 193.389 82.56V89H191.689V82.22C191.689 81.8867 191.656 81.58 191.589 81.3C191.536 81.02 191.436 80.78 191.289 80.58C191.143 80.3667 190.943 80.2067 190.689 80.1C190.449 79.98 190.136 79.92 189.749 79.92C189.256 79.92 188.829 80.02 188.469 80.22C188.123 80.42 187.836 80.66 187.609 80.94C187.396 81.22 187.236 81.5133 187.129 81.82C187.036 82.1133 186.989 82.36 186.989 82.56V89H185.289V78.66ZM209.12 82.84C209.093 82.44 209 82.06 208.84 81.7C208.693 81.34 208.487 81.0333 208.22 80.78C207.967 80.5133 207.66 80.3067 207.3 80.16C206.953 80 206.567 79.92 206.14 79.92C205.7 79.92 205.3 80 204.94 80.16C204.593 80.3067 204.293 80.5133 204.04 80.78C203.787 81.0467 203.587 81.36 203.44 81.72C203.293 82.0667 203.207 82.44 203.18 82.84H209.12ZM210.76 85.72C210.533 86.88 210.033 87.7533 209.26 88.34C208.487 88.9267 207.513 89.22 206.34 89.22C205.513 89.22 204.793 89.0867 204.18 88.82C203.58 88.5533 203.073 88.18 202.66 87.7C202.247 87.22 201.933 86.6467 201.72 85.98C201.52 85.3133 201.407 84.5867 201.38 83.8C201.38 83.0133 201.5 82.2933 201.74 81.64C201.98 80.9867 202.313 80.42 202.74 79.94C203.18 79.46 203.693 79.0867 204.28 78.82C204.88 78.5533 205.533 78.42 206.24 78.42C207.16 78.42 207.92 78.6133 208.52 79C209.133 79.3733 209.62 79.8533 209.98 80.44C210.353 81.0267 210.607 81.6667 210.74 82.36C210.887 83.0533 210.947 83.7133 210.92 84.34H203.18C203.167 84.7933 203.22 85.2267 203.34 85.64C203.46 86.04 203.653 86.4 203.92 86.72C204.187 87.0267 204.527 87.2733 204.94 87.46C205.353 87.6467 205.84 87.74 206.4 87.74C207.12 87.74 207.707 87.5733 208.16 87.24C208.627 86.9067 208.933 86.4 209.08 85.72H210.76Z" fill="#33DBC6"/>
<g filter="url(#filter1_d_66_16)">
<rect x="32" y="146" width="122" height="22" rx="8" fill="#06332D" shape-rendering="crispEdges"/>
<path d="M39.12 152.004H40.94L44.09 160.404L47.254 152.004H49.074V162H47.814V153.684H47.786L44.664 162H43.53L40.408 153.684H40.38V162H39.12V152.004ZM56.1173 157.688C56.0986 157.408 56.0333 157.142 55.9213 156.89C55.8186 156.638 55.674 156.423 55.4873 156.246C55.31 156.059 55.0953 155.915 54.8433 155.812C54.6006 155.7 54.33 155.644 54.0313 155.644C53.7233 155.644 53.4433 155.7 53.1913 155.812C52.9486 155.915 52.7386 156.059 52.5613 156.246C52.384 156.433 52.244 156.652 52.1413 156.904C52.0386 157.147 51.978 157.408 51.9593 157.688H56.1173ZM57.2653 159.704C57.1066 160.516 56.7566 161.127 56.2153 161.538C55.674 161.949 54.9926 162.154 54.1713 162.154C53.5926 162.154 53.0886 162.061 52.6593 161.874C52.2393 161.687 51.8846 161.426 51.5953 161.09C51.306 160.754 51.0866 160.353 50.9373 159.886C50.7973 159.419 50.718 158.911 50.6993 158.36C50.6993 157.809 50.7833 157.305 50.9513 156.848C51.1193 156.391 51.3526 155.994 51.6513 155.658C51.9593 155.322 52.3186 155.061 52.7293 154.874C53.1493 154.687 53.6066 154.594 54.1013 154.594C54.7453 154.594 55.2773 154.729 55.6973 155C56.1266 155.261 56.4673 155.597 56.7193 156.008C56.9806 156.419 57.158 156.867 57.2513 157.352C57.354 157.837 57.396 158.299 57.3773 158.738H51.9593C51.95 159.055 51.9873 159.359 52.0713 159.648C52.1553 159.928 52.2906 160.18 52.4773 160.404C52.664 160.619 52.902 160.791 53.1913 160.922C53.4806 161.053 53.8213 161.118 54.2133 161.118C54.7173 161.118 55.128 161.001 55.4453 160.768C55.772 160.535 55.9866 160.18 56.0893 159.704H57.2653ZM63.6368 157.688C63.6182 157.408 63.5528 157.142 63.4408 156.89C63.3382 156.638 63.1935 156.423 63.0068 156.246C62.8295 156.059 62.6148 155.915 62.3628 155.812C62.1202 155.7 61.8495 155.644 61.5508 155.644C61.2428 155.644 60.9628 155.7 60.7108 155.812C60.4682 155.915 60.2582 156.059 60.0808 156.246C59.9035 156.433 59.7635 156.652 59.6608 156.904C59.5582 157.147 59.4975 157.408 59.4788 157.688H63.6368ZM64.7848 159.704C64.6262 160.516 64.2762 161.127 63.7348 161.538C63.1935 161.949 62.5122 162.154 61.6908 162.154C61.1122 162.154 60.6082 162.061 60.1788 161.874C59.7588 161.687 59.4042 161.426 59.1148 161.09C58.8255 160.754 58.6062 160.353 58.4568 159.886C58.3168 159.419 58.2375 158.911 58.2188 158.36C58.2188 157.809 58.3028 157.305 58.4708 156.848C58.6388 156.391 58.8722 155.994 59.1708 155.658C59.4788 155.322 59.8382 155.061 60.2488 154.874C60.6688 154.687 61.1262 154.594 61.6208 154.594C62.2648 154.594 62.7968 154.729 63.2168 155C63.6462 155.261 63.9868 155.597 64.2388 156.008C64.5002 156.419 64.6775 156.867 64.7708 157.352C64.8735 157.837 64.9155 158.299 64.8968 158.738H59.4788C59.4695 159.055 59.5068 159.359 59.5908 159.648C59.6748 159.928 59.8102 160.18 59.9968 160.404C60.1835 160.619 60.4215 160.791 60.7108 160.922C61.0002 161.053 61.3408 161.118 61.7328 161.118C62.2368 161.118 62.6475 161.001 62.9648 160.768C63.2915 160.535 63.5062 160.18 63.6088 159.704H64.7848ZM67.7824 154.762H69.2244V155.812H67.7824V160.306C67.7824 160.446 67.7917 160.558 67.8104 160.642C67.8384 160.726 67.885 160.791 67.9504 160.838C68.0157 160.885 68.1044 160.917 68.2164 160.936C68.3377 160.945 68.4917 160.95 68.6784 160.95H69.2244V162H68.3144C68.0064 162 67.7404 161.981 67.5164 161.944C67.3017 161.897 67.1244 161.818 66.9844 161.706C66.8537 161.594 66.7557 161.435 66.6904 161.23C66.625 161.025 66.5924 160.754 66.5924 160.418V155.812H65.3604V154.762H66.5924V152.592H67.7824V154.762ZM71.8064 153.46H70.6164V152.004H71.8064V153.46ZM70.6164 154.762H71.8064V162H70.6164V154.762ZM73.6499 154.762H74.7699V155.91H74.7979C75.2926 155.033 76.0766 154.594 77.1499 154.594C77.6259 154.594 78.0226 154.659 78.3399 154.79C78.6572 154.921 78.9139 155.103 79.1099 155.336C79.3059 155.569 79.4412 155.849 79.5159 156.176C79.5999 156.493 79.6419 156.848 79.6419 157.24V162H78.4519V157.1C78.4519 156.652 78.3212 156.297 78.0599 156.036C77.7986 155.775 77.4392 155.644 76.9819 155.644C76.6179 155.644 76.3006 155.7 76.0299 155.812C75.7686 155.924 75.5492 156.083 75.3719 156.288C75.1946 156.493 75.0592 156.736 74.9659 157.016C74.8819 157.287 74.8399 157.585 74.8399 157.912V162H73.6499V154.762ZM87.6732 161.384C87.6732 162.569 87.4025 163.456 86.8612 164.044C86.3199 164.632 85.4705 164.926 84.3132 164.926C83.9772 164.926 83.6319 164.889 83.2772 164.814C82.9319 164.739 82.6145 164.618 82.3252 164.45C82.0452 164.282 81.8119 164.063 81.6252 163.792C81.4385 163.521 81.3359 163.19 81.3172 162.798H82.5072C82.5165 163.013 82.5819 163.195 82.7032 163.344C82.8339 163.493 82.9879 163.615 83.1652 163.708C83.3519 163.801 83.5525 163.867 83.7672 163.904C83.9819 163.951 84.1872 163.974 84.3832 163.974C84.7752 163.974 85.1065 163.904 85.3772 163.764C85.6479 163.633 85.8719 163.447 86.0492 163.204C86.2265 162.971 86.3525 162.686 86.4272 162.35C86.5112 162.014 86.5532 161.645 86.5532 161.244V160.768H86.5252C86.3199 161.216 86.0072 161.547 85.5872 161.762C85.1765 161.967 84.7379 162.07 84.2712 162.07C83.7299 162.07 83.2585 161.972 82.8572 161.776C82.4559 161.58 82.1199 161.319 81.8492 160.992C81.5785 160.656 81.3732 160.269 81.2332 159.83C81.1025 159.382 81.0372 158.911 81.0372 158.416C81.0372 157.987 81.0932 157.548 81.2052 157.1C81.3172 156.643 81.5039 156.232 81.7652 155.868C82.0265 155.495 82.3719 155.191 82.8012 154.958C83.2305 154.715 83.7579 154.594 84.3832 154.594C84.8405 154.594 85.2605 154.697 85.6432 154.902C86.0259 155.098 86.3245 155.397 86.5392 155.798H86.5532V154.762H87.6732V161.384ZM84.3412 161.034C84.7332 161.034 85.0645 160.955 85.3352 160.796C85.6152 160.628 85.8392 160.413 86.0072 160.152C86.1752 159.881 86.2965 159.578 86.3712 159.242C86.4552 158.906 86.4972 158.57 86.4972 158.234C86.4972 157.917 86.4599 157.604 86.3852 157.296C86.3105 156.988 86.1892 156.713 86.0212 156.47C85.8625 156.218 85.6525 156.017 85.3912 155.868C85.1299 155.719 84.8125 155.644 84.4392 155.644C84.0565 155.644 83.7299 155.719 83.4592 155.868C83.1885 156.008 82.9645 156.199 82.7872 156.442C82.6192 156.685 82.4932 156.965 82.4092 157.282C82.3345 157.599 82.2972 157.931 82.2972 158.276C82.2972 158.603 82.3299 158.929 82.3952 159.256C82.4605 159.583 82.5725 159.881 82.7312 160.152C82.8899 160.413 83.0999 160.628 83.3612 160.796C83.6225 160.955 83.9492 161.034 84.3412 161.034ZM93.5608 152.004H94.8908V156.302H100.155V152.004H101.485V162H100.155V157.422H94.8908V162H93.5608V152.004ZM108.494 157.688C108.476 157.408 108.41 157.142 108.298 156.89C108.196 156.638 108.051 156.423 107.864 156.246C107.687 156.059 107.472 155.915 107.22 155.812C106.978 155.7 106.707 155.644 106.408 155.644C106.1 155.644 105.82 155.7 105.568 155.812C105.326 155.915 105.116 156.059 104.938 156.246C104.761 156.433 104.621 156.652 104.518 156.904C104.416 157.147 104.355 157.408 104.336 157.688H108.494ZM109.642 159.704C109.484 160.516 109.134 161.127 108.592 161.538C108.051 161.949 107.37 162.154 106.548 162.154C105.97 162.154 105.466 162.061 105.036 161.874C104.616 161.687 104.262 161.426 103.972 161.09C103.683 160.754 103.464 160.353 103.314 159.886C103.174 159.419 103.095 158.911 103.076 158.36C103.076 157.809 103.16 157.305 103.328 156.848C103.496 156.391 103.73 155.994 104.028 155.658C104.336 155.322 104.696 155.061 105.106 154.874C105.526 154.687 105.984 154.594 106.478 154.594C107.122 154.594 107.654 154.729 108.074 155C108.504 155.261 108.844 155.597 109.096 156.008C109.358 156.419 109.535 156.867 109.628 157.352C109.731 157.837 109.773 158.299 109.754 158.738H104.336C104.327 159.055 104.364 159.359 104.448 159.648C104.532 159.928 104.668 160.18 104.854 160.404C105.041 160.619 105.279 160.791 105.568 160.922C105.858 161.053 106.198 161.118 106.59 161.118C107.094 161.118 107.505 161.001 107.822 160.768C108.149 160.535 108.364 160.18 108.466 159.704H109.642ZM117.4 161.972C117.194 162.093 116.91 162.154 116.546 162.154C116.238 162.154 115.99 162.07 115.804 161.902C115.626 161.725 115.538 161.44 115.538 161.048C115.211 161.44 114.828 161.725 114.39 161.902C113.96 162.07 113.494 162.154 112.99 162.154C112.663 162.154 112.35 162.117 112.052 162.042C111.762 161.967 111.51 161.851 111.296 161.692C111.081 161.533 110.908 161.328 110.778 161.076C110.656 160.815 110.596 160.502 110.596 160.138C110.596 159.727 110.666 159.391 110.806 159.13C110.946 158.869 111.128 158.659 111.352 158.5C111.585 158.332 111.846 158.206 112.136 158.122C112.434 158.038 112.738 157.968 113.046 157.912C113.372 157.847 113.68 157.8 113.97 157.772C114.268 157.735 114.53 157.688 114.754 157.632C114.978 157.567 115.155 157.478 115.286 157.366C115.416 157.245 115.482 157.072 115.482 156.848C115.482 156.587 115.43 156.377 115.328 156.218C115.234 156.059 115.108 155.938 114.95 155.854C114.8 155.77 114.628 155.714 114.432 155.686C114.245 155.658 114.058 155.644 113.872 155.644C113.368 155.644 112.948 155.742 112.612 155.938C112.276 156.125 112.094 156.484 112.066 157.016H110.876C110.894 156.568 110.988 156.19 111.156 155.882C111.324 155.574 111.548 155.327 111.828 155.14C112.108 154.944 112.425 154.804 112.78 154.72C113.144 154.636 113.531 154.594 113.942 154.594C114.268 154.594 114.59 154.617 114.908 154.664C115.234 154.711 115.528 154.809 115.79 154.958C116.051 155.098 116.261 155.299 116.42 155.56C116.578 155.821 116.658 156.162 116.658 156.582V160.306C116.658 160.586 116.672 160.791 116.7 160.922C116.737 161.053 116.849 161.118 117.036 161.118C117.138 161.118 117.26 161.095 117.4 161.048V161.972ZM115.468 158.262C115.318 158.374 115.122 158.458 114.88 158.514C114.637 158.561 114.38 158.603 114.11 158.64C113.848 158.668 113.582 158.705 113.312 158.752C113.041 158.789 112.798 158.855 112.584 158.948C112.369 159.041 112.192 159.177 112.052 159.354C111.921 159.522 111.856 159.755 111.856 160.054C111.856 160.25 111.893 160.418 111.968 160.558C112.052 160.689 112.154 160.796 112.276 160.88C112.406 160.964 112.556 161.025 112.724 161.062C112.892 161.099 113.069 161.118 113.256 161.118C113.648 161.118 113.984 161.067 114.264 160.964C114.544 160.852 114.772 160.717 114.95 160.558C115.127 160.39 115.258 160.213 115.342 160.026C115.426 159.83 115.468 159.648 115.468 159.48V158.262ZM119.375 158.444C119.375 158.78 119.417 159.111 119.501 159.438C119.595 159.755 119.73 160.04 119.907 160.292C120.094 160.544 120.327 160.745 120.607 160.894C120.897 161.043 121.233 161.118 121.615 161.118C122.017 161.118 122.357 161.039 122.637 160.88C122.917 160.721 123.146 160.516 123.323 160.264C123.501 160.003 123.627 159.709 123.701 159.382C123.785 159.055 123.827 158.724 123.827 158.388C123.827 158.033 123.785 157.693 123.701 157.366C123.617 157.03 123.482 156.736 123.295 156.484C123.118 156.232 122.885 156.031 122.595 155.882C122.306 155.723 121.956 155.644 121.545 155.644C121.144 155.644 120.803 155.723 120.523 155.882C120.243 156.041 120.019 156.251 119.851 156.512C119.683 156.773 119.562 157.072 119.487 157.408C119.413 157.744 119.375 158.089 119.375 158.444ZM124.975 162H123.785V161.02H123.757C123.561 161.421 123.253 161.711 122.833 161.888C122.413 162.065 121.951 162.154 121.447 162.154C120.887 162.154 120.397 162.051 119.977 161.846C119.567 161.641 119.221 161.365 118.941 161.02C118.671 160.675 118.465 160.273 118.325 159.816C118.185 159.359 118.115 158.873 118.115 158.36C118.115 157.847 118.181 157.361 118.311 156.904C118.451 156.447 118.657 156.05 118.927 155.714C119.207 155.369 119.553 155.098 119.963 154.902C120.383 154.697 120.869 154.594 121.419 154.594C121.606 154.594 121.807 154.613 122.021 154.65C122.236 154.687 122.451 154.753 122.665 154.846C122.88 154.93 123.081 155.047 123.267 155.196C123.463 155.336 123.627 155.513 123.757 155.728H123.785V152.004H124.975V162ZM126.876 152.004H128.066V162H126.876V152.004ZM131.17 153.46H129.98V152.004H131.17V153.46ZM129.98 154.762H131.17V162H129.98V154.762ZM133.013 154.762H134.133V155.91H134.161C134.656 155.033 135.44 154.594 136.513 154.594C136.989 154.594 137.386 154.659 137.703 154.79C138.021 154.921 138.277 155.103 138.473 155.336C138.669 155.569 138.805 155.849 138.879 156.176C138.963 156.493 139.005 156.848 139.005 157.24V162H137.815V157.1C137.815 156.652 137.685 156.297 137.423 156.036C137.162 155.775 136.803 155.644 136.345 155.644C135.981 155.644 135.664 155.7 135.393 155.812C135.132 155.924 134.913 156.083 134.735 156.288C134.558 156.493 134.423 156.736 134.329 157.016C134.245 157.287 134.203 157.585 134.203 157.912V162H133.013V154.762ZM145.818 157.688C145.8 157.408 145.734 157.142 145.622 156.89C145.52 156.638 145.375 156.423 145.188 156.246C145.011 156.059 144.796 155.915 144.544 155.812C144.302 155.7 144.031 155.644 143.732 155.644C143.424 155.644 143.144 155.7 142.892 155.812C142.65 155.915 142.44 156.059 142.262 156.246C142.085 156.433 141.945 156.652 141.842 156.904C141.74 157.147 141.679 157.408 141.66 157.688H145.818ZM146.966 159.704C146.808 160.516 146.458 161.127 145.916 161.538C145.375 161.949 144.694 162.154 143.872 162.154C143.294 162.154 142.79 162.061 142.36 161.874C141.94 161.687 141.586 161.426 141.296 161.09C141.007 160.754 140.788 160.353 140.638 159.886C140.498 159.419 140.419 158.911 140.4 158.36C140.4 157.809 140.484 157.305 140.652 156.848C140.82 156.391 141.054 155.994 141.352 155.658C141.66 155.322 142.02 155.061 142.43 154.874C142.85 154.687 143.308 154.594 143.802 154.594C144.446 154.594 144.978 154.729 145.398 155C145.828 155.261 146.168 155.597 146.42 156.008C146.682 156.419 146.859 156.867 146.952 157.352C147.055 157.837 147.097 158.299 147.078 158.738H141.66C141.651 159.055 141.688 159.359 141.772 159.648C141.856 159.928 141.992 160.18 142.178 160.404C142.365 160.619 142.603 160.791 142.892 160.922C143.182 161.053 143.522 161.118 143.914 161.118C144.418 161.118 144.829 161.001 145.146 160.768C145.473 160.535 145.688 160.18 145.79 159.704H146.966Z" fill="#33DBC6"/>
</g>
</g>
<path d="M28.12 250.014C27.9707 249.305 27.6393 248.773 27.126 248.418C26.622 248.063 26.02 247.886 25.32 247.886C24.7227 247.886 24.2093 247.998 23.78 248.222C23.36 248.446 23.01 248.749 22.73 249.132C22.4593 249.505 22.2587 249.935 22.128 250.42C21.9973 250.905 21.932 251.409 21.932 251.932C21.932 252.501 21.9973 253.043 22.128 253.556C22.2587 254.06 22.4593 254.503 22.73 254.886C23.01 255.259 23.3647 255.558 23.794 255.782C24.2233 256.006 24.7367 256.118 25.334 256.118C25.7727 256.118 26.16 256.048 26.496 255.908C26.8413 255.759 27.1353 255.558 27.378 255.306C27.63 255.045 27.826 254.737 27.966 254.382C28.106 254.027 28.19 253.645 28.218 253.234H29.548C29.4173 254.494 28.9833 255.474 28.246 256.174C27.5087 256.874 26.5007 257.224 25.222 257.224C24.4473 257.224 23.7707 257.093 23.192 256.832C22.6133 256.561 22.1327 256.193 21.75 255.726C21.3673 255.259 21.078 254.709 20.882 254.074C20.6953 253.439 20.602 252.758 20.602 252.03C20.602 251.302 20.7047 250.621 20.91 249.986C21.1153 249.342 21.414 248.782 21.806 248.306C22.2073 247.83 22.702 247.457 23.29 247.186C23.8873 246.906 24.5687 246.766 25.334 246.766C25.8567 246.766 26.3513 246.836 26.818 246.976C27.2847 247.116 27.7 247.321 28.064 247.592C28.428 247.863 28.7313 248.203 28.974 248.614C29.2167 249.015 29.3753 249.482 29.45 250.014H28.12ZM30.9995 247.004H32.1895V250.826H32.2175C32.3108 250.602 32.4415 250.415 32.6095 250.266C32.7775 250.107 32.9642 249.981 33.1695 249.888C33.3842 249.785 33.6035 249.711 33.8275 249.664C34.0608 249.617 34.2848 249.594 34.4995 249.594C34.9755 249.594 35.3722 249.659 35.6895 249.79C36.0068 249.921 36.2635 250.103 36.4595 250.336C36.6555 250.569 36.7908 250.849 36.8655 251.176C36.9495 251.493 36.9915 251.848 36.9915 252.24V257H35.8015V252.1C35.8015 251.652 35.6708 251.297 35.4095 251.036C35.1482 250.775 34.7888 250.644 34.3315 250.644C33.9675 250.644 33.6502 250.7 33.3795 250.812C33.1182 250.924 32.8988 251.083 32.7215 251.288C32.5442 251.493 32.4088 251.736 32.3155 252.016C32.2315 252.287 32.1895 252.585 32.1895 252.912V257H30.9995V247.004ZM45.1908 256.972C44.9855 257.093 44.7008 257.154 44.3368 257.154C44.0288 257.154 43.7815 257.07 43.5948 256.902C43.4175 256.725 43.3288 256.44 43.3288 256.048C43.0021 256.44 42.6195 256.725 42.1808 256.902C41.7515 257.07 41.2848 257.154 40.7808 257.154C40.4541 257.154 40.1415 257.117 39.8428 257.042C39.5535 256.967 39.3015 256.851 39.0868 256.692C38.8721 256.533 38.6995 256.328 38.5688 256.076C38.4475 255.815 38.3868 255.502 38.3868 255.138C38.3868 254.727 38.4568 254.391 38.5968 254.13C38.7368 253.869 38.9188 253.659 39.1428 253.5C39.3761 253.332 39.6375 253.206 39.9268 253.122C40.2255 253.038 40.5288 252.968 40.8368 252.912C41.1635 252.847 41.4715 252.8 41.7608 252.772C42.0595 252.735 42.3208 252.688 42.5448 252.632C42.7688 252.567 42.9461 252.478 43.0768 252.366C43.2075 252.245 43.2728 252.072 43.2728 251.848C43.2728 251.587 43.2215 251.377 43.1188 251.218C43.0255 251.059 42.8995 250.938 42.7408 250.854C42.5915 250.77 42.4188 250.714 42.2228 250.686C42.0361 250.658 41.8495 250.644 41.6628 250.644C41.1588 250.644 40.7388 250.742 40.4028 250.938C40.0668 251.125 39.8848 251.484 39.8568 252.016H38.6668C38.6855 251.568 38.7788 251.19 38.9468 250.882C39.1148 250.574 39.3388 250.327 39.6188 250.14C39.8988 249.944 40.2161 249.804 40.5708 249.72C40.9348 249.636 41.3221 249.594 41.7328 249.594C42.0595 249.594 42.3815 249.617 42.6988 249.664C43.0255 249.711 43.3195 249.809 43.5808 249.958C43.8421 250.098 44.0521 250.299 44.2108 250.56C44.3695 250.821 44.4488 251.162 44.4488 251.582V255.306C44.4488 255.586 44.4628 255.791 44.4908 255.922C44.5281 256.053 44.6401 256.118 44.8268 256.118C44.9295 256.118 45.0508 256.095 45.1908 256.048V256.972ZM43.2588 253.262C43.1095 253.374 42.9135 253.458 42.6708 253.514C42.4281 253.561 42.1715 253.603 41.9008 253.64C41.6395 253.668 41.3735 253.705 41.1028 253.752C40.8321 253.789 40.5895 253.855 40.3748 253.948C40.1601 254.041 39.9828 254.177 39.8428 254.354C39.7121 254.522 39.6468 254.755 39.6468 255.054C39.6468 255.25 39.6841 255.418 39.7588 255.558C39.8428 255.689 39.9455 255.796 40.0668 255.88C40.1975 255.964 40.3468 256.025 40.5148 256.062C40.6828 256.099 40.8601 256.118 41.0468 256.118C41.4388 256.118 41.7748 256.067 42.0548 255.964C42.3348 255.852 42.5635 255.717 42.7408 255.558C42.9181 255.39 43.0488 255.213 43.1328 255.026C43.2168 254.83 43.2588 254.648 43.2588 254.48V253.262ZM46.2983 249.762H47.4183V250.91H47.4463C47.941 250.033 48.725 249.594 49.7983 249.594C50.2743 249.594 50.671 249.659 50.9883 249.79C51.3057 249.921 51.5623 250.103 51.7583 250.336C51.9543 250.569 52.0897 250.849 52.1643 251.176C52.2483 251.493 52.2903 251.848 52.2903 252.24V257H51.1003V252.1C51.1003 251.652 50.9697 251.297 50.7083 251.036C50.447 250.775 50.0877 250.644 49.6303 250.644C49.2663 250.644 48.949 250.7 48.6783 250.812C48.417 250.924 48.1977 251.083 48.0203 251.288C47.843 251.493 47.7077 251.736 47.6143 252.016C47.5303 252.287 47.4883 252.585 47.4883 252.912V257H46.2983V249.762ZM54.0776 249.762H55.1976V250.91H55.2256C55.7203 250.033 56.5043 249.594 57.5776 249.594C58.0536 249.594 58.4503 249.659 58.7676 249.79C59.085 249.921 59.3416 250.103 59.5376 250.336C59.7336 250.569 59.869 250.849 59.9436 251.176C60.0276 251.493 60.0696 251.848 60.0696 252.24V257H58.8796V252.1C58.8796 251.652 58.749 251.297 58.4876 251.036C58.2263 250.775 57.867 250.644 57.4096 250.644C57.0456 250.644 56.7283 250.7 56.4576 250.812C56.1963 250.924 55.977 251.083 55.7996 251.288C55.6223 251.493 55.487 251.736 55.3936 252.016C55.3096 252.287 55.2676 252.585 55.2676 252.912V257H54.0776V249.762ZM66.8829 252.688C66.8643 252.408 66.7989 252.142 66.6869 251.89C66.5843 251.638 66.4396 251.423 66.2529 251.246C66.0756 251.059 65.8609 250.915 65.6089 250.812C65.3663 250.7 65.0956 250.644 64.7969 250.644C64.4889 250.644 64.2089 250.7 63.9569 250.812C63.7143 250.915 63.5043 251.059 63.3269 251.246C63.1496 251.433 63.0096 251.652 62.9069 251.904C62.8043 252.147 62.7436 252.408 62.7249 252.688H66.8829ZM68.0309 254.704C67.8723 255.516 67.5223 256.127 66.9809 256.538C66.4396 256.949 65.7583 257.154 64.9369 257.154C64.3583 257.154 63.8543 257.061 63.4249 256.874C63.0049 256.687 62.6503 256.426 62.3609 256.09C62.0716 255.754 61.8523 255.353 61.7029 254.886C61.5629 254.419 61.4836 253.911 61.4649 253.36C61.4649 252.809 61.5489 252.305 61.7169 251.848C61.8849 251.391 62.1183 250.994 62.4169 250.658C62.7249 250.322 63.0843 250.061 63.4949 249.874C63.9149 249.687 64.3723 249.594 64.8669 249.594C65.5109 249.594 66.0429 249.729 66.4629 250C66.8923 250.261 67.2329 250.597 67.4849 251.008C67.7463 251.419 67.9236 251.867 68.0169 252.352C68.1196 252.837 68.1616 253.299 68.1429 253.738H62.7249C62.7156 254.055 62.7529 254.359 62.8369 254.648C62.9209 254.928 63.0563 255.18 63.2429 255.404C63.4296 255.619 63.6676 255.791 63.9569 255.922C64.2463 256.053 64.5869 256.118 64.9789 256.118C65.4829 256.118 65.8936 256.001 66.2109 255.768C66.5376 255.535 66.7523 255.18 66.8549 254.704H68.0309ZM69.4465 247.004H70.6365V257H69.4465V247.004ZM76.5585 247.004H77.9725L83.2365 255.11H83.2645V247.004H84.5245V257H83.0685L77.8465 248.978H77.8185V257H76.5585V247.004ZM92.892 256.972C92.6867 257.093 92.402 257.154 92.038 257.154C91.73 257.154 91.4827 257.07 91.296 256.902C91.1187 256.725 91.03 256.44 91.03 256.048C90.7033 256.44 90.3207 256.725 89.882 256.902C89.4527 257.07 88.986 257.154 88.482 257.154C88.1553 257.154 87.8427 257.117 87.544 257.042C87.2547 256.967 87.0027 256.851 86.788 256.692C86.5733 256.533 86.4007 256.328 86.27 256.076C86.1487 255.815 86.088 255.502 86.088 255.138C86.088 254.727 86.158 254.391 86.298 254.13C86.438 253.869 86.62 253.659 86.844 253.5C87.0773 253.332 87.3387 253.206 87.628 253.122C87.9267 253.038 88.23 252.968 88.538 252.912C88.8647 252.847 89.1727 252.8 89.462 252.772C89.7607 252.735 90.022 252.688 90.246 252.632C90.47 252.567 90.6473 252.478 90.778 252.366C90.9087 252.245 90.974 252.072 90.974 251.848C90.974 251.587 90.9227 251.377 90.82 251.218C90.7267 251.059 90.6007 250.938 90.442 250.854C90.2927 250.77 90.12 250.714 89.924 250.686C89.7373 250.658 89.5507 250.644 89.364 250.644C88.86 250.644 88.44 250.742 88.104 250.938C87.768 251.125 87.586 251.484 87.558 252.016H86.368C86.3867 251.568 86.48 251.19 86.648 250.882C86.816 250.574 87.04 250.327 87.32 250.14C87.6 249.944 87.9173 249.804 88.272 249.72C88.636 249.636 89.0233 249.594 89.434 249.594C89.7607 249.594 90.0827 249.617 90.4 249.664C90.7267 249.711 91.0207 249.809 91.282 249.958C91.5433 250.098 91.7533 250.299 91.912 250.56C92.0707 250.821 92.15 251.162 92.15 251.582V255.306C92.15 255.586 92.164 255.791 92.192 255.922C92.2293 256.053 92.3413 256.118 92.528 256.118C92.6307 256.118 92.752 256.095 92.892 256.048V256.972ZM90.96 253.262C90.8107 253.374 90.6147 253.458 90.372 253.514C90.1293 253.561 89.8727 253.603 89.602 253.64C89.3407 253.668 89.0747 253.705 88.804 253.752C88.5333 253.789 88.2907 253.855 88.076 253.948C87.8613 254.041 87.684 254.177 87.544 254.354C87.4133 254.522 87.348 254.755 87.348 255.054C87.348 255.25 87.3853 255.418 87.46 255.558C87.544 255.689 87.6467 255.796 87.768 255.88C87.8987 255.964 88.048 256.025 88.216 256.062C88.384 256.099 88.5613 256.118 88.748 256.118C89.14 256.118 89.476 256.067 89.756 255.964C90.036 255.852 90.2647 255.717 90.442 255.558C90.6193 255.39 90.75 255.213 90.834 255.026C90.918 254.83 90.96 254.648 90.96 254.48V253.262ZM93.9995 249.762H95.1195V250.826H95.1475C95.6888 250.005 96.4682 249.594 97.4855 249.594C97.9335 249.594 98.3395 249.687 98.7035 249.874C99.0675 250.061 99.3242 250.378 99.4735 250.826C99.7162 250.434 100.034 250.131 100.426 249.916C100.827 249.701 101.266 249.594 101.742 249.594C102.106 249.594 102.432 249.636 102.722 249.72C103.02 249.795 103.272 249.916 103.478 250.084C103.692 250.252 103.856 250.471 103.968 250.742C104.089 251.003 104.15 251.321 104.15 251.694V257H102.96V252.254C102.96 252.03 102.941 251.82 102.904 251.624C102.866 251.428 102.796 251.26 102.694 251.12C102.591 250.971 102.446 250.854 102.26 250.77C102.082 250.686 101.849 250.644 101.56 250.644C100.972 250.644 100.51 250.812 100.174 251.148C99.8375 251.484 99.6695 251.932 99.6695 252.492V257H98.4795V252.254C98.4795 252.021 98.4562 251.806 98.4095 251.61C98.3722 251.414 98.3022 251.246 98.1995 251.106C98.0968 250.957 97.9568 250.845 97.7795 250.77C97.6115 250.686 97.3922 250.644 97.1215 250.644C96.7762 250.644 96.4775 250.714 96.2255 250.854C95.9828 250.994 95.7822 251.162 95.6235 251.358C95.4742 251.554 95.3622 251.759 95.2875 251.974C95.2222 252.179 95.1895 252.352 95.1895 252.492V257H93.9995V249.762ZM110.961 252.688C110.942 252.408 110.877 252.142 110.765 251.89C110.662 251.638 110.518 251.423 110.331 251.246C110.154 251.059 109.939 250.915 109.687 250.812C109.444 250.7 109.174 250.644 108.875 250.644C108.567 250.644 108.287 250.7 108.035 250.812C107.792 250.915 107.582 251.059 107.405 251.246C107.228 251.433 107.088 251.652 106.985 251.904C106.882 252.147 106.822 252.408 106.803 252.688H110.961ZM112.109 254.704C111.95 255.516 111.6 256.127 111.059 256.538C110.518 256.949 109.836 257.154 109.015 257.154C108.436 257.154 107.932 257.061 107.503 256.874C107.083 256.687 106.728 256.426 106.439 256.09C106.15 255.754 105.93 255.353 105.781 254.886C105.641 254.419 105.562 253.911 105.543 253.36C105.543 252.809 105.627 252.305 105.795 251.848C105.963 251.391 106.196 250.994 106.495 250.658C106.803 250.322 107.162 250.061 107.573 249.874C107.993 249.687 108.45 249.594 108.945 249.594C109.589 249.594 110.121 249.729 110.541 250C110.97 250.261 111.311 250.597 111.563 251.008C111.824 251.419 112.002 251.867 112.095 252.352C112.198 252.837 112.24 253.299 112.221 253.738H106.803C106.794 254.055 106.831 254.359 106.915 254.648C106.999 254.928 107.134 255.18 107.321 255.404C107.508 255.619 107.746 255.791 108.035 255.922C108.324 256.053 108.665 256.118 109.057 256.118C109.561 256.118 109.972 256.001 110.289 255.768C110.616 255.535 110.83 255.18 110.933 254.704H112.109Z" fill="#757575"/>
<g filter="url(#filter2_i_66_16)">
<rect x="20" y="268" width="276" height="36" rx="12" fill="#151515"/>
<rect x="20.5" y="268.5" width="275" height="35" rx="11.5" stroke="#1F1F1F"/>
<path d="M38.174 288.508C38.174 288.844 38.1227 289.175 38.02 289.502C37.9267 289.829 37.7633 290.123 37.53 290.384C37.306 290.636 37.0027 290.841 36.62 291C36.2467 291.149 35.78 291.224 35.22 291.224C34.2867 291.224 33.568 290.981 33.064 290.496C32.56 290.001 32.308 289.278 32.308 288.326V287.71H33.638V288.13C33.638 288.419 33.6613 288.685 33.708 288.928C33.7547 289.171 33.834 289.381 33.946 289.558C34.0673 289.735 34.2307 289.875 34.436 289.978C34.6507 290.071 34.9213 290.118 35.248 290.118C35.8547 290.118 36.27 289.955 36.494 289.628C36.7273 289.301 36.844 288.863 36.844 288.312V281.004H38.174V288.508ZM41.0238 287.388C41.0238 287.827 41.0798 288.219 41.1918 288.564C41.3131 288.9 41.4764 289.185 41.6818 289.418C41.8871 289.642 42.1251 289.815 42.3958 289.936C42.6758 290.057 42.9698 290.118 43.2778 290.118C43.5858 290.118 43.8751 290.057 44.1458 289.936C44.4258 289.815 44.6684 289.642 44.8738 289.418C45.0791 289.185 45.2378 288.9 45.3498 288.564C45.4711 288.219 45.5318 287.827 45.5318 287.388C45.5318 286.949 45.4711 286.562 45.3498 286.226C45.2378 285.881 45.0791 285.591 44.8738 285.358C44.6684 285.125 44.4258 284.947 44.1458 284.826C43.8751 284.705 43.5858 284.644 43.2778 284.644C42.9698 284.644 42.6758 284.705 42.3958 284.826C42.1251 284.947 41.8871 285.125 41.6818 285.358C41.4764 285.591 41.3131 285.881 41.1918 286.226C41.0798 286.562 41.0238 286.949 41.0238 287.388ZM39.7638 287.388C39.7638 286.856 39.8384 286.361 39.9878 285.904C40.1371 285.437 40.3611 285.036 40.6598 284.7C40.9584 284.355 41.3271 284.084 41.7658 283.888C42.2044 283.692 42.7084 283.594 43.2778 283.594C43.8564 283.594 44.3604 283.692 44.7898 283.888C45.2284 284.084 45.5971 284.355 45.8958 284.7C46.1944 285.036 46.4184 285.437 46.5678 285.904C46.7171 286.361 46.7918 286.856 46.7918 287.388C46.7918 287.92 46.7171 288.415 46.5678 288.872C46.4184 289.329 46.1944 289.731 45.8958 290.076C45.5971 290.412 45.2284 290.678 44.7898 290.874C44.3604 291.061 43.8564 291.154 43.2778 291.154C42.7084 291.154 42.2044 291.061 41.7658 290.874C41.3271 290.678 40.9584 290.412 40.6598 290.076C40.3611 289.731 40.1371 289.329 39.9878 288.872C39.8384 288.415 39.7638 287.92 39.7638 287.388ZM49.4548 282.46H48.2648V281.004H49.4548V282.46ZM48.2648 283.762H49.4548V291H48.2648V283.762ZM51.2983 283.762H52.4183V284.91H52.4463C52.941 284.033 53.725 283.594 54.7983 283.594C55.2743 283.594 55.671 283.659 55.9883 283.79C56.3057 283.921 56.5623 284.103 56.7583 284.336C56.9543 284.569 57.0897 284.849 57.1643 285.176C57.2483 285.493 57.2903 285.848 57.2903 286.24V291H56.1003V286.1C56.1003 285.652 55.9697 285.297 55.7083 285.036C55.447 284.775 55.0877 284.644 54.6303 284.644C54.2663 284.644 53.949 284.7 53.6783 284.812C53.417 284.924 53.1977 285.083 53.0203 285.288C52.843 285.493 52.7077 285.736 52.6143 286.016C52.5303 286.287 52.4883 286.585 52.4883 286.912V291H51.2983V283.762ZM69.3861 290.972C69.1808 291.093 68.8961 291.154 68.5321 291.154C68.2241 291.154 67.9768 291.07 67.7901 290.902C67.6128 290.725 67.5241 290.44 67.5241 290.048C67.1975 290.44 66.8148 290.725 66.3761 290.902C65.9468 291.07 65.4801 291.154 64.9761 291.154C64.6495 291.154 64.3368 291.117 64.0381 291.042C63.7488 290.967 63.4968 290.851 63.2821 290.692C63.0675 290.533 62.8948 290.328 62.7641 290.076C62.6428 289.815 62.5821 289.502 62.5821 289.138C62.5821 288.727 62.6521 288.391 62.7921 288.13C62.9321 287.869 63.1141 287.659 63.3381 287.5C63.5715 287.332 63.8328 287.206 64.1221 287.122C64.4208 287.038 64.7241 286.968 65.0321 286.912C65.3588 286.847 65.6668 286.8 65.9561 286.772C66.2548 286.735 66.5161 286.688 66.7401 286.632C66.9641 286.567 67.1415 286.478 67.2721 286.366C67.4028 286.245 67.4681 286.072 67.4681 285.848C67.4681 285.587 67.4168 285.377 67.3141 285.218C67.2208 285.059 67.0948 284.938 66.9361 284.854C66.7868 284.77 66.6141 284.714 66.4181 284.686C66.2315 284.658 66.0448 284.644 65.8581 284.644C65.3541 284.644 64.9341 284.742 64.5981 284.938C64.2621 285.125 64.0801 285.484 64.0521 286.016H62.8621C62.8808 285.568 62.9741 285.19 63.1421 284.882C63.3101 284.574 63.5341 284.327 63.8141 284.14C64.0941 283.944 64.4115 283.804 64.7661 283.72C65.1301 283.636 65.5175 283.594 65.9281 283.594C66.2548 283.594 66.5768 283.617 66.8941 283.664C67.2208 283.711 67.5148 283.809 67.7761 283.958C68.0375 284.098 68.2475 284.299 68.4061 284.56C68.5648 284.821 68.6441 285.162 68.6441 285.582V289.306C68.6441 289.586 68.6581 289.791 68.6861 289.922C68.7235 290.053 68.8355 290.118 69.0221 290.118C69.1248 290.118 69.2461 290.095 69.3861 290.048V290.972ZM67.4541 287.262C67.3048 287.374 67.1088 287.458 66.8661 287.514C66.6235 287.561 66.3668 287.603 66.0961 287.64C65.8348 287.668 65.5688 287.705 65.2981 287.752C65.0275 287.789 64.7848 287.855 64.5701 287.948C64.3555 288.041 64.1781 288.177 64.0381 288.354C63.9075 288.522 63.8421 288.755 63.8421 289.054C63.8421 289.25 63.8795 289.418 63.9541 289.558C64.0381 289.689 64.1408 289.796 64.2621 289.88C64.3928 289.964 64.5421 290.025 64.7101 290.062C64.8781 290.099 65.0555 290.118 65.2421 290.118C65.6341 290.118 65.9701 290.067 66.2501 289.964C66.5301 289.852 66.7588 289.717 66.9361 289.558C67.1135 289.39 67.2441 289.213 67.3281 289.026C67.4121 288.83 67.4541 288.648 67.4541 288.48V287.262ZM70.4517 283.762H71.5717V285.288H71.5997C71.889 284.7 72.2437 284.266 72.6637 283.986C73.0837 283.706 73.6157 283.575 74.2597 283.594V284.854C73.7837 284.854 73.3777 284.919 73.0417 285.05C72.7057 285.181 72.435 285.372 72.2297 285.624C72.0243 285.876 71.875 286.184 71.7817 286.548C71.6883 286.903 71.6417 287.313 71.6417 287.78V291H70.4517V283.762ZM75.2258 281.004H76.4158V291H75.2258V281.004ZM84.6713 290.972C84.4659 291.093 84.1813 291.154 83.8173 291.154C83.5093 291.154 83.2619 291.07 83.0753 290.902C82.8979 290.725 82.8093 290.44 82.8093 290.048C82.4826 290.44 82.0999 290.725 81.6613 290.902C81.2319 291.07 80.7653 291.154 80.2613 291.154C79.9346 291.154 79.6219 291.117 79.3233 291.042C79.0339 290.967 78.7819 290.851 78.5673 290.692C78.3526 290.533 78.1799 290.328 78.0493 290.076C77.9279 289.815 77.8673 289.502 77.8673 289.138C77.8673 288.727 77.9373 288.391 78.0773 288.13C78.2173 287.869 78.3993 287.659 78.6233 287.5C78.8566 287.332 79.1179 287.206 79.4073 287.122C79.7059 287.038 80.0093 286.968 80.3173 286.912C80.6439 286.847 80.9519 286.8 81.2413 286.772C81.5399 286.735 81.8013 286.688 82.0253 286.632C82.2493 286.567 82.4266 286.478 82.5573 286.366C82.6879 286.245 82.7533 286.072 82.7533 285.848C82.7533 285.587 82.7019 285.377 82.5993 285.218C82.5059 285.059 82.3799 284.938 82.2213 284.854C82.0719 284.77 81.8993 284.714 81.7033 284.686C81.5166 284.658 81.3299 284.644 81.1433 284.644C80.6393 284.644 80.2193 284.742 79.8833 284.938C79.5473 285.125 79.3653 285.484 79.3373 286.016H78.1473C78.1659 285.568 78.2593 285.19 78.4273 284.882C78.5953 284.574 78.8193 284.327 79.0993 284.14C79.3793 283.944 79.6966 283.804 80.0513 283.72C80.4153 283.636 80.8026 283.594 81.2133 283.594C81.5399 283.594 81.8619 283.617 82.1793 283.664C82.5059 283.711 82.7999 283.809 83.0613 283.958C83.3226 284.098 83.5326 284.299 83.6913 284.56C83.8499 284.821 83.9293 285.162 83.9293 285.582V289.306C83.9293 289.586 83.9433 289.791 83.9713 289.922C84.0086 290.053 84.1206 290.118 84.3073 290.118C84.4099 290.118 84.5313 290.095 84.6713 290.048V290.972ZM82.7393 287.262C82.5899 287.374 82.3939 287.458 82.1513 287.514C81.9086 287.561 81.6519 287.603 81.3813 287.64C81.1199 287.668 80.8539 287.705 80.5833 287.752C80.3126 287.789 80.0699 287.855 79.8553 287.948C79.6406 288.041 79.4633 288.177 79.3233 288.354C79.1926 288.522 79.1273 288.755 79.1273 289.054C79.1273 289.25 79.1646 289.418 79.2393 289.558C79.3233 289.689 79.4259 289.796 79.5473 289.88C79.6779 289.964 79.8273 290.025 79.9953 290.062C80.1633 290.099 80.3406 290.118 80.5273 290.118C80.9193 290.118 81.2553 290.067 81.5353 289.964C81.8153 289.852 82.0439 289.717 82.2213 289.558C82.3986 289.39 82.5293 289.213 82.6133 289.026C82.6973 288.83 82.7393 288.648 82.7393 288.48V287.262ZM85.7788 283.762H86.8988V284.91H86.9268C87.4215 284.033 88.2055 283.594 89.2788 283.594C89.7548 283.594 90.1515 283.659 90.4688 283.79C90.7861 283.921 91.0428 284.103 91.2388 284.336C91.4348 284.569 91.5701 284.849 91.6448 285.176C91.7288 285.493 91.7708 285.848 91.7708 286.24V291H90.5808V286.1C90.5808 285.652 90.4501 285.297 90.1888 285.036C89.9275 284.775 89.5681 284.644 89.1108 284.644C88.7468 284.644 88.4295 284.7 88.1588 284.812C87.8975 284.924 87.6781 285.083 87.5008 285.288C87.3235 285.493 87.1881 285.736 87.0948 286.016C87.0108 286.287 86.9688 286.585 86.9688 286.912V291H85.7788V283.762ZM102.369 286.086C102.275 285.629 102.079 285.274 101.781 285.022C101.482 284.77 101.081 284.644 100.577 284.644C100.147 284.644 99.7879 284.723 99.4986 284.882C99.2093 285.041 98.9759 285.251 98.7986 285.512C98.6306 285.773 98.5093 286.077 98.4346 286.422C98.3599 286.758 98.3226 287.108 98.3226 287.472C98.3226 287.808 98.3599 288.135 98.4346 288.452C98.5186 288.769 98.6446 289.054 98.8126 289.306C98.9806 289.549 99.1999 289.745 99.4706 289.894C99.7413 290.043 100.063 290.118 100.437 290.118C101.025 290.118 101.482 289.964 101.809 289.656C102.145 289.348 102.35 288.914 102.425 288.354H103.643C103.512 289.25 103.176 289.941 102.635 290.426C102.103 290.911 101.375 291.154 100.451 291.154C99.8999 291.154 99.4099 291.065 98.9806 290.888C98.5606 290.711 98.2059 290.459 97.9166 290.132C97.6366 289.805 97.4219 289.418 97.2726 288.97C97.1326 288.513 97.0626 288.013 97.0626 287.472C97.0626 286.931 97.1326 286.427 97.2726 285.96C97.4126 285.484 97.6226 285.073 97.9026 284.728C98.1919 284.373 98.5513 284.098 98.9806 283.902C99.4099 283.697 99.9093 283.594 100.479 283.594C100.889 283.594 101.272 283.645 101.627 283.748C101.991 283.841 102.308 283.991 102.579 284.196C102.859 284.401 103.087 284.663 103.265 284.98C103.442 285.288 103.554 285.657 103.601 286.086H102.369ZM104.974 281.004H106.164V284.826H106.192C106.285 284.602 106.416 284.415 106.584 284.266C106.752 284.107 106.939 283.981 107.144 283.888C107.359 283.785 107.578 283.711 107.802 283.664C108.035 283.617 108.259 283.594 108.474 283.594C108.95 283.594 109.347 283.659 109.664 283.79C109.981 283.921 110.238 284.103 110.434 284.336C110.63 284.569 110.765 284.849 110.84 285.176C110.924 285.493 110.966 285.848 110.966 286.24V291H109.776V286.1C109.776 285.652 109.645 285.297 109.384 285.036C109.123 284.775 108.763 284.644 108.306 284.644C107.942 284.644 107.625 284.7 107.354 284.812C107.093 284.924 106.873 285.083 106.696 285.288C106.519 285.493 106.383 285.736 106.29 286.016C106.206 286.287 106.164 286.585 106.164 286.912V291H104.974V281.004ZM119.165 290.972C118.96 291.093 118.675 291.154 118.311 291.154C118.003 291.154 117.756 291.07 117.569 290.902C117.392 290.725 117.303 290.44 117.303 290.048C116.977 290.44 116.594 290.725 116.155 290.902C115.726 291.07 115.259 291.154 114.755 291.154C114.429 291.154 114.116 291.117 113.817 291.042C113.528 290.967 113.276 290.851 113.061 290.692C112.847 290.533 112.674 290.328 112.543 290.076C112.422 289.815 112.361 289.502 112.361 289.138C112.361 288.727 112.431 288.391 112.571 288.13C112.711 287.869 112.893 287.659 113.117 287.5C113.351 287.332 113.612 287.206 113.901 287.122C114.2 287.038 114.503 286.968 114.811 286.912C115.138 286.847 115.446 286.8 115.735 286.772C116.034 286.735 116.295 286.688 116.519 286.632C116.743 286.567 116.921 286.478 117.051 286.366C117.182 286.245 117.247 286.072 117.247 285.848C117.247 285.587 117.196 285.377 117.093 285.218C117 285.059 116.874 284.938 116.715 284.854C116.566 284.77 116.393 284.714 116.197 284.686C116.011 284.658 115.824 284.644 115.637 284.644C115.133 284.644 114.713 284.742 114.377 284.938C114.041 285.125 113.859 285.484 113.831 286.016H112.641C112.66 285.568 112.753 285.19 112.921 284.882C113.089 284.574 113.313 284.327 113.593 284.14C113.873 283.944 114.191 283.804 114.545 283.72C114.909 283.636 115.297 283.594 115.707 283.594C116.034 283.594 116.356 283.617 116.673 283.664C117 283.711 117.294 283.809 117.555 283.958C117.817 284.098 118.027 284.299 118.185 284.56C118.344 284.821 118.423 285.162 118.423 285.582V289.306C118.423 289.586 118.437 289.791 118.465 289.922C118.503 290.053 118.615 290.118 118.801 290.118C118.904 290.118 119.025 290.095 119.165 290.048V290.972ZM117.233 287.262C117.084 287.374 116.888 287.458 116.645 287.514C116.403 287.561 116.146 287.603 115.875 287.64C115.614 287.668 115.348 287.705 115.077 287.752C114.807 287.789 114.564 287.855 114.349 287.948C114.135 288.041 113.957 288.177 113.817 288.354C113.687 288.522 113.621 288.755 113.621 289.054C113.621 289.25 113.659 289.418 113.733 289.558C113.817 289.689 113.92 289.796 114.041 289.88C114.172 289.964 114.321 290.025 114.489 290.062C114.657 290.099 114.835 290.118 115.021 290.118C115.413 290.118 115.749 290.067 116.029 289.964C116.309 289.852 116.538 289.717 116.715 289.558C116.893 289.39 117.023 289.213 117.107 289.026C117.191 288.83 117.233 288.648 117.233 288.48V287.262ZM120.273 283.762H121.393V284.91H121.421C121.916 284.033 122.7 283.594 123.773 283.594C124.249 283.594 124.646 283.659 124.963 283.79C125.28 283.921 125.537 284.103 125.733 284.336C125.929 284.569 126.064 284.849 126.139 285.176C126.223 285.493 126.265 285.848 126.265 286.24V291H125.075V286.1C125.075 285.652 124.944 285.297 124.683 285.036C124.422 284.775 124.062 284.644 123.605 284.644C123.241 284.644 122.924 284.7 122.653 284.812C122.392 284.924 122.172 285.083 121.995 285.288C121.818 285.493 121.682 285.736 121.589 286.016C121.505 286.287 121.463 286.585 121.463 286.912V291H120.273V283.762ZM128.052 283.762H129.172V284.91H129.2C129.695 284.033 130.479 283.594 131.552 283.594C132.028 283.594 132.425 283.659 132.742 283.79C133.06 283.921 133.316 284.103 133.512 284.336C133.708 284.569 133.844 284.849 133.918 285.176C134.002 285.493 134.044 285.848 134.044 286.24V291H132.854V286.1C132.854 285.652 132.724 285.297 132.462 285.036C132.201 284.775 131.842 284.644 131.384 284.644C131.02 284.644 130.703 284.7 130.432 284.812C130.171 284.924 129.952 285.083 129.774 285.288C129.597 285.493 129.462 285.736 129.368 286.016C129.284 286.287 129.242 286.585 129.242 286.912V291H128.052V283.762ZM140.858 286.688C140.839 286.408 140.774 286.142 140.662 285.89C140.559 285.638 140.414 285.423 140.228 285.246C140.05 285.059 139.836 284.915 139.584 284.812C139.341 284.7 139.07 284.644 138.772 284.644C138.464 284.644 138.184 284.7 137.932 284.812C137.689 284.915 137.479 285.059 137.302 285.246C137.124 285.433 136.984 285.652 136.882 285.904C136.779 286.147 136.718 286.408 136.7 286.688H140.858ZM142.006 288.704C141.847 289.516 141.497 290.127 140.956 290.538C140.414 290.949 139.733 291.154 138.912 291.154C138.333 291.154 137.829 291.061 137.4 290.874C136.98 290.687 136.625 290.426 136.336 290.09C136.046 289.754 135.827 289.353 135.678 288.886C135.538 288.419 135.458 287.911 135.44 287.36C135.44 286.809 135.524 286.305 135.692 285.848C135.86 285.391 136.093 284.994 136.392 284.658C136.7 284.322 137.059 284.061 137.47 283.874C137.89 283.687 138.347 283.594 138.842 283.594C139.486 283.594 140.018 283.729 140.438 284C140.867 284.261 141.208 284.597 141.46 285.008C141.721 285.419 141.898 285.867 141.992 286.352C142.094 286.837 142.136 287.299 142.118 287.738H136.7C136.69 288.055 136.728 288.359 136.812 288.648C136.896 288.928 137.031 289.18 137.218 289.404C137.404 289.619 137.642 289.791 137.932 289.922C138.221 290.053 138.562 290.118 138.954 290.118C139.458 290.118 139.868 290.001 140.186 289.768C140.512 289.535 140.727 289.18 140.83 288.704H142.006ZM143.421 281.004H144.611V291H143.421V281.004Z" fill="#757575"/>
</g>
<g filter="url(#filter3_i_66_16)">
<rect x="304" y="268" width="36" height="36" rx="10.2857" fill="#0A453E"/>
<path d="M319.429 291.143L324.572 286L319.429 280.857" stroke="#00FFE1" stroke-width="1.71429" stroke-linecap="round" stroke-linejoin="round"/>
</g>
<defs>
<filter id="filter0_i_66_16" x="20" y="20" width="320" height="160" filterUnits="userSpaceOnUse" color-interpolation-filters="sRGB">
<feFlood flood-opacity="0" result="BackgroundImageFix"/>
<feBlend mode="normal" in="SourceGraphic" in2="BackgroundImageFix" result="shape"/>
<feColorMatrix in="SourceAlpha" type="matrix" values="0 0 0 0 0 0 0 0 0 0 0 0 0 0 0 0 0 0 127 0" result="hardAlpha"/>
<feOffset/>
<feGaussianBlur stdDeviation="6"/>
<feComposite in2="hardAlpha" operator="arithmetic" k2="-1" k3="1"/>
<feColorMatrix type="matrix" values="0 0 0 0 0.2 0 0 0 0 0.858824 0 0 0 0 0.776471 0 0 0 0.25 0"/>
<feBlend mode="normal" in2="shape" result="effect1_innerShadow_66_16"/>
</filter>
<filter id="filter1_d_66_16" x="28" y="146" width="130" height="30" filterUnits="userSpaceOnUse" color-interpolation-filters="sRGB">
<feFlood flood-opacity="0" result="BackgroundImageFix"/>
<feColorMatrix in="SourceAlpha" type="matrix" values="0 0 0 0 0 0 0 0 0 0 0 0 0 0 0 0 0 0 127 0" result="hardAlpha"/>
<feOffset dy="4"/>
<feGaussianBlur stdDeviation="2"/>
<feComposite in2="hardAlpha" operator="out"/>
<feColorMatrix type="matrix" values="0 0 0 0 0.141176 0 0 0 0 0.141176 0 0 0 0 0.141176 0 0 0 0.25 0"/>
<feBlend mode="normal" in2="BackgroundImageFix" result="effect1_dropShadow_66_16"/>
<feBlend mode="normal" in="SourceGraphic" in2="effect1_dropShadow_66_16" result="shape"/>
</filter>
<filter id="filter2_i_66_16" x="20" y="268" width="276" height="36" filterUnits="userSpaceOnUse" color-interpolation-filters="sRGB">
<feFlood flood-opacity="0" result="BackgroundImageFix"/>
<feBlend mode="normal" in="SourceGraphic" in2="BackgroundImageFix" result="shape"/>
<feColorMatrix in="SourceAlpha" type="matrix" values="0 0 0 0 0 0 0 0 0 0 0 0 0 0 0 0 0 0 127 0" result="hardAlpha"/>
<feOffset/>
<feGaussianBlur stdDeviation="10"/>
<feComposite in2="hardAlpha" operator="arithmetic" k2="-1" k3="1"/>
<feColorMatrix type="matrix" values="0 0 0 0 0.141176 0 0 0 0 0.141176 0 0 0 0 0.141176 0 0 0 1 0"/>
<feBlend mode="normal" in2="shape" result="effect1_innerShadow_66_16"/>
</filter>
<filter id="filter3_i_66_16" x="304" y="268" width="36" height="36" filterUnits="userSpaceOnUse" color-interpolation-filters="sRGB">
<feFlood flood-opacity="0" result="BackgroundImageFix"/>
<feBlend mode="normal" in="SourceGraphic" in2="BackgroundImageFix" result="shape"/>
<feColorMatrix in="SourceAlpha" type="matrix" values="0 0 0 0 0 0 0 0 0 0 0 0 0 0 0 0 0 0 127 0" result="hardAlpha"/>
<feOffset/>
<feGaussianBlur stdDeviation="4.15714"/>
<feComposite in2="hardAlpha" operator="arithmetic" k2="-1" k3="1"/>
<feColorMatrix type="matrix" values="0 0 0 0 0.266667 0 0 0 0 0.937255 0 0 0 0 0.85902 0 0 0 0.3 0"/>
<feBlend mode="normal" in2="shape" result="effect1_innerShadow_66_16"/>
</filter>
<radialGradient id="paint0_radial_66_16" cx="0" cy="0" r="1" gradientUnits="userSpaceOnUse" gradientTransform="translate(177 26.5) rotate(88.8804) scale(153.529 307.059)">
<stop stop-color="#002421"/>
<stop offset="1" stop-color="#07615A"/>
</radialGradient>
</defs>
</svg>
