<svg  viewBox="0 0 162 64" fill="none" xmlns="http://www.w3.org/2000/svg">
<g filter="url(#filter0_i_71_5070)">
<rect y="5.47302" width="52.5405" height="52.5405" rx="21.0162" fill="#FDDAD5"/>
<path d="M15.3449 44.1351V18.2215H18.5773V29.4274H32.8002V18.2215H36.0327V44.1351H32.8002V32.3366H18.5773V44.1351H15.3449Z" fill="#F58E7E"/>
</g>
<path d="M61.6308 50L69.5837 12.647H75.1251L67.1722 50H61.6308ZM82.5536 45.8953C83.7509 45.8953 84.8626 45.6644 85.8887 45.2026C86.9149 44.7408 87.7872 44.0995 88.5055 43.2785C89.2409 42.4576 89.7198 41.5169 89.9422 40.4565L90.5835 37.7371L83.8107 38.045C81.9123 38.1305 80.4329 38.541 79.3725 39.2764C78.3292 40.0118 77.8076 40.9952 77.8076 42.2267C77.8076 43.3384 78.2437 44.2277 79.1159 44.8947C80.0053 45.5618 81.1512 45.8953 82.5536 45.8953ZM80.6809 50.4618C79.1416 50.4618 77.7391 50.1368 76.4735 49.4869C75.2079 48.837 74.1988 47.9476 73.4463 46.8188C72.7108 45.69 72.3431 44.3988 72.3431 42.945C72.3431 40.2256 73.3522 38.0963 75.3704 36.557C77.3885 35.0177 80.1849 34.1711 83.7594 34.0172L91.4045 33.6837L91.7636 31.9905C91.8149 31.7682 91.8406 31.5629 91.8406 31.3748C91.8577 31.1867 91.8663 30.9985 91.8663 30.8104C91.8663 29.6303 91.4216 28.6982 90.5322 28.014C89.66 27.3299 88.42 26.9879 86.8123 26.9879C85.7348 26.9879 84.7941 27.1418 83.9903 27.4496C83.1865 27.7575 82.5365 28.1851 82.0406 28.7324C81.5446 29.2626 81.194 29.9039 80.9887 30.6565H75.4986C75.8065 28.9804 76.4821 27.5181 77.5254 26.2695C78.5857 25.0039 79.9369 24.0205 81.5788 23.3193C83.2378 22.6009 85.1191 22.2418 87.2228 22.2418C89.258 22.2418 91.0282 22.5753 92.5333 23.2423C94.0554 23.9093 95.2355 24.8329 96.0736 26.013C96.9288 27.1931 97.3563 28.5699 97.3563 30.1434C97.3563 30.5367 97.3307 30.9301 97.2794 31.3235C97.2452 31.7168 97.2024 32.076 97.1511 32.401L93.4055 50H88.1207L88.8134 46.6649H88.6594C88.0779 47.4345 87.3767 48.1101 86.5558 48.6916C85.7348 49.256 84.8283 49.6921 83.8364 50C82.8615 50.3079 81.8097 50.4618 80.6809 50.4618ZM112.994 50.4618C111.609 50.4618 110.318 50.2138 109.12 49.7178C107.94 49.2047 106.923 48.512 106.068 47.6398C105.23 46.7675 104.657 45.767 104.349 44.6382H104.143L103.015 50H97.7555L105.708 12.647H111.173L108.146 26.8596C108.18 26.8596 108.205 26.8596 108.223 26.8596C108.257 26.8596 108.291 26.8596 108.325 26.8596C109.129 25.4913 110.266 24.3967 111.737 23.5758C113.225 22.7378 114.841 22.3187 116.586 22.3187C118.57 22.3187 120.297 22.772 121.768 23.6784C123.256 24.5849 124.411 25.8847 125.232 27.5779C126.052 29.2711 126.463 31.2978 126.463 33.658C126.463 35.8814 126.147 38.0022 125.514 40.0204C124.881 42.0385 123.974 43.8344 122.794 45.4078C121.614 46.9642 120.195 48.1956 118.536 49.1021C116.877 50.0086 115.03 50.4618 112.994 50.4618ZM112.404 45.5105C113.653 45.5105 114.799 45.2197 115.842 44.6382C116.885 44.0567 117.783 43.2529 118.536 42.2267C119.288 41.1834 119.861 39.9776 120.255 38.6094C120.665 37.2411 120.87 35.7788 120.87 34.2224C120.87 32.0162 120.332 30.2887 119.254 29.0402C118.194 27.7917 116.697 27.1674 114.764 27.1674C113.482 27.1674 112.302 27.4667 111.224 28.0653C110.147 28.664 109.215 29.4935 108.428 30.5538C107.641 31.6142 107.025 32.8371 106.581 34.2224C106.153 35.6078 105.939 37.0872 105.939 38.6607C105.939 40.6959 106.529 42.3464 107.709 43.612C108.907 44.8776 110.472 45.5105 112.404 45.5105ZM130.223 30.6308C130.223 28.9889 130.659 27.5437 131.531 26.2952C132.421 25.0296 133.652 24.0461 135.226 23.3449C136.816 22.6266 138.655 22.2674 140.741 22.2674C142.777 22.2674 144.564 22.6266 146.103 23.3449C147.659 24.0461 148.882 25.0296 149.772 26.2952C150.661 27.5437 151.131 28.9889 151.183 30.6308H146.026C145.958 29.8441 145.684 29.1514 145.205 28.5528C144.726 27.9542 144.093 27.4924 143.307 27.1674C142.537 26.8254 141.665 26.6543 140.69 26.6543C139.647 26.6543 138.74 26.7997 137.971 27.0905C137.218 27.3812 136.628 27.7917 136.2 28.3219C135.79 28.835 135.585 29.4336 135.585 30.1177C135.585 30.9216 135.893 31.5886 136.508 32.1188C137.141 32.649 138.219 33.1535 139.741 33.6324L142.511 34.556C144.94 35.3256 146.685 36.2834 147.745 37.4293C148.805 38.5581 149.336 40.0289 149.336 41.8418C149.336 43.5179 148.857 45.0145 147.899 46.3314C146.958 47.6312 145.658 48.6574 143.999 49.4099C142.358 50.1625 140.459 50.5387 138.304 50.5387C136.098 50.5387 134.165 50.171 132.506 49.4356C130.847 48.6831 129.539 47.6654 128.581 46.3827C127.623 45.0829 127.119 43.6035 127.067 41.9445H132.455C132.66 43.1588 133.284 44.1593 134.328 44.9461C135.388 45.7328 136.782 46.1262 138.509 46.1262C139.536 46.1262 140.451 45.9637 141.254 45.6387C142.058 45.2967 142.682 44.8434 143.127 44.279C143.589 43.6975 143.82 43.0476 143.82 42.3293C143.82 41.5768 143.546 40.9696 142.999 40.5078C142.452 40.0289 141.408 39.55 139.869 39.0712L137.15 38.1989C134.738 37.4122 132.976 36.4202 131.865 35.223C130.77 34.0258 130.223 32.495 130.223 30.6308Z" fill="#F58E7E"/>
<defs>
<filter id="filter0_i_71_5070" x="0" y="5.47302" width="52.5405" height="52.5405" filterUnits="userSpaceOnUse" color-interpolation-filters="sRGB">
<feFlood flood-opacity="0" result="BackgroundImageFix"/>
<feBlend mode="normal" in="SourceGraphic" in2="BackgroundImageFix" result="shape"/>
<feColorMatrix in="SourceAlpha" type="matrix" values="0 0 0 0 0 0 0 0 0 0 0 0 0 0 0 0 0 0 127 0" result="hardAlpha"/>
<feOffset/>
<feGaussianBlur stdDeviation="5.25405"/>
<feComposite in2="hardAlpha" operator="arithmetic" k2="-1" k3="1"/>
<feColorMatrix type="matrix" values="0 0 0 0 0.99165 0 0 0 0 0.647287 0 0 0 0 0.578414 0 0 0 1 0"/>
<feBlend mode="normal" in2="shape" result="effect1_innerShadow_71_5070"/>
</filter>
</defs>
</svg>
