<svg viewBox="0 0 580 579" fill="none" xmlns="http://www.w3.org/2000/svg">
<g clip-path="url(#clip0_354_221)">
<rect width="579.466" height="579" fill="white"/>
<path d="M260.118 314.319C251.271 316.829 245.466 321.232 241.643 325.63C245.305 322.426 250.211 319.484 256.827 317.608C263.596 315.69 269.37 315.704 274.142 316.625V312.894C270.071 312.522 265.405 312.818 260.118 314.319ZM241.238 282.955L208.382 291.611C208.382 291.611 208.98 292.458 210.089 293.586L237.948 286.245C237.948 286.245 237.553 291.332 234.124 295.882C240.61 290.976 241.238 282.955 241.238 282.955ZM268.742 360.177C222.503 372.631 198.04 319.043 190.634 291.23C187.212 278.391 185.718 268.668 185.32 262.393C185.282 261.825 185.29 261.256 185.343 260.689C182.945 260.833 181.796 262.08 182.03 265.684C182.428 271.955 183.922 281.678 187.344 294.52C194.747 322.33 219.213 375.917 265.452 363.463C275.516 360.752 283.077 355.813 288.754 349.509C283.522 354.234 276.974 357.955 268.742 360.177ZM277.43 250.158V253.45H295.566C295.195 252.284 294.82 251.234 294.448 250.158H277.43Z" fill="white"/>
<path d="M299.623 277.266C307.779 279.583 312.093 285.302 314.373 290.363L323.468 292.946C323.468 292.946 322.228 275.233 306.207 270.683C291.219 266.424 281.997 279.01 280.875 280.639C285.235 277.533 291.601 274.99 299.623 277.266ZM372.016 290.444C357.015 286.167 347.796 298.779 346.691 300.385C351.054 297.282 357.417 294.738 365.435 297.025C373.579 299.345 377.889 305.057 380.176 310.121L389.283 312.713C389.283 312.713 388.023 294.998 372.016 290.444ZM362.981 337.145L287.327 315.995C287.327 315.995 288.147 320.147 291.289 325.524L354.986 343.331C360.229 340.297 362.981 337.145 362.981 337.145ZM310.53 382.67C250.627 366.609 257.869 290.284 267.562 254.116C271.553 239.211 275.656 228.133 279.059 220.706C277.029 220.288 275.347 221.358 273.686 224.737C270.072 232.064 265.452 243.995 260.982 260.696C251.292 296.864 244.05 373.187 303.95 389.248C332.184 396.812 354.179 385.316 370.575 367.261C355.013 381.357 335.141 389.261 310.53 382.67Z" fill="white"/>
<path d="M277.435 342.295V326.892L234.642 339.027C234.642 339.027 237.804 320.654 260.122 314.323C266.89 312.405 272.665 312.418 277.435 313.339V250.163H298.862C296.529 242.954 294.272 237.403 292.376 233.547C289.241 227.163 286.026 231.395 278.729 237.499C273.589 241.793 260.6 250.954 241.052 256.22C221.505 261.492 205.701 260.094 199.107 258.952C189.759 257.339 184.87 255.285 185.328 262.397C185.726 268.668 187.219 278.392 190.642 291.234C198.044 319.044 222.511 372.63 268.75 360.177C280.828 356.922 289.353 350.489 295.262 342.29H277.435V342.294V342.295ZM208.383 291.616L241.242 282.96C241.242 282.96 240.285 295.601 227.967 298.848C215.644 302.092 208.383 291.616 208.383 291.616Z" fill="url(#paint0_linear_354_221)"/>
<path d="M401.099 250.884C392.557 252.381 372.065 254.247 346.74 247.459C321.408 240.674 304.601 228.809 297.942 223.232C288.502 215.326 284.35 209.83 280.263 218.142C276.651 225.473 272.03 237.403 267.559 254.106C257.87 290.273 250.627 366.596 310.527 382.657C370.414 398.704 402.297 328.98 411.987 292.81C416.458 276.111 418.419 263.467 418.958 255.313C419.574 246.077 413.229 248.758 401.099 250.884ZM280.75 280.807C280.75 280.807 290.19 266.125 306.2 270.676C322.221 275.226 323.461 292.938 323.461 292.938L280.75 280.807ZM319.832 346.69C291.671 338.441 287.328 315.984 287.328 315.984L362.978 337.135C362.978 337.131 347.708 354.836 319.832 346.689V346.69ZM346.578 300.539C346.578 300.539 356.006 285.868 372.013 290.431C388.02 294.989 389.28 312.7 389.28 312.7L346.579 300.539H346.578Z" fill="url(#paint1_linear_354_221)"/>
<path d="M262.478 331.126L234.64 339.016C234.64 339.016 237.664 321.788 258.172 314.961L242.409 255.8L241.047 256.214C221.499 261.485 205.696 260.087 199.103 258.945C189.755 257.333 184.865 255.279 185.323 262.391C185.721 268.662 187.215 278.385 190.637 291.227C198.04 319.037 222.507 372.624 268.745 360.17L270.107 359.742L262.479 331.125L262.478 331.126ZM208.38 291.608L241.24 282.951C241.24 282.951 240.283 295.592 227.964 298.84C215.642 302.084 208.38 291.608 208.38 291.608Z" fill="url(#paint2_linear_354_221)"/>
<path d="M321.103 347L319.829 346.69C291.667 338.441 287.324 315.984 287.324 315.984L326.334 326.888L346.987 247.525L346.737 247.46C321.405 240.675 304.599 228.809 297.938 223.231C288.499 215.325 284.346 209.83 280.26 218.142C276.651 225.473 272.03 237.404 267.559 254.106C257.87 290.274 250.627 366.596 310.527 382.656L311.755 382.934L321.103 347ZM280.75 280.806C280.75 280.806 290.19 266.124 306.2 270.675C322.221 275.226 323.461 292.937 323.461 292.937L280.75 280.806Z" fill="url(#paint3_linear_354_221)"/>
<path d="M263.895 330.721L256.429 332.84C258.194 342.783 261.303 352.326 266.181 360.755C267.031 360.568 267.874 360.407 268.739 360.17C271.006 359.559 273.108 358.801 275.132 357.975C269.679 349.883 266.072 340.566 263.895 330.721ZM260.98 260.689C257.144 275.009 253.711 295.62 254.656 316.293C256.347 315.559 258.134 314.875 260.119 314.312L261.5 314.003C259.815 291.92 263.457 269.419 267.56 254.109C268.533 250.477 269.574 246.865 270.683 243.273C268.876 244.428 267.031 245.524 265.152 246.557C263.639 251.231 262.248 255.943 260.98 260.689Z" fill="url(#paint4_linear_354_221)"/>
<g filter="url(#filter0_f_354_221)">
<rect width="225.036" height="224.863" rx="112.432" transform="matrix(0.98817 -0.15336 0.153601 0.988133 -160.298 212.511)" fill="url(#paint5_linear_354_221)"/>
<rect x="7.13447" y="5.21616" width="212.538" height="212.366" rx="106.183" transform="matrix(0.98817 -0.15336 0.153601 0.988133 -161.015 213.668)" stroke="white" stroke-opacity="0.2" stroke-width="12.4972"/>
<path d="M42.2817 294.843C35.9235 253.94 -2.41932 225.935 -43.355 232.288C-84.2967 238.642 -112.326 276.948 -105.967 317.851C-99.6083 358.76 -61.2705 386.772 -20.3348 380.419C20.6069 374.065 48.6408 335.752 42.2817 294.843Z" fill="#22C55E"/>
<path d="M-28.6785 307.155C-27.5404 273.212 -23.9719 266.806 -10.1443 265.743C0.673962 264.909 15.4951 278.396 9.45492 313.437C3.64075 347.212 -19.3056 356.613 -38.2243 349.044C-51.9375 343.551 -64.3365 329.015 -69.4601 320.725C-77.5313 307.703 -82.9975 292.953 -76.5251 283.434C-71.2254 275.633 -64.4313 271.218 -48.2219 284.728C-32.0135 298.233 -28.6785 307.155 -28.6785 307.155Z" fill="white"/>
</g>
<rect x="472.43" y="114.964" width="189.306" height="189.154" rx="94.5768" fill="url(#paint6_linear_354_221)"/>
<rect x="477.687" y="120.221" width="178.793" height="178.641" rx="89.3204" stroke="white" stroke-opacity="0.2" stroke-width="10.5128"/>
<path d="M567.086 272.591C602.001 272.591 630.186 244.429 630.186 209.542C630.186 174.655 602.001 146.493 567.086 146.493C532.171 146.493 503.986 174.655 503.986 209.542C503.566 244.429 532.171 272.591 567.086 272.591Z" fill="#F87171"/>
<mask id="mask0_354_221" style="mask-type:luminance" maskUnits="userSpaceOnUse" x="503" y="146" width="128" height="127">
<path d="M567.085 272.589C602 272.589 630.185 244.427 630.185 209.54C630.185 174.653 602 146.491 567.085 146.491C532.17 146.491 503.985 174.653 503.985 209.54C503.565 244.427 532.17 272.589 567.085 272.589Z" fill="white"/>
</mask>
<g mask="url(#mask0_354_221)">
<path d="M535.956 180.957L480.428 253.674L495.152 270.487L536.377 215.845L532.17 245.688L555.307 253.674L583.491 208.699C582.229 217.106 580.126 236.441 598.635 242.325C627.661 251.152 652.901 199.032 664.679 172.551L647.853 163.724C634.812 191.045 614.62 221.309 606.628 219.207C598.635 217.106 605.786 191.466 610.414 175.073V174.653L584.753 165.826L554.045 215.845L558.251 188.523L535.956 180.957Z" fill="white"/>
</g>
<g filter="url(#filter1_i_354_221)">
<g clip-path="url(#clip1_354_221)">
<path d="M276 50.9571C276 40.4874 284.487 32 294.957 32H1584.04C1594.51 32 1603 40.4874 1603 50.9571V88.8714C1603 99.3412 1594.51 107.829 1584.04 107.829H294.957C284.487 107.829 276 99.3412 276 88.8714V50.9571Z" fill="url(#paint7_linear_354_221)"/>
<mask id="path-19-inside-1_354_221" fill="white">
<path d="M276 50.9571C276 40.4874 284.487 32 294.957 32H1584.04C1594.51 32 1603 40.4874 1603 50.9571V107.829H276V50.9571Z"/>
</mask>
<path d="M276 50.9571C276 40.4874 284.487 32 294.957 32H1584.04C1594.51 32 1603 40.4874 1603 50.9571V107.829H276V50.9571Z" fill="white"/>
<path d="M274.104 50.9571C274.104 39.4404 283.44 30.1043 294.957 30.1043H1584.04C1595.56 30.1043 1604.9 39.4404 1604.9 50.9571L1601.1 50.9571C1601.1 41.5344 1593.47 33.8957 1584.04 33.8957H294.957C285.534 33.8957 277.896 41.5344 277.896 50.9571L274.104 50.9571ZM1603 107.829H276H1603ZM274.104 107.829V50.9571C274.104 39.4404 283.44 30.1043 294.957 30.1043L294.957 33.8957C285.534 33.8957 277.896 41.5344 277.896 50.9571V107.829H274.104ZM1584.04 30.1043C1595.56 30.1043 1604.9 39.4404 1604.9 50.9571V107.829H1601.1V50.9571C1601.1 41.5344 1593.47 33.8957 1584.04 33.8957L1584.04 30.1043Z" fill="#F5F5F5" mask="url(#path-19-inside-1_354_221)"/>
<path d="M312.335 80.9725C319.314 80.9725 324.973 75.3142 324.973 68.3344C324.973 61.3546 319.314 55.6963 312.335 55.6963C305.355 55.6963 299.696 61.3546 299.696 68.3344C299.696 75.3142 305.355 80.9725 312.335 80.9725Z" stroke="#737373" stroke-width="2.36964" stroke-linecap="round" stroke-linejoin="round"/>
<path d="M328.132 84.1323L321.339 77.3394" stroke="#737373" stroke-width="2.36964" stroke-linecap="round" stroke-linejoin="round"/>
<path d="M353.891 60.6823H367.419V63.1088H356.53V69.9031H365.599V72.3296H356.53V79.4878H367.813V81.9143H353.891V60.6823ZM382.513 67.9618C383.666 69.1144 384.242 70.8737 384.242 73.3002V81.9143H381.755V73.4518C381.755 71.8746 381.391 70.6613 380.663 69.8121C379.935 68.9628 378.904 68.5381 377.569 68.5381C376.113 68.5381 374.961 69.0538 374.142 70.0547C373.292 71.086 372.898 72.4509 372.898 74.1798V81.9143H370.411V66.4453H372.564L372.898 68.5381C374.051 67.0216 375.749 66.2633 377.994 66.2633C379.874 66.2633 381.361 66.8396 382.513 67.9618ZM388.444 68.7201H385.654V66.4453H388.444V62.1079H390.932V66.4453H394.844V68.7201H390.932V77.8499C390.932 78.5172 391.053 78.9722 391.295 79.2451C391.538 79.5181 391.993 79.6394 392.63 79.6394H395.33V81.9143H392.478C391.023 81.9143 389.961 81.611 389.354 80.9437C388.748 80.3067 388.444 79.2755 388.444 77.8802V68.7201ZM397.078 70.0244C397.685 68.8415 398.564 67.9315 399.686 67.2642C400.778 66.5969 402.052 66.2633 403.508 66.2633C404.903 66.2633 406.177 66.5666 407.269 67.1429C408.361 67.7495 409.21 68.5988 409.847 69.6907C410.454 70.813 410.788 72.1173 410.848 73.6035C410.848 73.8461 410.818 74.1798 410.788 74.6651H398.776V74.8774C398.807 76.394 399.262 77.6072 400.172 78.5172C401.051 79.4271 402.204 79.8821 403.66 79.8821C404.752 79.8821 405.692 79.6091 406.481 79.0632C407.269 78.5172 407.785 77.7286 408.058 76.7276H410.575C410.272 78.3049 409.514 79.6091 408.301 80.6101C407.087 81.611 405.601 82.0963 403.842 82.0963C402.295 82.0963 400.96 81.793 399.808 81.1257C398.655 80.4584 397.745 79.5485 397.108 78.3352C396.471 77.1219 396.168 75.757 396.168 74.1798C396.168 72.6026 396.471 71.2376 397.078 70.0244ZM408.27 72.6026C408.149 71.2983 407.633 70.267 406.784 69.5391C405.935 68.8111 404.843 68.4472 403.538 68.4472C402.356 68.4472 401.324 68.8415 400.445 69.5997C399.535 70.3884 399.049 71.3893 398.928 72.6026H408.27ZM421.542 66.4453V68.8718H420.299C418.812 68.8718 417.751 69.3874 417.114 70.358C416.477 71.359 416.174 72.5722 416.174 74.0281V81.9143H413.686V66.4453H415.84L416.174 68.7808C416.598 68.0832 417.175 67.5069 417.903 67.0822C418.6 66.6576 419.571 66.4453 420.845 66.4453H421.542ZM446.435 66.4453V87.9806H443.948V79.4271C442.644 81.2167 440.885 82.0963 438.64 82.0963C437.184 82.0963 435.91 81.793 434.788 81.156C433.666 80.5494 432.786 79.6394 432.149 78.4262C431.512 77.2433 431.209 75.8177 431.209 74.1798C431.209 72.6329 431.512 71.268 432.149 70.0547C432.786 68.8718 433.666 67.9315 434.818 67.2642C435.941 66.5969 437.215 66.2633 438.64 66.2633C439.884 66.2633 440.945 66.5059 441.855 66.9609C442.735 67.4159 443.433 68.0225 443.948 68.8111L444.282 66.4453H446.435ZM441.522 79.1845C442.31 78.6992 442.917 78.0319 443.342 77.1826C443.766 76.3333 443.979 75.3324 443.979 74.2405C443.979 73.1485 443.766 72.1476 443.342 71.268C442.917 70.3884 442.31 69.6907 441.522 69.2054C440.733 68.7201 439.854 68.4775 438.883 68.4775C437.336 68.4775 436.092 69.0234 435.152 70.085C434.212 71.1466 433.757 72.5116 433.757 74.1798C433.757 75.8784 434.212 77.2433 435.152 78.3049C436.092 79.3665 437.336 79.8821 438.883 79.8821C439.854 79.8821 440.733 79.6698 441.522 79.1845ZM463.139 66.4453V81.9143H460.986L460.652 79.8518C459.469 81.3683 457.831 82.0963 455.708 82.0963C453.858 82.0963 452.371 81.5503 451.279 80.3977C450.157 79.2755 449.611 77.4859 449.611 75.0594V66.4453H452.098V74.9077C452.098 76.5153 452.432 77.7286 453.13 78.5778C453.827 79.4271 454.828 79.8214 456.132 79.8214C457.528 79.8214 458.65 79.3361 459.439 78.3049C460.227 77.3039 460.652 75.939 460.652 74.1798V66.4453H463.139ZM466.894 70.0244C467.5 68.8415 468.38 67.9315 469.502 67.2642C470.594 66.5969 471.868 66.2633 473.324 66.2633C474.719 66.2633 475.993 66.5666 477.085 67.1429C478.177 67.7495 479.026 68.5988 479.663 69.6907C480.27 70.813 480.603 72.1173 480.664 73.6035C480.664 73.8461 480.634 74.1798 480.603 74.6651H468.592V74.8774C468.622 76.394 469.077 77.6072 469.987 78.5172C470.867 79.4271 472.02 79.8821 473.475 79.8821C474.567 79.8821 475.508 79.6091 476.296 79.0632C477.085 78.5172 477.6 77.7286 477.873 76.7276H480.391C480.088 78.3049 479.329 79.6091 478.116 80.6101C476.903 81.611 475.417 82.0963 473.657 82.0963C472.111 82.0963 470.776 81.793 469.623 81.1257C468.471 80.4584 467.561 79.5485 466.924 78.3352C466.287 77.1219 465.984 75.757 465.984 74.1798C465.984 72.6026 466.287 71.2376 466.894 70.0244ZM478.086 72.6026C477.964 71.2983 477.449 70.267 476.6 69.5391C475.75 68.8111 474.658 68.4472 473.354 68.4472C472.171 68.4472 471.14 68.8415 470.26 69.5997C469.35 70.3884 468.865 71.3893 468.744 72.6026H478.086ZM491.358 66.4453V68.8718H490.114C488.628 68.8718 487.566 69.3874 486.93 70.358C486.293 71.359 485.989 72.5722 485.989 74.0281V81.9143H483.502V66.4453H485.656L485.989 68.7808C486.414 68.0832 486.99 67.5069 487.718 67.0822C488.416 66.6576 489.386 66.4453 490.66 66.4453H491.358ZM494.872 66.4453L499.634 79.0632L504.245 66.4453H506.884L499.756 84.5228C499.392 85.4631 499.058 86.1607 498.785 86.6157C498.482 87.101 498.148 87.4346 497.724 87.6469C497.299 87.8896 496.723 87.9806 496.025 87.9806H493.052V85.7057H495.267C495.752 85.7057 496.116 85.6754 496.359 85.5541C496.601 85.4631 496.783 85.3114 496.935 85.0688C497.087 84.8261 497.269 84.4318 497.511 83.8858L498.3 82.0356L492.234 66.4453H494.872Z" fill="#D4D4D4"/>
</g>
<path d="M294.957 32.9479H1584.04C1593.99 32.9479 1602.05 41.0109 1602.05 50.9571V88.8714C1602.05 98.8177 1593.99 106.881 1584.04 106.881H294.957C285.011 106.881 276.948 98.8177 276.948 88.8714V50.9571C276.948 41.0109 285.011 32.9479 294.957 32.9479Z" stroke="#F5F5F5" stroke-width="1.89571"/>
</g>
<g filter="url(#filter2_bi_354_221)">
<rect x="276" y="130.577" width="1327" height="68.2457" rx="15.1657" fill="#E5E5E5" fill-opacity="0.5"/>
<rect x="284.531" y="139.108" width="164.724" height="51.1843" rx="10.4264" fill="url(#paint8_linear_354_221)"/>
<rect x="284.531" y="139.108" width="164.724" height="51.1843" rx="10.4264" stroke="url(#paint9_linear_354_221)" stroke-width="1.89571"/>
<path d="M311.746 156.549H314.566L319.435 172.7H317.137L313.156 159.028L309.175 172.7H306.877L311.746 156.549ZM310.244 166.49H316.068L316.796 168.537H309.516L310.244 166.49ZM326.478 159.938C326.478 159.468 326.341 159.104 326.068 158.846C325.81 158.573 325.447 158.437 324.976 158.437H322.156V156.549H325.09C326.273 156.549 327.16 156.852 327.752 157.459C328.358 158.05 328.662 158.93 328.662 160.097V172.7H326.478V159.938ZM321.701 170.812H332.802V172.7H321.701V170.812ZM340.118 159.938C340.118 159.468 339.982 159.104 339.709 158.846C339.451 158.573 339.087 158.437 338.617 158.437H335.796V156.549H338.73C339.913 156.549 340.8 156.852 341.392 157.459C341.999 158.05 342.302 158.93 342.302 160.097V172.7H340.118V159.938ZM335.341 170.812H346.442V172.7H335.341V170.812Z" fill="#262626"/>
<rect x="358.706" y="153.326" width="68.7486" height="22.7486" rx="11.3743" fill="url(#paint10_linear_354_221)"/>
<path d="M370.952 171.7C370.952 170.651 371.097 169.735 371.388 168.951C371.691 168.168 372.203 167.441 372.924 166.771C373.644 166.089 374.642 165.406 375.919 164.724C376.576 164.383 377.075 164.086 377.416 163.833C377.77 163.568 378.029 163.29 378.194 162.999C378.358 162.708 378.44 162.354 378.44 161.937C378.44 161.293 378.238 160.781 377.834 160.402C377.429 160.01 376.854 159.814 376.108 159.814C375.262 159.814 374.586 160.042 374.08 160.497C373.587 160.951 373.278 161.615 373.151 162.487L371.009 162.354C371.148 160.977 371.66 159.896 372.545 159.113C373.429 158.329 374.617 157.937 376.108 157.937C377.031 157.937 377.827 158.102 378.497 158.43C379.167 158.759 379.679 159.226 380.033 159.833C380.386 160.427 380.563 161.116 380.563 161.899C380.563 162.594 380.45 163.188 380.222 163.681C380.007 164.162 379.641 164.617 379.123 165.046C378.617 165.463 377.897 165.925 376.962 166.43C375.849 167.011 374.996 167.599 374.402 168.193C373.808 168.787 373.492 169.312 373.454 169.767H380.582V171.7H370.952ZM387.134 172.004C386.161 172.004 385.308 171.852 384.575 171.549C383.842 171.233 383.267 170.778 382.85 170.184C382.445 169.59 382.243 168.869 382.243 168.023C382.243 167.049 382.534 166.241 383.115 165.596C383.709 164.939 384.518 164.503 385.542 164.288L385.58 164.667C384.733 164.478 384.063 164.13 383.57 163.624C383.077 163.106 382.831 162.443 382.831 161.634C382.831 160.939 383.008 160.313 383.362 159.757C383.728 159.188 384.234 158.746 384.878 158.43C385.535 158.102 386.287 157.937 387.134 157.937C387.981 157.937 388.727 158.102 389.371 158.43C390.028 158.746 390.534 159.188 390.888 159.757C391.254 160.313 391.437 160.939 391.437 161.634C391.437 162.443 391.191 163.1 390.698 163.605C390.218 164.111 389.548 164.465 388.689 164.667L388.727 164.288C389.75 164.503 390.553 164.939 391.134 165.596C391.728 166.241 392.025 167.049 392.025 168.023C392.025 168.869 391.817 169.59 391.399 170.184C390.995 170.778 390.426 171.233 389.693 171.549C388.96 171.852 388.107 172.004 387.134 172.004ZM387.134 170.051C387.956 170.051 388.606 169.861 389.087 169.482C389.58 169.103 389.826 168.541 389.826 167.795C389.826 167.062 389.592 166.493 389.125 166.089C388.657 165.672 387.993 165.463 387.134 165.463C386.275 165.463 385.611 165.672 385.144 166.089C384.676 166.493 384.442 167.062 384.442 167.795C384.442 168.541 384.682 169.103 385.163 169.482C385.655 169.861 386.313 170.051 387.134 170.051ZM387.134 163.605C387.779 163.605 388.29 163.454 388.67 163.151C389.061 162.835 389.257 162.367 389.257 161.748C389.257 161.166 389.061 160.711 388.67 160.383C388.29 160.054 387.779 159.89 387.134 159.89C386.49 159.89 385.971 160.054 385.58 160.383C385.2 160.711 385.011 161.166 385.011 161.748C385.011 162.367 385.207 162.835 385.599 163.151C385.99 163.454 386.502 163.605 387.134 163.605ZM393.686 171.7C393.686 170.651 393.831 169.735 394.122 168.951C394.425 168.168 394.937 167.441 395.657 166.771C396.378 166.089 397.376 165.406 398.653 164.724C399.31 164.383 399.809 164.086 400.15 163.833C400.504 163.568 400.763 163.29 400.927 162.999C401.092 162.708 401.174 162.354 401.174 161.937C401.174 161.293 400.972 160.781 400.567 160.402C400.163 160.01 399.588 159.814 398.842 159.814C397.995 159.814 397.319 160.042 396.814 160.497C396.321 160.951 396.011 161.615 395.885 162.487L393.743 162.354C393.882 160.977 394.394 159.896 395.278 159.113C396.163 158.329 397.351 157.937 398.842 157.937C399.765 157.937 400.561 158.102 401.231 158.43C401.901 158.759 402.412 159.226 402.766 159.833C403.12 160.427 403.297 161.116 403.297 161.899C403.297 162.594 403.183 163.188 402.956 163.681C402.741 164.162 402.375 164.617 401.856 165.046C401.351 165.463 400.631 165.925 399.695 166.43C398.583 167.011 397.73 167.599 397.136 168.193C396.542 168.787 396.226 169.312 396.188 169.767H403.316V171.7H393.686ZM409.83 157.937C411.422 157.937 412.642 158.462 413.489 159.511C414.335 160.56 414.759 162.057 414.759 164.004C414.759 165.571 414.569 166.948 414.19 168.136C413.824 169.324 413.236 170.266 412.427 170.961C411.618 171.656 410.582 172.004 409.318 172.004C408.143 172.004 407.201 171.713 406.493 171.131C405.786 170.537 405.293 169.729 405.015 168.705L407.138 168.515C407.302 169.021 407.555 169.406 407.896 169.672C408.25 169.937 408.724 170.07 409.318 170.07C409.975 170.07 410.55 169.874 411.043 169.482C411.536 169.09 411.915 168.496 412.181 167.7C412.459 166.904 412.604 165.925 412.617 164.762L413.072 164.838C412.844 165.533 412.402 166.127 411.745 166.62C411.1 167.1 410.323 167.34 409.413 167.34C408.528 167.34 407.751 167.144 407.081 166.752C406.411 166.361 405.893 165.811 405.527 165.103C405.16 164.395 404.977 163.593 404.977 162.696C404.977 161.722 405.179 160.876 405.584 160.155C405.988 159.435 406.557 158.885 407.29 158.506C408.023 158.127 408.869 157.937 409.83 157.937ZM409.83 159.871C409.008 159.871 408.358 160.117 407.877 160.61C407.41 161.103 407.176 161.798 407.176 162.696C407.176 163.555 407.397 164.231 407.839 164.724C408.282 165.217 408.895 165.463 409.678 165.463C410.234 165.463 410.727 165.35 411.157 165.122C411.587 164.895 411.922 164.579 412.162 164.174C412.402 163.757 412.522 163.264 412.522 162.696C412.522 162.152 412.408 161.672 412.181 161.255C411.966 160.825 411.65 160.49 411.233 160.25C410.828 159.997 410.361 159.871 409.83 159.871Z" fill="#A3A3A3"/>
<rect x="465.369" y="138.16" width="213.877" height="53.08" rx="11.3743" fill="url(#paint11_linear_354_221)"/>
<path d="M503.767 175.759C509.875 175.759 514.826 170.808 514.826 164.7C514.826 158.593 509.875 153.642 503.767 153.642C497.66 153.642 492.709 158.593 492.709 164.7C492.709 170.808 497.66 175.759 503.767 175.759Z" stroke="#FCA5A5" stroke-width="2.21167" stroke-linecap="round" stroke-linejoin="round"/>
<path d="M495.916 156.849L511.619 172.551" stroke="#FCA5A5" stroke-width="2.21167" stroke-linecap="round" stroke-linejoin="round"/>
<path d="M529.867 158.276H540.036V160.596H532.483V165.214H538.716V167.466H532.483V174.2H529.867V158.276ZM551.894 172.062V174.2H550.597C549.824 174.2 549.278 174.041 548.959 173.722C548.618 173.404 548.459 172.949 548.459 172.335C547.572 173.677 546.298 174.336 544.614 174.336C543.295 174.336 542.248 174.041 541.475 173.426C540.679 172.835 540.292 171.993 540.292 170.924C540.292 169.741 540.701 168.809 541.566 168.172C542.408 167.535 543.636 167.193 545.274 167.193H548.209V166.488C548.209 165.851 547.981 165.328 547.526 164.964C547.071 164.6 546.434 164.395 545.638 164.395C544.91 164.395 544.318 164.555 543.864 164.873C543.409 165.192 543.136 165.601 543.045 166.101H540.633C540.747 164.941 541.27 164.031 542.18 163.394C543.09 162.757 544.273 162.416 545.752 162.416C547.299 162.416 548.504 162.78 549.369 163.508C550.21 164.236 550.643 165.283 550.643 166.647V171.243C550.643 171.789 550.893 172.062 551.416 172.062H551.894ZM548.209 169.013H545.16C544.387 169.013 543.818 169.173 543.409 169.468C542.999 169.764 542.794 170.196 542.794 170.765C542.794 171.265 542.976 171.675 543.363 171.971C543.75 172.289 544.273 172.426 544.955 172.426C545.956 172.426 546.753 172.153 547.321 171.607C547.89 171.061 548.186 170.333 548.209 169.423V169.013ZM555.53 158.321C555.803 158.594 555.962 158.958 555.962 159.368C555.962 159.8 555.803 160.164 555.53 160.437C555.234 160.71 554.87 160.847 554.46 160.847C554.028 160.847 553.664 160.71 553.391 160.437C553.096 160.164 552.959 159.8 552.959 159.368C552.959 158.958 553.096 158.594 553.391 158.321C553.664 158.048 554.028 157.889 554.46 157.889C554.87 157.889 555.234 158.048 555.53 158.321ZM553.232 162.553H555.689V174.2H553.232V162.553ZM558.097 158.276H560.554V174.2H558.097V158.276ZM563.235 165.26C563.713 164.35 564.373 163.667 565.237 163.167C566.102 162.666 567.08 162.416 568.195 162.416C569.309 162.416 570.287 162.644 571.152 163.099C572.016 163.554 572.676 164.213 573.176 165.032C573.677 165.874 573.927 166.852 573.95 167.967C573.95 168.285 573.927 168.581 573.882 168.9H565.101V169.036C565.146 170.06 565.465 170.856 566.056 171.447C566.625 172.039 567.398 172.335 568.354 172.335C569.104 172.335 569.741 172.175 570.265 171.811C570.765 171.447 571.106 170.947 571.288 170.287H573.745C573.518 171.47 572.949 172.448 572.016 173.199C571.084 173.972 569.923 174.336 568.536 174.336C567.307 174.336 566.261 174.109 565.351 173.608C564.441 173.108 563.759 172.426 563.258 171.516C562.758 170.628 562.53 169.582 562.53 168.399C562.53 167.216 562.758 166.17 563.235 165.26ZM571.448 167.102C571.334 166.261 570.993 165.601 570.424 165.123C569.855 164.646 569.15 164.395 568.286 164.395C567.467 164.395 566.784 164.646 566.193 165.146C565.601 165.646 565.283 166.283 565.192 167.102H571.448ZM587.242 158.276V174.2H585.104L584.808 172.448C583.875 173.722 582.601 174.336 581.009 174.336C579.94 174.336 578.984 174.109 578.166 173.631C577.324 173.154 576.664 172.471 576.209 171.561C575.731 170.651 575.504 169.605 575.504 168.376C575.504 167.193 575.731 166.17 576.209 165.26C576.687 164.35 577.347 163.667 578.188 163.167C579.007 162.666 579.963 162.416 581.009 162.416C581.851 162.416 582.601 162.575 583.238 162.894C583.875 163.212 584.376 163.622 584.785 164.168V158.276H587.242ZM583.875 171.197C584.49 170.492 584.808 169.559 584.808 168.422C584.808 167.262 584.49 166.329 583.875 165.601C583.238 164.873 582.42 164.509 581.419 164.509C580.395 164.509 579.576 164.873 578.962 165.601C578.325 166.329 578.029 167.239 578.029 168.376C578.029 169.536 578.325 170.469 578.962 171.197C579.576 171.925 580.395 172.266 581.419 172.266C582.42 172.266 583.238 171.925 583.875 171.197Z" fill="#FCA5A5"/>
</g>
<g filter="url(#filter3_bi_354_221)">
<rect x="-115.391" y="250.001" width="326.667" height="113.623" rx="28.4058" fill="#F8F8F8" fill-opacity="0.5"/>
<rect x="5.33337" y="264.204" width="85.2174" height="85.2174" rx="28.4058" fill="url(#paint12_linear_354_221)"/>
<path d="M36.9872 321.312C36.9872 319.012 37.3139 316.995 37.9672 315.262C38.649 313.529 39.8136 311.91 41.4611 310.405C43.1371 308.871 45.438 307.323 48.3638 305.76C49.8409 304.965 50.9771 304.269 51.7725 303.672C52.5962 303.076 53.1927 302.451 53.562 301.798C53.9313 301.116 54.1159 300.278 54.1159 299.284C54.1159 297.778 53.633 296.571 52.6672 295.662C51.7014 294.753 50.3096 294.299 48.4916 294.299C46.4748 294.299 44.8698 294.824 43.6768 295.875C42.4838 296.926 41.7452 298.46 41.4611 300.477L37.1577 300.179C37.4701 297.139 38.6064 294.753 40.5664 293.02C42.5548 291.259 45.1823 290.379 48.449 290.379C50.5226 290.379 52.3122 290.748 53.8177 291.486C55.3232 292.225 56.4594 293.262 57.2264 294.597C58.0217 295.932 58.4194 297.466 58.4194 299.199C58.4194 300.761 58.1638 302.096 57.6525 303.204C57.1411 304.312 56.3032 305.348 55.1385 306.314C53.9739 307.252 52.3264 308.288 50.1959 309.425C47.6394 310.788 45.6652 312.18 44.2733 313.6C42.8814 314.992 42.1429 316.242 42.0577 317.35H58.462V321.312H36.9872Z" fill="#FCA5A5"/>
<g filter="url(#filter4_i_354_221)">
<rect x="111.855" y="264.204" width="85.2174" height="85.2174" rx="28.4058" fill="url(#paint13_linear_354_221)"/>
<rect x="113.63" y="265.979" width="81.6667" height="81.6667" rx="26.6304" stroke="#86EFAC" stroke-width="3.55072"/>
<path d="M154.033 321.994C150.795 321.994 148.267 321.213 146.449 319.651C144.631 318.088 143.651 315.986 143.509 313.345L147.812 313.046C147.983 314.751 148.608 316.001 149.687 316.796C150.795 317.591 152.244 317.989 154.033 317.989C155.965 317.989 157.541 317.563 158.763 316.711C159.984 315.859 160.595 314.538 160.595 312.748C160.595 311.527 160.325 310.504 159.785 309.68C159.274 308.857 158.536 308.246 157.57 307.848C156.632 307.45 155.524 307.252 154.246 307.252H151.818V303.332H154.246C155.837 303.332 157.115 302.977 158.081 302.266C159.075 301.556 159.572 300.434 159.572 298.9C159.572 297.423 159.104 296.301 158.166 295.534C157.257 294.767 155.936 294.384 154.204 294.384C152.442 294.384 151.093 294.739 150.156 295.449C149.247 296.131 148.693 297.139 148.494 298.474L144.105 298.176C144.418 295.79 145.44 293.901 147.173 292.509C148.934 291.089 151.278 290.379 154.204 290.379C156.164 290.379 157.882 290.719 159.359 291.401C160.836 292.055 161.973 293.006 162.768 294.256C163.563 295.506 163.961 296.969 163.961 298.645C163.961 300.519 163.379 302.025 162.214 303.161C161.049 304.297 159.331 305.079 157.058 305.505V304.695C159.501 305.008 161.433 305.902 162.853 307.379C164.273 308.828 164.984 310.66 164.984 312.876C164.984 314.779 164.515 316.412 163.578 317.776C162.669 319.139 161.39 320.19 159.743 320.929C158.095 321.639 156.192 321.994 154.033 321.994Z" fill="#22C55E"/>
</g>
</g>
<rect x="-29" y="485" width="158.634" height="71.6481" rx="22.6481" fill="url(#paint14_linear_354_221)"/>
<path d="M-8.20903 506.184H9.54709V510.187H-6.30659L-3.84927 507.769V520.69L-6.30659 518.55H8.83367V522.553H-6.30659L-3.84927 520.452V534.324H-8.20903V506.184ZM15.556 506.184H19.9158V532.739L17.1017 530.321H33.3121V534.324H15.556V506.184ZM44.7509 506.184H50.0619L58.4644 534.324H53.9064L47.4064 511.733L40.9064 534.324H36.3485L44.7509 506.184ZM42.6107 523.781H52.2022L53.5497 527.666H41.2631L42.6107 523.781ZM61.3422 506.184H65.7019V518.114L75.6898 506.184H81.08L71.0129 518.233L81.6349 534.324H76.2446L67.9215 521.284L65.7019 523.861V534.324H61.3422V506.184ZM92.7963 522.949L84.6316 506.184H89.5463L94.9365 517.955L100.327 506.184H105.241L97.156 522.949V534.324H92.7963V522.949Z" fill="#FB923C"/>
<rect x="145.634" y="485" width="301.634" height="71.6481" rx="22.6481" fill="url(#paint15_linear_354_221)"/>
<path d="M165.157 506.184H174.075C177.087 506.184 179.452 506.937 181.169 508.443C182.887 509.949 183.745 512.01 183.745 514.626C183.745 515.947 183.455 517.136 182.873 518.193C182.292 519.223 181.513 520.043 180.535 520.65C179.557 521.258 178.487 521.602 177.325 521.681L177.126 521.126C179.214 521.205 180.746 521.654 181.724 522.473C182.702 523.266 183.27 524.574 183.428 526.397L184.102 534.324H179.663L179.029 527.071C178.897 525.75 178.487 524.825 177.8 524.297C177.14 523.742 176.056 523.464 174.55 523.464H169.517V534.324H165.157V506.184ZM173.956 519.422C175.594 519.422 176.862 519.025 177.761 518.233C178.685 517.414 179.148 516.277 179.148 514.824C179.148 513.371 178.685 512.235 177.761 511.416C176.862 510.596 175.594 510.187 173.956 510.187H169.517V519.422H173.956ZM198.276 534.958C195.21 534.958 192.832 534.047 191.141 532.223C189.45 530.4 188.605 527.851 188.605 524.574V506.184H192.965V524.733C192.965 526.741 193.414 528.273 194.312 529.33C195.237 530.387 196.558 530.916 198.276 530.916C199.993 530.916 201.301 530.387 202.199 529.33C203.124 528.273 203.587 526.741 203.587 524.733V506.184H207.946V524.574C207.946 527.851 207.101 530.4 205.41 532.223C203.719 534.047 201.341 534.958 198.276 534.958ZM212.766 506.184H217.998L226.955 526.873V506.184H231.315V534.324H226.083L217.126 513.635V534.324H212.766V506.184ZM243.11 528.934H248.501V534.324H243.11V528.934ZM243.11 514.19H248.501V519.58H243.11V514.19ZM269.888 534.958C267.853 534.958 266.07 534.549 264.537 533.73C263.005 532.91 261.789 531.761 260.891 530.281C260.019 528.802 259.504 527.097 259.345 525.169L263.784 524.852C263.969 526.146 264.326 527.243 264.854 528.141C265.409 529.04 266.109 529.727 266.955 530.202C267.827 530.678 268.831 530.916 269.967 530.916C271.103 530.916 272.068 530.77 272.86 530.48C273.653 530.163 274.247 529.713 274.644 529.132C275.067 528.524 275.278 527.837 275.278 527.071C275.278 526.199 275.08 525.472 274.683 524.891C274.287 524.283 273.587 523.729 272.583 523.227C271.579 522.724 270.152 522.236 268.302 521.76C266.321 521.258 264.722 520.664 263.507 519.977C262.318 519.29 261.419 518.444 260.811 517.44C260.23 516.436 259.94 515.207 259.94 513.754C259.94 512.142 260.323 510.715 261.089 509.473C261.882 508.232 263.005 507.267 264.458 506.58C265.911 505.893 267.602 505.55 269.531 505.55C271.381 505.55 273.006 505.933 274.406 506.699C275.833 507.465 276.969 508.535 277.815 509.909C278.66 511.283 279.189 512.869 279.4 514.666L274.921 514.903C274.763 513.846 274.459 512.922 274.01 512.129C273.561 511.336 272.953 510.715 272.187 510.266C271.42 509.817 270.509 509.592 269.452 509.592C267.919 509.592 266.704 509.962 265.805 510.702C264.907 511.416 264.458 512.367 264.458 513.556C264.458 514.375 264.643 515.049 265.013 515.577C265.383 516.079 265.99 516.528 266.836 516.925C267.681 517.321 268.897 517.717 270.482 518.114C272.755 518.695 274.565 519.382 275.912 520.175C277.26 520.967 278.237 521.932 278.845 523.068C279.479 524.178 279.796 525.552 279.796 527.19C279.796 528.696 279.374 530.044 278.528 531.233C277.709 532.395 276.546 533.307 275.04 533.967C273.561 534.628 271.843 534.958 269.888 534.958ZM293.336 534.958C290.271 534.958 287.893 534.047 286.202 532.223C284.51 530.4 283.665 527.851 283.665 524.574V506.184H288.025V524.733C288.025 526.741 288.474 528.273 289.372 529.33C290.297 530.387 291.618 530.916 293.336 530.916C295.053 530.916 296.361 530.387 297.259 529.33C298.184 528.273 298.647 526.741 298.647 524.733V506.184H303.006V524.574C303.006 527.851 302.161 530.4 300.47 532.223C298.779 534.047 296.401 534.958 293.336 534.958ZM317.259 534.958C314.987 534.958 313.045 534.364 311.433 533.175C309.848 531.986 308.632 530.295 307.787 528.102C306.968 525.908 306.558 523.306 306.558 520.294C306.558 517.255 306.968 514.639 307.787 512.446C308.632 510.227 309.848 508.522 311.433 507.333C313.045 506.144 314.987 505.55 317.259 505.55C319.928 505.55 322.134 506.422 323.878 508.166C325.622 509.883 326.758 512.301 327.287 515.419L322.729 515.656C322.359 513.675 321.698 512.169 320.747 511.138C319.822 510.108 318.66 509.592 317.259 509.592C315.965 509.592 314.855 510.015 313.93 510.861C313.032 511.68 312.345 512.895 311.869 514.507C311.393 516.092 311.156 518.021 311.156 520.294C311.156 522.566 311.393 524.495 311.869 526.08C312.345 527.666 313.032 528.868 313.93 529.687C314.855 530.506 315.965 530.916 317.259 530.916C318.765 530.916 319.994 530.374 320.945 529.291C321.896 528.181 322.544 526.543 322.887 524.376L327.445 524.614C326.943 527.864 325.807 530.4 324.037 532.223C322.266 534.047 320.007 534.958 317.259 534.958ZM341.024 534.958C338.752 534.958 336.81 534.364 335.198 533.175C333.613 531.986 332.397 530.295 331.552 528.102C330.733 525.908 330.323 523.306 330.323 520.294C330.323 517.255 330.733 514.639 331.552 512.446C332.397 510.227 333.613 508.522 335.198 507.333C336.81 506.144 338.752 505.55 341.024 505.55C343.693 505.55 345.899 506.422 347.643 508.166C349.387 509.883 350.523 512.301 351.052 515.419L346.494 515.656C346.124 513.675 345.463 512.169 344.512 511.138C343.587 510.108 342.425 509.592 341.024 509.592C339.73 509.592 338.62 510.015 337.695 510.861C336.797 511.68 336.11 512.895 335.634 514.507C335.158 516.092 334.921 518.021 334.921 520.294C334.921 522.566 335.158 524.495 335.634 526.08C336.11 527.666 336.797 528.868 337.695 529.687C338.62 530.506 339.73 530.916 341.024 530.916C342.53 530.916 343.759 530.374 344.71 529.291C345.662 528.181 346.309 526.543 346.652 524.376L351.21 524.614C350.708 527.864 349.572 530.4 347.802 532.223C346.031 534.047 343.772 534.958 341.024 534.958ZM356.149 506.184H373.588V510.187H360.509V518.153H373.113V522.196H360.509V530.321H373.905V534.324H356.149V506.184ZM388.713 534.958C386.678 534.958 384.895 534.549 383.362 533.73C381.83 532.91 380.614 531.761 379.716 530.281C378.844 528.802 378.329 527.097 378.17 525.169L382.609 524.852C382.794 526.146 383.151 527.243 383.679 528.141C384.234 529.04 384.934 529.727 385.78 530.202C386.652 530.678 387.656 530.916 388.792 530.916C389.928 530.916 390.893 530.77 391.685 530.48C392.478 530.163 393.073 529.713 393.469 529.132C393.892 528.524 394.103 527.837 394.103 527.071C394.103 526.199 393.905 525.472 393.509 524.891C393.112 524.283 392.412 523.729 391.408 523.227C390.404 522.724 388.977 522.236 387.128 521.76C385.146 521.258 383.547 520.664 382.332 519.977C381.143 519.29 380.244 518.444 379.637 517.44C379.055 516.436 378.765 515.207 378.765 513.754C378.765 512.142 379.148 510.715 379.914 509.473C380.707 508.232 381.83 507.267 383.283 506.58C384.736 505.893 386.427 505.55 388.356 505.55C390.206 505.55 391.831 505.933 393.231 506.699C394.658 507.465 395.794 508.535 396.64 509.909C397.485 511.283 398.014 512.869 398.225 514.666L393.746 514.903C393.588 513.846 393.284 512.922 392.835 512.129C392.386 511.336 391.778 510.715 391.012 510.266C390.245 509.817 389.334 509.592 388.277 509.592C386.744 509.592 385.529 509.962 384.631 510.702C383.732 511.416 383.283 512.367 383.283 513.556C383.283 514.375 383.468 515.049 383.838 515.577C384.208 516.079 384.816 516.528 385.661 516.925C386.507 517.321 387.722 517.717 389.307 518.114C391.58 518.695 393.39 519.382 394.737 520.175C396.085 520.967 397.063 521.932 397.67 523.068C398.304 524.178 398.621 525.552 398.621 527.19C398.621 528.696 398.199 530.044 397.353 531.233C396.534 532.395 395.371 533.307 393.865 533.967C392.386 534.628 390.668 534.958 388.713 534.958ZM412.478 534.958C410.443 534.958 408.66 534.549 407.127 533.73C405.595 532.91 404.379 531.761 403.481 530.281C402.609 528.802 402.094 527.097 401.935 525.169L406.374 524.852C406.559 526.146 406.916 527.243 407.444 528.141C407.999 529.04 408.7 529.727 409.545 530.202C410.417 530.678 411.421 530.916 412.557 530.916C413.693 530.916 414.658 530.77 415.451 530.48C416.243 530.163 416.838 529.713 417.234 529.132C417.657 528.524 417.868 527.837 417.868 527.071C417.868 526.199 417.67 525.472 417.274 524.891C416.877 524.283 416.177 523.729 415.173 523.227C414.169 522.724 412.742 522.236 410.893 521.76C408.911 521.258 407.312 520.664 406.097 519.977C404.908 519.29 404.009 518.444 403.402 517.44C402.82 516.436 402.53 515.207 402.53 513.754C402.53 512.142 402.913 510.715 403.679 509.473C404.472 508.232 405.595 507.267 407.048 506.58C408.501 505.893 410.192 505.55 412.121 505.55C413.971 505.55 415.596 505.933 416.996 506.699C418.423 507.465 419.559 508.535 420.405 509.909C421.25 511.283 421.779 512.869 421.99 514.666L417.512 514.903C417.353 513.846 417.049 512.922 416.6 512.129C416.151 511.336 415.543 510.715 414.777 510.266C414.01 509.817 413.099 509.592 412.042 509.592C410.509 509.592 409.294 509.962 408.396 510.702C407.497 511.416 407.048 512.367 407.048 513.556C407.048 514.375 407.233 515.049 407.603 515.577C407.973 516.079 408.581 516.528 409.426 516.925C410.272 517.321 411.487 517.717 413.072 518.114C415.345 518.695 417.155 519.382 418.502 520.175C419.85 520.967 420.828 521.932 421.435 523.068C422.069 524.178 422.387 525.552 422.387 527.19C422.387 528.696 421.964 530.044 421.118 531.233C420.299 532.395 419.137 533.307 417.63 533.967C416.151 534.628 414.433 534.958 412.478 534.958Z" fill="#22C55E"/>
<rect x="463.268" y="485" width="268.917" height="71.6481" rx="22.6481" fill="url(#paint16_linear_354_221)"/>
<path d="M489.691 515.162C492.818 515.162 495.353 512.627 495.353 509.5C495.353 506.373 492.818 503.838 489.691 503.838C486.564 503.838 484.029 506.373 484.029 509.5C484.029 512.627 486.564 515.162 489.691 515.162Z" stroke="#D4D4D4" stroke-width="3.77469" stroke-linecap="round" stroke-linejoin="round"/>
<path d="M489.691 515.162V537.81" stroke="#D4D4D4" stroke-width="3.77469" stroke-linecap="round" stroke-linejoin="round"/>
<path d="M516.114 537.81C519.241 537.81 521.776 535.275 521.776 532.148C521.776 529.021 519.241 526.486 516.114 526.486C512.987 526.486 510.452 529.021 510.452 532.148C510.452 535.275 512.987 537.81 516.114 537.81Z" stroke="#D4D4D4" stroke-width="3.77469" stroke-linecap="round" stroke-linejoin="round"/>
<path d="M508.565 515.162L502.903 509.5L508.565 503.838" stroke="#D4D4D4" stroke-width="3.77469" stroke-linecap="round" stroke-linejoin="round"/>
<path d="M502.903 509.5H512.339C513.34 509.5 514.301 509.898 515.008 510.606C515.716 511.313 516.114 512.274 516.114 513.275V526.486" stroke="#D4D4D4" stroke-width="3.77469" stroke-linecap="round" stroke-linejoin="round"/>
<path d="M545.787 506.184H554.704C556.633 506.184 558.338 506.554 559.817 507.294C561.297 508.007 562.446 509.037 563.265 510.385C564.085 511.706 564.494 513.252 564.494 515.022C564.494 516.819 564.085 518.391 563.265 519.739C562.446 521.06 561.297 522.077 559.817 522.791C558.338 523.504 556.633 523.861 554.704 523.861H550.147V534.324H545.787V506.184ZM554.189 519.818C556.065 519.818 557.479 519.408 558.43 518.589C559.408 517.744 559.897 516.555 559.897 515.022C559.897 513.463 559.408 512.274 558.43 511.455C557.479 510.61 556.065 510.187 554.189 510.187H550.147V519.818H554.189ZM568.838 506.184H577.756C580.768 506.184 583.133 506.937 584.851 508.443C586.568 509.949 587.427 512.01 587.427 514.626C587.427 515.947 587.136 517.136 586.555 518.193C585.974 519.223 585.194 520.043 584.216 520.65C583.239 521.258 582.169 521.602 581.006 521.681L580.808 521.126C582.895 521.205 584.428 521.654 585.405 522.473C586.383 523.266 586.951 524.574 587.11 526.397L587.784 534.324H583.344L582.71 527.071C582.578 525.75 582.169 524.825 581.482 524.297C580.821 523.742 579.738 523.464 578.232 523.464H573.198V534.324H568.838V506.184ZM577.637 519.422C579.275 519.422 580.544 519.025 581.442 518.233C582.367 517.414 582.829 516.277 582.829 514.824C582.829 513.371 582.367 512.235 581.442 511.416C580.544 510.596 579.275 510.187 577.637 510.187H573.198V519.422H577.637ZM599.262 528.934H604.652V534.324H599.262V528.934ZM599.262 514.19H604.652V519.58H599.262V514.19ZM624.612 514.626H617.32V510.94H620.887C621.944 510.94 622.789 510.781 623.423 510.464C624.084 510.147 624.56 509.645 624.85 508.958C625.167 508.271 625.326 507.346 625.326 506.184H628.972V534.324H624.612V514.626ZM615.893 530.321H635.551V534.324H615.893V530.321ZM639.42 534.324C639.42 532.131 639.724 530.215 640.332 528.577C640.966 526.939 642.036 525.42 643.542 524.019C645.048 522.592 647.136 521.166 649.804 519.739C651.178 519.025 652.222 518.404 652.935 517.876C653.675 517.321 654.217 516.74 654.56 516.132C654.904 515.524 655.076 514.784 655.076 513.912C655.076 512.565 654.653 511.495 653.807 510.702C652.962 509.883 651.76 509.473 650.201 509.473C648.43 509.473 647.017 509.949 645.96 510.9C644.929 511.852 644.282 513.239 644.018 515.062L639.539 514.784C639.83 511.904 640.9 509.645 642.749 508.007C644.599 506.369 647.083 505.55 650.201 505.55C652.129 505.55 653.794 505.893 655.194 506.58C656.595 507.267 657.665 508.245 658.405 509.513C659.145 510.755 659.515 512.195 659.515 513.833C659.515 515.286 659.277 516.528 658.801 517.559C658.352 518.563 657.586 519.514 656.502 520.412C655.446 521.284 653.939 522.249 651.984 523.306C649.659 524.521 647.875 525.75 646.633 526.992C645.392 528.234 644.731 529.33 644.652 530.281H659.554V534.324H639.42ZM676.027 528.538H662.789V524.733L675.392 506.184H680.386V524.495H683.716V528.538H680.386V534.324H676.027V528.538ZM676.027 524.495V512.169L667.585 524.495H676.027ZM696.859 534.958C693.82 534.958 691.442 534.218 689.725 532.739C688.007 531.259 687.082 529.264 686.95 526.754L691.429 526.477C691.587 527.956 692.142 529.066 693.093 529.806C694.045 530.519 695.3 530.876 696.859 530.876C698.523 530.876 699.871 530.506 700.901 529.766C701.958 529 702.487 527.824 702.487 526.239C702.487 525.182 702.262 524.297 701.813 523.583C701.39 522.87 700.769 522.341 699.95 521.998C699.131 521.628 698.18 521.443 697.097 521.443H694.758V517.519H697.097C698.418 517.519 699.488 517.202 700.307 516.568C701.152 515.934 701.575 514.969 701.575 513.675C701.575 512.327 701.179 511.323 700.386 510.662C699.593 509.975 698.457 509.632 696.978 509.632C695.445 509.632 694.269 509.949 693.45 510.583C692.657 511.191 692.182 512.076 692.023 513.239L687.465 512.961C687.73 510.689 688.681 508.892 690.319 507.571C691.984 506.223 694.203 505.55 696.978 505.55C698.827 505.55 700.439 505.867 701.813 506.501C703.213 507.109 704.284 507.994 705.023 509.156C705.763 510.319 706.133 511.693 706.133 513.278C706.133 515.049 705.605 516.462 704.548 517.519C703.491 518.576 701.919 519.29 699.831 519.659V518.906C702.077 519.171 703.848 519.977 705.142 521.324C706.437 522.672 707.084 524.389 707.084 526.477C707.084 528.22 706.662 529.727 705.816 530.995C704.971 532.263 703.768 533.241 702.209 533.928C700.677 534.615 698.893 534.958 696.859 534.958Z" fill="#737373"/>
</g>
<defs>
<filter id="filter0_f_354_221" x="-164.556" y="173.742" width="265.428" height="265.222" filterUnits="userSpaceOnUse" color-interpolation-filters="sRGB">
<feFlood flood-opacity="0" result="BackgroundImageFix"/>
<feBlend mode="normal" in="SourceGraphic" in2="BackgroundImageFix" result="shape"/>
<feGaussianBlur stdDeviation="2.12886" result="effect1_foregroundBlur_354_221"/>
</filter>
<filter id="filter1_i_354_221" x="276" y="32" width="1327" height="75.8286" filterUnits="userSpaceOnUse" color-interpolation-filters="sRGB">
<feFlood flood-opacity="0" result="BackgroundImageFix"/>
<feBlend mode="normal" in="SourceGraphic" in2="BackgroundImageFix" result="shape"/>
<feColorMatrix in="SourceAlpha" type="matrix" values="0 0 0 0 0 0 0 0 0 0 0 0 0 0 0 0 0 0 127 0" result="hardAlpha"/>
<feOffset/>
<feGaussianBlur stdDeviation="3.79143"/>
<feComposite in2="hardAlpha" operator="arithmetic" k2="-1" k3="1"/>
<feColorMatrix type="matrix" values="0 0 0 0 1 0 0 0 0 1 0 0 0 0 1 0 0 0 0.25 0"/>
<feBlend mode="normal" in2="shape" result="effect1_innerShadow_354_221"/>
</filter>
<filter id="filter2_bi_354_221" x="238.086" y="92.6629" width="1402.83" height="144.074" filterUnits="userSpaceOnUse" color-interpolation-filters="sRGB">
<feFlood flood-opacity="0" result="BackgroundImageFix"/>
<feGaussianBlur in="BackgroundImageFix" stdDeviation="18.9571"/>
<feComposite in2="SourceAlpha" operator="in" result="effect1_backgroundBlur_354_221"/>
<feBlend mode="normal" in="SourceGraphic" in2="effect1_backgroundBlur_354_221" result="shape"/>
<feColorMatrix in="SourceAlpha" type="matrix" values="0 0 0 0 0 0 0 0 0 0 0 0 0 0 0 0 0 0 127 0" result="hardAlpha"/>
<feOffset/>
<feGaussianBlur stdDeviation="3.79143"/>
<feComposite in2="hardAlpha" operator="arithmetic" k2="-1" k3="1"/>
<feColorMatrix type="matrix" values="0 0 0 0 0.960784 0 0 0 0 0.960784 0 0 0 0 0.960784 0 0 0 1 0"/>
<feBlend mode="normal" in2="shape" result="effect2_innerShadow_354_221"/>
</filter>
<filter id="filter3_bi_354_221" x="-186.406" y="178.986" width="468.696" height="255.652" filterUnits="userSpaceOnUse" color-interpolation-filters="sRGB">
<feFlood flood-opacity="0" result="BackgroundImageFix"/>
<feGaussianBlur in="BackgroundImageFix" stdDeviation="35.5072"/>
<feComposite in2="SourceAlpha" operator="in" result="effect1_backgroundBlur_354_221"/>
<feBlend mode="normal" in="SourceGraphic" in2="effect1_backgroundBlur_354_221" result="shape"/>
<feColorMatrix in="SourceAlpha" type="matrix" values="0 0 0 0 0 0 0 0 0 0 0 0 0 0 0 0 0 0 127 0" result="hardAlpha"/>
<feOffset/>
<feGaussianBlur stdDeviation="7.10145"/>
<feComposite in2="hardAlpha" operator="arithmetic" k2="-1" k3="1"/>
<feColorMatrix type="matrix" values="0 0 0 0 0.960784 0 0 0 0 0.960784 0 0 0 0 0.960784 0 0 0 1 0"/>
<feBlend mode="normal" in2="shape" result="effect2_innerShadow_354_221"/>
</filter>
<filter id="filter4_i_354_221" x="111.855" y="264.204" width="85.2174" height="85.2173" filterUnits="userSpaceOnUse" color-interpolation-filters="sRGB">
<feFlood flood-opacity="0" result="BackgroundImageFix"/>
<feBlend mode="normal" in="SourceGraphic" in2="BackgroundImageFix" result="shape"/>
<feColorMatrix in="SourceAlpha" type="matrix" values="0 0 0 0 0 0 0 0 0 0 0 0 0 0 0 0 0 0 127 0" result="hardAlpha"/>
<feOffset/>
<feGaussianBlur stdDeviation="7.10145"/>
<feComposite in2="hardAlpha" operator="arithmetic" k2="-1" k3="1"/>
<feColorMatrix type="matrix" values="0 0 0 0 0.52549 0 0 0 0 0.937255 0 0 0 0 0.67451 0 0 0 0.25 0"/>
<feBlend mode="normal" in2="shape" result="effect1_innerShadow_354_221"/>
</filter>
<linearGradient id="paint0_linear_354_221" x1="242.08" y1="230.37" x2="242.08" y2="362.024" gradientUnits="userSpaceOnUse">
<stop stop-color="#EAEAEA"/>
<stop offset="1" stop-color="#F8F8F8"/>
</linearGradient>
<linearGradient id="paint1_linear_354_221" x1="340.029" y1="214" x2="340.029" y2="385.017" gradientUnits="userSpaceOnUse">
<stop stop-color="#EAEAEA"/>
<stop offset="1" stop-color="#F8F8F8"/>
</linearGradient>
<linearGradient id="paint2_linear_354_221" x1="227.7" y1="255.8" x2="227.7" y2="362.017" gradientUnits="userSpaceOnUse">
<stop stop-color="#EAEAEA"/>
<stop offset="1" stop-color="#F8F8F8"/>
</linearGradient>
<linearGradient id="paint3_linear_354_221" x1="304.022" y1="214" x2="304.022" y2="382.934" gradientUnits="userSpaceOnUse">
<stop stop-color="#EAEAEA"/>
<stop offset="1" stop-color="#F8F8F8"/>
</linearGradient>
<linearGradient id="paint4_linear_354_221" x1="264.815" y1="243.273" x2="264.815" y2="360.755" gradientUnits="userSpaceOnUse">
<stop stop-color="#EAEAEA"/>
<stop offset="1" stop-color="#F8F8F8"/>
</linearGradient>
<linearGradient id="paint5_linear_354_221" x1="112.518" y1="0" x2="112.518" y2="224.863" gradientUnits="userSpaceOnUse">
<stop stop-color="#F0FDF4"/>
<stop offset="0.515" stop-color="#BBF7D0"/>
</linearGradient>
<linearGradient id="paint6_linear_354_221" x1="567.083" y1="114.964" x2="567.083" y2="304.118" gradientUnits="userSpaceOnUse">
<stop stop-color="#FEF2F2"/>
<stop offset="0.515" stop-color="#FECACA"/>
</linearGradient>
<linearGradient id="paint7_linear_354_221" x1="939.5" y1="32" x2="939.5" y2="107.829" gradientUnits="userSpaceOnUse">
<stop stop-color="white"/>
<stop offset="1" stop-color="#FAFAFA"/>
</linearGradient>
<linearGradient id="paint8_linear_354_221" x1="366.893" y1="138.16" x2="366.893" y2="191.24" gradientUnits="userSpaceOnUse">
<stop stop-color="white"/>
<stop offset="1" stop-color="#FAFAFA"/>
</linearGradient>
<linearGradient id="paint9_linear_354_221" x1="366.893" y1="138.16" x2="366.893" y2="191.24" gradientUnits="userSpaceOnUse">
<stop stop-color="#FAFAFA"/>
<stop offset="1" stop-color="#F5F5F5"/>
</linearGradient>
<linearGradient id="paint10_linear_354_221" x1="393.08" y1="153.326" x2="393.08" y2="176.074" gradientUnits="userSpaceOnUse">
<stop stop-color="#F5F5F5"/>
<stop offset="0.515" stop-color="#E5E5E5"/>
</linearGradient>
<linearGradient id="paint11_linear_354_221" x1="572.307" y1="138.16" x2="572.307" y2="191.24" gradientUnits="userSpaceOnUse">
<stop stop-color="#FAFAFA"/>
<stop offset="1" stop-color="#FEF2F2"/>
</linearGradient>
<linearGradient id="paint12_linear_354_221" x1="47.9421" y1="264.204" x2="47.9421" y2="349.421" gradientUnits="userSpaceOnUse">
<stop stop-color="#FAFAFA"/>
<stop offset="1" stop-color="#FEF2F2"/>
</linearGradient>
<linearGradient id="paint13_linear_354_221" x1="154.464" y1="264.204" x2="154.464" y2="349.421" gradientUnits="userSpaceOnUse">
<stop stop-color="white"/>
<stop offset="1" stop-color="#FAFAFA"/>
</linearGradient>
<linearGradient id="paint14_linear_354_221" x1="50.3171" y1="485" x2="50.3171" y2="556.648" gradientUnits="userSpaceOnUse">
<stop offset="0.485" stop-color="#FFF7ED"/>
<stop offset="1" stop-color="#FFEDD5"/>
</linearGradient>
<linearGradient id="paint15_linear_354_221" x1="296.451" y1="485" x2="296.451" y2="556.648" gradientUnits="userSpaceOnUse">
<stop offset="0.485" stop-color="#F0FDF4"/>
<stop offset="1" stop-color="#DCFCE7"/>
</linearGradient>
<linearGradient id="paint16_linear_354_221" x1="597.727" y1="485" x2="597.727" y2="556.648" gradientUnits="userSpaceOnUse">
<stop offset="0.485" stop-color="#FAFAFA"/>
<stop offset="1" stop-color="#F5F5F5"/>
</linearGradient>
<clipPath id="clip0_354_221">
<rect width="579.466" height="579" fill="white"/>
</clipPath>
<clipPath id="clip1_354_221">
<path d="M276 50.9571C276 40.4874 284.487 32 294.957 32H1584.04C1594.51 32 1603 40.4874 1603 50.9571V88.8714C1603 99.3412 1594.51 107.829 1584.04 107.829H294.957C284.487 107.829 276 99.3412 276 88.8714V50.9571Z" fill="white"/>
</clipPath>
</defs>
</svg>
