<svg width="25" height="25" viewBox="0 0 25 25" fill="none" xmlns="http://www.w3.org/2000/svg">
<g filter="url(#filter0_i_358_1056)">
<rect x="0.74353" y="0.743515" width="24" height="24" rx="9.6" fill="#FF6B00"/>
<path d="M12.4683 18.5123C11.6395 18.5123 10.8947 18.3443 10.2339 18.0083C9.58433 17.6611 9.06353 17.1795 8.67153 16.5635C8.27953 15.9475 8.04993 15.2363 7.98273 14.4299L9.49473 14.3291C9.57313 14.9227 9.74113 15.4267 9.99873 15.8411C10.2675 16.2555 10.6091 16.5691 11.0235 16.7819C11.4491 16.9947 11.9419 17.1011 12.5019 17.1011C13.0507 17.1011 13.5155 17.0339 13.8963 16.8995C14.2883 16.7539 14.5795 16.5467 14.7699 16.2779C14.9715 15.9979 15.0723 15.6675 15.0723 15.2867C15.0723 14.8835 14.9827 14.5475 14.8035 14.2787C14.6243 13.9987 14.2939 13.7355 13.8123 13.4891C13.3419 13.2427 12.6475 12.9907 11.7291 12.7331C10.8779 12.4867 10.2003 12.2235 9.69633 11.9435C9.20353 11.6635 8.83953 11.3275 8.60433 10.9355C8.38033 10.5323 8.26833 10.0339 8.26833 9.44031C8.26833 8.77951 8.42513 8.19151 8.73873 7.67631C9.06353 7.16111 9.52273 6.76351 10.1163 6.48351C10.7211 6.19231 11.4267 6.04671 12.2331 6.04671C13.0283 6.04671 13.7171 6.20911 14.2995 6.53391C14.8931 6.85871 15.3635 7.30671 15.7107 7.87791C16.0579 8.44911 16.2763 9.10431 16.3659 9.84351L14.8539 9.94431C14.7867 9.45151 14.6411 9.02031 14.4171 8.65071C14.2043 8.26991 13.9131 7.97871 13.5435 7.77711C13.1739 7.56431 12.7259 7.45791 12.1995 7.45791C11.4603 7.45791 10.8723 7.63711 10.4355 7.99551C9.99873 8.34271 9.78033 8.80191 9.78033 9.37311C9.78033 9.75391 9.85873 10.0619 10.0155 10.2971C10.1835 10.5323 10.4635 10.7395 10.8555 10.9187C11.2587 11.0979 11.8523 11.2995 12.6363 11.5235C13.6219 11.8035 14.3947 12.1115 14.9547 12.4475C15.5259 12.7723 15.9403 13.1643 16.1979 13.6235C16.4555 14.0827 16.5843 14.6483 16.5843 15.3203C16.5843 15.9363 16.4107 16.4907 16.0635 16.9835C15.7163 17.4651 15.2291 17.8403 14.6019 18.1091C13.9859 18.3779 13.2747 18.5123 12.4683 18.5123Z" fill="url(#paint0_linear_358_1056)"/>
</g>
<defs>
<filter id="filter0_i_358_1056" x="0.74353" y="0.743515" width="24" height="24" filterUnits="userSpaceOnUse" color-interpolation-filters="sRGB">
<feFlood flood-opacity="0" result="BackgroundImageFix"/>
<feBlend mode="normal" in="SourceGraphic" in2="BackgroundImageFix" result="shape"/>
<feColorMatrix in="SourceAlpha" type="matrix" values="0 0 0 0 0 0 0 0 0 0 0 0 0 0 0 0 0 0 127 0" result="hardAlpha"/>
<feOffset/>
<feGaussianBlur stdDeviation="2.4"/>
<feComposite in2="hardAlpha" operator="arithmetic" k2="-1" k3="1"/>
<feColorMatrix type="matrix" values="0 0 0 0 1 0 0 0 0 0.713681 0 0 0 0 0.509167 0 0 0 1 0"/>
<feBlend mode="normal" in2="shape" result="effect1_innerShadow_358_1056"/>
</filter>
<linearGradient id="paint0_linear_358_1056" x1="12.7435" y1="4.24352" x2="12.7435" y2="21.2435" gradientUnits="userSpaceOnUse">
<stop stop-color="white"/>
<stop offset="1" stop-color="#FFC399"/>
</linearGradient>
</defs>
</svg>
